TwilioSansMono-SemiBoldItalic.ufo
<glyph name="exclam" format="2">
	<unicode hex="0021"/>
	<advance width="600"/>
	<outline>
		<contour>
			<point x="248" y="219" type="line"/>
			<point x="338" y="219" type="line"/>
			<point x="408" y="552" type="line"/>
			<point x="427" y="684" type="line"/>
			<point x="290" y="684" type="line"/>
			<point x="271" y="552" type="line"/>
		</contour>
		<contour>
			<point x="268" y="-12" type="curve" smooth="yes"/>
			<point x="324" y="-12"/>
			<point x="350" y="10"/>
			<point x="356" y="58" type="curve" smooth="yes"/>
			<point x="364" y="113"/>
			<point x="337" y="140"/>
			<point x="278" y="140" type="curve" smooth="yes"/>
			<point x="221" y="140"/>
			<point x="195" y="118"/>
			<point x="189" y="71" type="curve" smooth="yes"/>
			<point x="181" y="14"/>
			<point x="208" y="-12"/>
		</contour>
	</outline>
</glyph>
<glyph name="dollar" format="2">
	<unicode hex="0024"/>
	<advance width="600"/>
	<outline>
		<contour>
			<point x="129" y="-93" type="line"/>
			<point x="224" y="-93" type="line"/>
			<point x="249" y="-10" type="line"/>
			<point x="260" y="-11"/>
			<point x="270" y="-11"/>
			<point x="281" y="-11" type="curve" smooth="yes"/>
			<point x="439" y="-11"/>
			<point x="545" y="76"/>
			<point x="545" y="221" type="curve" smooth="yes"/>
			<point x="545" y="328"/>
			<point x="481" y="362"/>
			<point x="369" y="391" type="curve"/>
			<point x="428" y="585" type="line"/>
			<point x="482" y="573"/>
			<point x="534" y="552"/>
			<point x="571" y="522" type="curve"/>
			<point x="586" y="629" type="line"/>
			<point x="556" y="650"/>
			<point x="513" y="669"/>
			<point x="462" y="681" type="curve"/>
			<point x="490" y="774" type="line"/>
			<point x="395" y="774" type="line"/>
			<point x="371" y="694" type="line"/>
			<point x="361" y="695"/>
			<point x="352" y="695"/>
			<point x="342" y="695" type="curve" smooth="yes"/>
			<point x="176" y="695"/>
			<point x="81" y="607"/>
			<point x="81" y="470" type="curve" smooth="yes"/>
			<point x="81" y="355"/>
			<point x="155" y="319"/>
			<point x="251" y="295" type="curve"/>
			<point x="193" y="104" type="line"/>
			<point x="142" y="118"/>
			<point x="92" y="144"/>
			<point x="49" y="181" type="curve"/>
			<point x="33" y="69" type="line"/>
			<point x="65" y="42"/>
			<point x="109" y="20"/>
			<point x="158" y="6" type="curve"/>
		</contour>
		<contour>
			<point x="204" y="493" type="curve" smooth="yes"/>
			<point x="204" y="559"/>
			<point x="253" y="595"/>
			<point x="339" y="595" type="curve" smooth="yes"/>
			<point x="343" y="595" type="line"/>
			<point x="287" y="412" type="line"/>
			<point x="231" y="428"/>
			<point x="204" y="445"/>
		</contour>
		<contour>
			<point x="422" y="195" type="curve" smooth="yes"/>
			<point x="422" y="127"/>
			<point x="368" y="91"/>
			<point x="285" y="91" type="curve" smooth="yes"/>
			<point x="278" y="91" type="line"/>
			<point x="334" y="277" type="line"/>
			<point x="391" y="263"/>
			<point x="422" y="246"/>
		</contour>
	</outline>
</glyph>
<glyph name="ampersand" format="2">
	<unicode hex="0026"/>
	<advance width="600"/>
	<outline>
		<contour>
			<point x="212" y="-14" type="curve" smooth="yes"/>
			<point x="282" y="-14"/>
			<point x="343" y="7"/>
			<point x="394" y="45" type="curve"/>
			<point x="426" y="0" type="line"/>
			<point x="574" y="0" type="line"/>
			<point x="479" y="133" type="line"/>
			<point x="528" y="203"/>
			<point x="564" y="293"/>
			<point x="588" y="398" type="curve"/>
			<point x="474" y="398" type="line"/>
			<point x="457" y="329"/>
			<point x="436" y="272"/>
			<point x="413" y="226" type="curve"/>
			<point x="298" y="386" type="line" smooth="yes"/>
			<point x="270" y="425"/>
			<point x="252" y="453"/>
			<point x="252" y="495" type="curve" smooth="yes"/>
			<point x="252" y="558"/>
			<point x="292" y="597"/>
			<point x="363" y="597" type="curve" smooth="yes"/>
			<point x="418" y="597"/>
			<point x="480" y="574"/>
			<point x="524" y="542" type="curve"/>
			<point x="539" y="649" type="line"/>
			<point x="497" y="674"/>
			<point x="430" y="698"/>
			<point x="356" y="698" type="curve" smooth="yes"/>
			<point x="209" y="698"/>
			<point x="129" y="603"/>
			<point x="129" y="487" type="curve" smooth="yes"/>
			<point x="129" y="456"/>
			<point x="136" y="428"/>
			<point x="147" y="402" type="curve"/>
			<point x="65" y="357"/>
			<point x="2" y="281"/>
			<point x="2" y="180" type="curve" smooth="yes"/>
			<point x="2" y="63"/>
			<point x="78" y="-14"/>
		</contour>
		<contour>
			<point x="122" y="196" type="curve" smooth="yes"/>
			<point x="121" y="254"/>
			<point x="155" y="295"/>
			<point x="200" y="317" type="curve"/>
			<point x="337" y="125" type="line"/>
			<point x="306" y="100"/>
			<point x="273" y="88"/>
			<point x="236" y="88" type="curve" smooth="yes"/>
			<point x="167" y="88"/>
			<point x="123" y="127"/>
		</contour>
	</outline>
</glyph>
<glyph name="parenleft" format="2">
	<unicode hex="0028"/>
	<advance width="600"/>
	<outline>
		<contour>
			<point x="408" y="-168" type="curve"/>
			<point x="457" y="-66" type="line"/>
			<point x="295" y="2"/>
			<point x="251" y="140"/>
			<point x="279" y="334" type="curve" smooth="yes"/>
			<point x="306" y="526"/>
			<point x="386" y="645"/>
			<point x="567" y="694" type="curve"/>
			<point x="544" y="798" type="line"/>
			<point x="305" y="736"/>
			<point x="195" y="577"/>
			<point x="164" y="344" type="curve" smooth="yes"/>
			<point x="130" y="100"/>
			<point x="200" y="-77"/>
		</contour>
	</outline>
</glyph>
<glyph name="parenright" format="2">
	<unicode hex="0029"/>
	<advance width="600"/>
	<outline>
		<contour>
			<point x="48" y="-65" type="curve"/>
			<point x="71" y="-169" type="line"/>
			<point x="314" y="-106"/>
			<point x="420" y="56"/>
			<point x="451" y="283" type="curve" smooth="yes"/>
			<point x="485" y="525"/>
			<point x="414" y="706"/>
			<point x="207" y="798" type="curve"/>
			<point x="157" y="696" type="line"/>
			<point x="325" y="624"/>
			<point x="362" y="477"/>
			<point x="336" y="292" type="curve" smooth="yes"/>
			<point x="310" y="108"/>
			<point x="232" y="-15"/>
		</contour>
	</outline>
</glyph>
<glyph name="period" format="2">
	<unicode hex="002E"/>
	<advance width="600"/>
	<outline>
		<contour>
			<point x="268" y="-12" type="curve" smooth="yes"/>
			<point x="328" y="-12"/>
			<point x="358" y="13"/>
			<point x="365" y="66" type="curve" smooth="yes"/>
			<point x="374" y="126"/>
			<point x="346" y="155"/>
			<point x="281" y="155" type="curve" smooth="yes"/>
			<point x="219" y="155"/>
			<point x="189" y="131"/>
			<point x="182" y="78" type="curve" smooth="yes"/>
			<point x="173" y="17"/>
			<point x="200" y="-12"/>
		</contour>
	</outline>
</glyph>
<glyph name="slash" format="2">
	<unicode hex="002F"/>
	<advance width="600"/>
	<outline>
		<contour>
			<point x="488" y="792" type="line"/>
			<point x="-1" y="-163" type="line"/>
			<point x="126" y="-163" type="line"/>
			<point x="616" y="792" type="line"/>
		</contour>
	</outline>
</glyph>
<glyph name="four" format="2">
	<unicode hex="0034"/>
	<advance width="600"/>
	<outline>
		<contour>
			<point x="322" y="0" type="line"/>
			<point x="446" y="0" type="line"/>
			<point x="465" y="139" type="line"/>
			<point x="537" y="139" type="line"/>
			<point x="551" y="241" type="line"/>
			<point x="480" y="241" type="line"/>
			<point x="543" y="686" type="line"/>
			<point x="352" y="686" type="line"/>
			<point x="28" y="243" type="line"/>
			<point x="13" y="139" type="line"/>
			<point x="340" y="139" type="line"/>
		</contour>
		<contour>
			<point x="152" y="241" type="line"/>
			<point x="404" y="590" type="line"/>
			<point x="355" y="241" type="line"/>
		</contour>
	</outline>
</glyph>
<glyph name="six" format="2">
	<unicode hex="0036"/>
	<advance width="600"/>
	<outline>
		<contour>
			<point x="288" y="-14" type="curve" smooth="yes"/>
			<point x="446" y="-14"/>
			<point x="549" y="93"/>
			<point x="549" y="267" type="curve" smooth="yes"/>
			<point x="549" y="381"/>
			<point x="486" y="450"/>
			<point x="372" y="450" type="curve" smooth="yes"/>
			<point x="297" y="450"/>
			<point x="235" y="416"/>
			<point x="189" y="337" type="curve"/>
			<point x="217" y="514"/>
			<point x="266" y="595"/>
			<point x="389" y="595" type="curve" smooth="yes"/>
			<point x="463" y="595"/>
			<point x="531" y="569"/>
			<point x="575" y="536" type="curve"/>
			<point x="590" y="641" type="line"/>
			<point x="550" y="670"/>
			<point x="474" y="698"/>
			<point x="377" y="698" type="curve" smooth="yes"/>
			<point x="171" y="698"/>
			<point x="87" y="555"/>
			<point x="60" y="365" type="curve" smooth="yes"/>
			<point x="58" y="351" type="line" smooth="yes"/>
			<point x="26" y="130"/>
			<point x="76" y="-14"/>
		</contour>
		<contour>
			<point x="293" y="87" type="curve" smooth="yes"/>
			<point x="222" y="87"/>
			<point x="179" y="130"/>
			<point x="179" y="207" type="curve" smooth="yes"/>
			<point x="179" y="301"/>
			<point x="229" y="358"/>
			<point x="311" y="358" type="curve" smooth="yes"/>
			<point x="381" y="358"/>
			<point x="421" y="321"/>
			<point x="421" y="245" type="curve" smooth="yes"/>
			<point x="421" y="147"/>
			<point x="373" y="87"/>
		</contour>
	</outline>
</glyph>
<glyph name="seven" format="2">
	<unicode hex="0037"/>
	<advance width="600"/>
	<outline>
		<contour>
			<point x="99" y="0" type="line"/>
			<point x="242" y="0" type="line"/>
			<point x="595" y="562" type="line"/>
			<point x="612" y="684" type="line"/>
			<point x="114" y="684" type="line"/>
			<point x="82" y="459" type="line"/>
			<point x="195" y="459" type="line"/>
			<point x="214" y="586" type="line"/>
			<point x="471" y="586" type="line"/>
		</contour>
	</outline>
</glyph>
<glyph name="greater" format="2">
	<unicode hex="003E"/>
	<advance width="600"/>
	<outline>
		<contour>
			<point x="36" y="25" type="line"/>
			<point x="527" y="229" type="line"/>
			<point x="546" y="366" type="line"/>
			<point x="113" y="571" type="line"/>
			<point x="96" y="454" type="line"/>
			<point x="434" y="300" type="line"/>
			<point x="54" y="150" type="line"/>
		</contour>
	</outline>
</glyph>
<glyph name="E" format="2">
	<unicode hex="0045"/>
	<advance width="600"/>
	<outline>
		<contour>
			<point x="139" y="684" type="line"/>
			<point x="43" y="0" type="line"/>
			<point x="504" y="0" type="line"/>
			<point x="519" y="105" type="line"/>
			<point x="184" y="105" type="line"/>
			<point x="210" y="291" type="line"/>
			<point x="500" y="291" type="line"/>
			<point x="515" y="395" type="line"/>
			<point x="225" y="395" type="line"/>
			<point x="251" y="580" type="line"/>
			<point x="580" y="580" type="line"/>
			<point x="595" y="684" type="line"/>
		</contour>
	</outline>
	<anchor name="ogonek" x="504" y="0"/>
	<anchor name="bottom" x="304" y="0"/>
	<anchor name="top" x="366" y="684"/>
</glyph>
<glyph name="H" format="2">
	<unicode hex="0048"/>
	<advance width="600"/>
	<outline>
		<contour>
			<point x="27" y="0" type="line"/>
			<point x="153" y="0" type="line"/>
			<point x="194" y="294" type="line"/>
			<point x="414" y="294" type="line"/>
			<point x="373" y="0" type="line"/>
			<point x="499" y="0" type="line"/>
			<point x="595" y="684" type="line"/>
			<point x="469" y="684" type="line"/>
			<point x="429" y="400" type="line"/>
			<point x="209" y="400" type="line"/>
			<point x="249" y="684" type="line"/>
			<point x="123" y="684" type="line"/>
		</contour>
	</outline>
	<anchor name="center" x="338" y="531"/>
	<anchor name="bottom" x="289" y="0"/>
	<anchor name="top" x="359" y="684"/>
</glyph>
<glyph name="M" format="2">
	<unicode hex="004D"/>
	<advance width="600"/>
	<outline>
		<contour>
			<point x="8" y="0" type="line"/>
			<point x="123" y="0" type="line"/>
			<point x="158" y="251" type="line" smooth="yes"/>
			<point x="171" y="345"/>
			<point x="183" y="451"/>
			<point x="186" y="540" type="curve"/>
			<point x="194" y="540" type="line"/>
			<point x="229" y="164" type="line"/>
			<point x="343" y="164" type="line"/>
			<point x="482" y="540" type="line"/>
			<point x="493" y="540" type="line"/>
			<point x="467" y="449"/>
			<point x="452" y="352"/>
			<point x="438" y="252" type="curve" smooth="yes"/>
			<point x="403" y="0" type="line"/>
			<point x="518" y="0" type="line"/>
			<point x="614" y="684" type="line"/>
			<point x="437" y="684" type="line"/>
			<point x="308" y="307" type="line"/>
			<point x="303" y="307" type="line"/>
			<point x="278" y="684" type="line"/>
			<point x="104" y="684" type="line"/>
		</contour>
	</outline>
</glyph>
<glyph name="N" format="2">
	<unicode hex="004E"/>
	<advance width="600"/>
	<outline>
		<contour>
			<point x="26" y="0" type="line"/>
			<point x="143" y="0" type="line"/>
			<point x="184" y="290" type="line" smooth="yes"/>
			<point x="197" y="380"/>
			<point x="195" y="457"/>
			<point x="195" y="541" type="curve"/>
			<point x="202" y="541" type="line"/>
			<point x="346" y="0" type="line"/>
			<point x="500" y="0" type="line"/>
			<point x="596" y="684" type="line"/>
			<point x="479" y="684" type="line"/>
			<point x="438" y="395" type="line" smooth="yes"/>
			<point x="424" y="294"/>
			<point x="425" y="228"/>
			<point x="428" y="143" type="curve"/>
			<point x="420" y="143" type="line"/>
			<point x="276" y="684" type="line"/>
			<point x="122" y="684" type="line"/>
		</contour>
	</outline>
	<anchor name="top" x="381" y="684"/>
	<anchor name="bottom" x="242" y="0"/>
</glyph>
<glyph name="O" format="2">
	<unicode hex="004F"/>
	<advance width="600"/>
	<outline>
		<contour>
			<point x="279" y="-14" type="curve" smooth="yes"/>
			<point x="445" y="-14"/>
			<point x="531" y="113"/>
			<point x="559" y="307" type="curve" smooth="yes"/>
			<point x="561" y="321" type="line" smooth="yes"/>
			<point x="596" y="566"/>
			<point x="523" y="698"/>
			<point x="346" y="698" type="curve" smooth="yes"/>
			<point x="184" y="698"/>
			<point x="91" y="569"/>
			<point x="63" y="376" type="curve" smooth="yes"/>
			<point x="61" y="362" type="line" smooth="yes"/>
			<point x="26" y="118"/>
			<point x="98" y="-14"/>
		</contour>
		<contour>
			<point x="284" y="90" type="curve" smooth="yes"/>
			<point x="195" y="90"/>
			<point x="164" y="172"/>
			<point x="190" y="354" type="curve" smooth="yes"/>
			<point x="191" y="361" type="line" smooth="yes"/>
			<point x="215" y="527"/>
			<point x="263" y="594"/>
			<point x="340" y="594" type="curve" smooth="yes"/>
			<point x="427" y="594"/>
			<point x="458" y="512"/>
			<point x="432" y="332" type="curve" smooth="yes"/>
			<point x="431" y="325" type="line" smooth="yes"/>
			<point x="407" y="158"/>
			<point x="362" y="90"/>
		</contour>
	</outline>
	<anchor name="center" x="315" y="348"/>
	<anchor name="bottom" x="269" y="0"/>
	<anchor name="top" x="358" y="684"/>
</glyph>
<glyph name="Q" format="2">
	<unicode hex="0051"/>
	<advance width="600"/>
	<outline>
		<contour>
			<point x="294" y="-70" type="curve" smooth="yes"/>
			<point x="436" y="-124" type="line"/>
			<point x="501" y="-32" type="line"/>
			<point x="338" y="23" type="line"/>
			<point x="454" y="41"/>
			<point x="534" y="131"/>
			<point x="561" y="318" type="curve" smooth="yes"/>
			<point x="563" y="332" type="line" smooth="yes"/>
			<point x="595" y="560"/>
			<point x="525" y="698"/>
			<point x="343" y="698" type="curve" smooth="yes"/>
			<point x="184" y="698"/>
			<point x="91" y="570"/>
			<point x="63" y="376" type="curve" smooth="yes"/>
			<point x="61" y="362" type="line" smooth="yes"/>
			<point x="26" y="119"/>
			<point x="100" y="4"/>
		</contour>
		<contour>
			<point x="285" y="90" type="curve" smooth="yes"/>
			<point x="196" y="90"/>
			<point x="164" y="174"/>
			<point x="190" y="354" type="curve" smooth="yes"/>
			<point x="191" y="361" type="line" smooth="yes"/>
			<point x="215" y="526"/>
			<point x="261" y="596"/>
			<point x="337" y="596" type="curve" smooth="yes"/>
			<point x="424" y="596"/>
			<point x="457" y="511"/>
			<point x="432" y="332" type="curve" smooth="yes"/>
			<point x="431" y="325" type="line" smooth="yes"/>
			<point x="407" y="159"/>
			<point x="362" y="90"/>
		</contour>
	</outline>
	<anchor name="top" x="340" y="684"/>
	<anchor name="bottom" x="250" y="4"/>
</glyph>
<glyph name="R" format="2">
	<unicode hex="0052"/>
	<advance width="600"/>
	<outline>
		<contour>
			<point x="28" y="0" type="line"/>
			<point x="155" y="0" type="line"/>
			<point x="190" y="249" type="line"/>
			<point x="286" y="249" type="line" smooth="yes"/>
			<point x="356" y="249"/>
			<point x="373" y="219"/>
			<point x="379" y="160" type="curve" smooth="yes"/>
			<point x="399" y="0" type="line"/>
			<point x="531" y="0" type="line"/>
			<point x="506" y="180" type="line" smooth="yes"/>
			<point x="497" y="250"/>
			<point x="470" y="288"/>
			<point x="414" y="301" type="curve"/>
			<point x="515" y="317"/>
			<point x="587" y="379"/>
			<point x="586" y="502" type="curve" smooth="yes"/>
			<point x="586" y="613"/>
			<point x="512" y="684"/>
			<point x="383" y="684" type="curve" smooth="yes"/>
			<point x="124" y="684" type="line"/>
		</contour>
		<contour>
			<point x="350" y="582" type="line" smooth="yes"/>
			<point x="423" y="582"/>
			<point x="457" y="542"/>
			<point x="457" y="480" type="curve" smooth="yes"/>
			<point x="457" y="394"/>
			<point x="410" y="350"/>
			<point x="332" y="350" type="curve" smooth="yes"/>
			<point x="204" y="350" type="line"/>
			<point x="237" y="582" type="line"/>
		</contour>
	</outline>
	<anchor name="top" x="340" y="684"/>
	<anchor name="bottom" x="277" y="0"/>
</glyph>
<glyph name="S" format="2">
	<unicode hex="0053"/>
	<advance width="600"/>
	<outline>
		<contour>
			<point x="284" y="-13" type="curve" smooth="yes"/>
			<point x="441" y="-13"/>
			<point x="540" y="78"/>
			<point x="540" y="220" type="curve" smooth="yes"/>
			<point x="540" y="341"/>
			<point x="464" y="372"/>
			<point x="336" y="402" type="curve" smooth="yes"/>
			<point x="254" y="421"/>
			<point x="212" y="437"/>
			<point x="212" y="495" type="curve" smooth="yes"/>
			<point x="212" y="558"/>
			<point x="257" y="595"/>
			<point x="338" y="595" type="curve" smooth="yes"/>
			<point x="415" y="595"/>
			<point x="509" y="567"/>
			<point x="565" y="521" type="curve"/>
			<point x="581" y="631" type="line"/>
			<point x="531" y="666"/>
			<point x="445" y="698"/>
			<point x="339" y="698" type="curve" smooth="yes"/>
			<point x="177" y="698"/>
			<point x="85" y="606"/>
			<point x="85" y="471" type="curve" smooth="yes"/>
			<point x="85" y="336"/>
			<point x="180" y="307"/>
			<point x="292" y="283" type="curve" smooth="yes"/>
			<point x="367" y="266"/>
			<point x="413" y="257"/>
			<point x="413" y="195" type="curve" smooth="yes"/>
			<point x="413" y="130"/>
			<point x="364" y="90"/>
			<point x="285" y="90" type="curve" smooth="yes"/>
			<point x="204" y="90"/>
			<point x="118" y="123"/>
			<point x="56" y="182" type="curve"/>
			<point x="39" y="68" type="line"/>
			<point x="98" y="18"/>
			<point x="185" y="-13"/>
		</contour>
	</outline>
	<anchor name="top" x="364" y="684"/>
	<anchor name="bottom" x="278" y="0"/>
</glyph>
<glyph name="T" format="2">
	<unicode hex="0054"/>
	<advance width="600"/>
	<outline>
		<contour>
			<point x="199" y="0" type="line"/>
			<point x="326" y="0" type="line"/>
			<point x="407" y="575" type="line"/>
			<point x="607" y="575" type="line"/>
			<point x="623" y="684" type="line"/>
			<point x="96" y="684" type="line"/>
			<point x="80" y="575" type="line"/>
			<point x="280" y="575" type="line"/>
		</contour>
	</outline>
	<anchor name="center" x="311" y="346"/>
	<anchor name="bottom" x="263" y="0"/>
	<anchor name="top" x="360" y="684"/>
</glyph>
<glyph name="U" format="2">
	<unicode hex="0055"/>
	<advance width="600"/>
	<outline>
		<contour>
			<point x="270" y="-14" type="curve" smooth="yes"/>
			<point x="426" y="-14"/>
			<point x="511" y="71"/>
			<point x="533" y="226" type="curve" smooth="yes"/>
			<point x="598" y="684" type="line"/>
			<point x="471" y="684" type="line"/>
			<point x="407" y="226" type="line" smooth="yes"/>
			<point x="395" y="145"/>
			<point x="359" y="92"/>
			<point x="283" y="92" type="curve" smooth="yes"/>
			<point x="205" y="92"/>
			<point x="173" y="150"/>
			<point x="185" y="235" type="curve" smooth="yes"/>
			<point x="248" y="684" type="line"/>
			<point x="121" y="684" type="line"/>
			<point x="59" y="241" type="line" smooth="yes"/>
			<point x="35" y="75"/>
			<point x="113" y="-14"/>
		</contour>
	</outline>
	<anchor name="ogonek" x="369" y="0"/>
	<anchor name="bottom" x="250" y="0"/>
	<anchor name="top" x="360" y="684"/>
</glyph>
<glyph name="V" format="2">
	<unicode hex="0056"/>
	<advance width="600"/>
	<outline>
		<contour>
			<point x="171" y="-1" type="line"/>
			<point x="352" y="-1" type="line"/>
			<point x="639" y="684" type="line"/>
			<point x="505" y="684" type="line"/>
			<point x="276" y="111" type="line"/>
			<point x="208" y="684" type="line"/>
			<point x="79" y="684" type="line"/>
		</contour>
	</outline>
	<anchor name="overlap" x="367" y="684"/>
	<anchor name="ogonek" x="567" y="0"/>
	<anchor name="top" x="369" y="684"/>
	<anchor name="bottom" x="277" y="0"/>
</glyph>
<glyph name="X" format="2">
	<unicode hex="0058"/>
	<advance width="600"/>
	<outline>
		<contour>
			<point x="-17" y="0" type="line"/>
			<point x="129" y="0" type="line"/>
			<point x="301" y="267" type="line"/>
			<point x="404" y="0" type="line"/>
			<point x="543" y="0" type="line"/>
			<point x="396" y="358" type="line"/>
			<point x="625" y="684" type="line"/>
			<point x="481" y="684" type="line"/>
			<point x="323" y="450" type="line"/>
			<point x="229" y="684" type="line"/>
			<point x="92" y="684" type="line"/>
			<point x="230" y="361" type="line"/>
		</contour>
	</outline>
	<anchor name="top" x="372" y="684"/>
	<anchor name="bottom" x="281" y="0"/>
</glyph>
<glyph name="Y" format="2">
	<unicode hex="0059"/>
	<advance width="600"/>
	<outline>
		<contour>
			<point x="195" y="0" type="line"/>
			<point x="323" y="0" type="line"/>
			<point x="355" y="229" type="line"/>
			<point x="640" y="684" type="line"/>
			<point x="501" y="684" type="line"/>
			<point x="313" y="367" type="line"/>
			<point x="215" y="684" type="line"/>
			<point x="78" y="684" type="line"/>
			<point x="228" y="231" type="line"/>
		</contour>
	</outline>
	<anchor name="top" x="359" y="684"/>
	<anchor name="bottom" x="267" y="0"/>
</glyph>
<glyph name="Z" format="2">
	<unicode hex="005A"/>
	<advance width="600"/>
	<outline>
		<contour>
			<point x="16" y="0" type="line"/>
			<point x="510" y="0" type="line"/>
			<point x="525" y="105" type="line"/>
			<point x="191" y="105" type="line"/>
			<point x="590" y="575" type="line"/>
			<point x="605" y="684" type="line"/>
			<point x="127" y="684" type="line"/>
			<point x="112" y="580" type="line"/>
			<point x="445" y="580" type="line"/>
			<point x="30" y="99" type="line"/>
		</contour>
	</outline>
	<anchor name="top" x="365" y="684"/>
	<anchor name="bottom" x="262" y="0"/>
</glyph>
<glyph name="backslash" format="2">
	<unicode hex="005C"/>
	<advance width="600"/>
	<outline>
		<contour>
			<point x="362" y="-163" type="line"/>
			<point x="481" y="-163" type="line"/>
			<point x="253" y="792" type="line"/>
			<point x="134" y="792" type="line"/>
		</contour>
	</outline>
</glyph>
<glyph name="asciicircum" format="2">
	<unicode hex="005E"/>
	<advance width="600"/>
	<outline>
		<contour>
			<point x="61" y="233" type="line"/>
			<point x="175" y="233" type="line"/>
			<point x="334" y="484" type="line"/>
			<point x="420" y="233" type="line"/>
			<point x="531" y="233" type="line"/>
			<point x="402" y="581" type="line"/>
			<point x="287" y="581" type="line"/>
		</contour>
	</outline>
</glyph>
<glyph name="grave" format="2">
	<unicode hex="0060"/>
	<advance width="600"/>
	<outline>
		<contour>
			<point x="251" y="750" type="line"/>
			<point x="335" y="602" type="line"/>
			<point x="433" y="602" type="line"/>
			<point x="389" y="750" type="line"/>
		</contour>
	</outline>
	<anchor name="_top" x="375" y="523"/>
</glyph>
<glyph name="a" format="2">
	<unicode hex="0061"/>
	<advance width="600"/>
	<outline>
		<contour>
			<point x="198" y="-14" type="curve" smooth="yes"/>
			<point x="276" y="-14"/>
			<point x="329" y="28"/>
			<point x="368" y="89" type="curve"/>
			<point x="356" y="0" type="line"/>
			<point x="476" y="0" type="line"/>
			<point x="522" y="323" type="line" smooth="yes"/>
			<point x="543" y="476"/>
			<point x="457" y="537"/>
			<point x="318" y="537" type="curve" smooth="yes"/>
			<point x="243" y="537"/>
			<point x="171" y="519"/>
			<point x="118" y="493" type="curve"/>
			<point x="102" y="385" type="line"/>
			<point x="162" y="421"/>
			<point x="227" y="438"/>
			<point x="292" y="438" type="curve" smooth="yes"/>
			<point x="373" y="438"/>
			<point x="407" y="400"/>
			<point x="399" y="329" type="curve"/>
			<point x="292" y="314" type="line" smooth="yes"/>
			<point x="132" y="291"/>
			<point x="52" y="231"/>
			<point x="52" y="114" type="curve" smooth="yes"/>
			<point x="53" y="37"/>
			<point x="106" y="-14"/>
		</contour>
		<contour>
			<point x="254" y="76" type="curve" smooth="yes"/>
			<point x="205" y="76"/>
			<point x="172" y="101"/>
			<point x="172" y="142" type="curve" smooth="yes"/>
			<point x="172" y="193"/>
			<point x="209" y="222"/>
			<point x="298" y="236" type="curve" smooth="yes"/>
			<point x="387" y="249" type="line"/>
			<point x="378" y="189" type="line" smooth="yes"/>
			<point x="368" y="122"/>
			<point x="321" y="76"/>
		</contour>
	</outline>
	<anchor name="ogonek" x="476" y="0"/>
	<anchor name="bottom" x="261" y="-2"/>
	<anchor name="top" x="338" y="524"/>
</glyph>
<glyph name="d" format="2">
	<unicode hex="0064"/>
	<advance width="600"/>
	<outline>
		<contour>
			<point x="211" y="-14" type="curve" smooth="yes"/>
			<point x="280" y="-14"/>
			<point x="340" y="22"/>
			<point x="382" y="106" type="curve"/>
			<point x="367" y="0" type="line"/>
			<point x="488" y="0" type="line"/>
			<point x="593" y="750" type="line"/>
			<point x="468" y="750" type="line"/>
			<point x="436" y="523" type="line"/>
			<point x="371" y="523" type="line" smooth="yes"/>
			<point x="192" y="523"/>
			<point x="80" y="423"/>
			<point x="56" y="261" type="curve" smooth="yes"/>
			<point x="54" y="247" type="line" smooth="yes"/>
			<point x="31" y="83"/>
			<point x="93" y="-14"/>
		</contour>
		<contour>
			<point x="182" y="252" type="curve" smooth="yes"/>
			<point x="183" y="259" type="line"/>
			<point x="199" y="373"/>
			<point x="259" y="425"/>
			<point x="361" y="425" type="curve" smooth="yes"/>
			<point x="423" y="425" type="line"/>
			<point x="394" y="217" type="line" smooth="yes"/>
			<point x="383" y="138"/>
			<point x="339" y="85"/>
			<point x="273" y="85" type="curve" smooth="yes"/>
			<point x="201" y="85"/>
			<point x="167" y="146"/>
		</contour>
	</outline>
	<anchor name="caron" x="691" y="765"/>
	<anchor name="ogonek" x="538" y="4"/>
	<anchor name="top" x="406" y="550"/>
	<anchor name="center" x="468" y="629"/>
</glyph>
<glyph name="f" format="2">
	<unicode hex="0066"/>
	<advance width="600"/>
	<outline>
		<contour>
			<point x="95" y="-204" type="curve" smooth="yes"/>
			<point x="201" y="-204"/>
			<point x="284" y="-160"/>
			<point x="303" y="-23" type="curve" smooth="yes"/>
			<point x="366" y="424" type="line"/>
			<point x="563" y="424" type="line"/>
			<point x="577" y="523" type="line"/>
			<point x="380" y="523" type="line"/>
			<point x="389" y="587" type="line" smooth="yes"/>
			<point x="396" y="645"/>
			<point x="434" y="665"/>
			<point x="489" y="665" type="curve" smooth="yes"/>
			<point x="525" y="665"/>
			<point x="564" y="656"/>
			<point x="588" y="646" type="curve"/>
			<point x="601" y="735" type="line"/>
			<point x="573" y="748"/>
			<point x="520" y="760"/>
			<point x="470" y="760" type="curve" smooth="yes"/>
			<point x="365" y="760"/>
			<point x="280" y="715"/>
			<point x="265" y="600" type="curve" smooth="yes"/>
			<point x="255" y="523" type="line"/>
			<point x="100" y="523" type="line"/>
			<point x="85" y="424" type="line"/>
			<point x="241" y="424" type="line"/>
			<point x="179" y="-9" type="line" smooth="yes"/>
			<point x="170" y="-75"/>
			<point x="144" y="-107"/>
			<point x="78" y="-107" type="curve" smooth="yes"/>
			<point x="39" y="-107"/>
			<point x="3" y="-97"/>
			<point x="-24" y="-83" type="curve"/>
			<point x="-38" y="-174" type="line"/>
			<point x="-6" y="-192"/>
			<point x="44" y="-204"/>
		</contour>
	</outline>
</glyph>
<glyph name="h" format="2">
	<unicode hex="0068"/>
	<advance width="600"/>
	<outline>
		<contour>
			<point x="399" y="537" type="curve" smooth="yes"/>
			<point x="326" y="537"/>
			<point x="269" y="496"/>
			<point x="226" y="425" type="curve"/>
			<point x="272" y="750" type="line"/>
			<point x="147" y="750" type="line"/>
			<point x="41" y="0" type="line"/>
			<point x="167" y="0" type="line"/>
			<point x="212" y="320" type="line" smooth="yes"/>
			<point x="215" y="342"/>
			<point x="222" y="362"/>
			<point x="234" y="379" type="curve" smooth="yes"/>
			<point x="254" y="409"/>
			<point x="283" y="434"/>
			<point x="328" y="434" type="curve" smooth="yes"/>
			<point x="390" y="434"/>
			<point x="421" y="394"/>
			<point x="409" y="309" type="curve" smooth="yes"/>
			<point x="365" y="0" type="line"/>
			<point x="490" y="0" type="line"/>
			<point x="537" y="332" type="line" smooth="yes"/>
			<point x="556" y="463"/>
			<point x="500" y="537"/>
		</contour>
	</outline>
	<anchor name="center" x="235" y="629"/>
	<anchor name="caron" x="317" y="746"/>
	<anchor name="top" x="206" y="729"/>
	<anchor name="bottom" x="265" y="0"/>
</glyph>
<glyph name="l" format="2">
	<unicode hex="006C"/>
	<advance width="600"/>
	<outline>
		<contour>
			<point x="31" y="0" type="line"/>
			<point x="505" y="0" type="line"/>
			<point x="519" y="99" type="line"/>
			<point x="350" y="99" type="line"/>
			<point x="443" y="750" type="line"/>
			<point x="139" y="750" type="line"/>
			<point x="124" y="651" type="line"/>
			<point x="304" y="651" type="line"/>
			<point x="224" y="99" type="line"/>
			<point x="45" y="99" type="line"/>
		</contour>
	</outline>
	<anchor name="center" x="326" y="372"/>
	<anchor name="caron" x="546" y="750"/>
	<anchor name="top" x="380" y="734"/>
	<anchor name="bottom" x="273" y="0"/>
</glyph>
<glyph name="s" format="2">
	<unicode hex="0073"/>
	<advance width="600"/>
	<outline>
		<contour>
			<point x="271" y="-14" type="curve" smooth="yes"/>
			<point x="421" y="-14"/>
			<point x="504" y="54"/>
			<point x="504" y="173" type="curve" smooth="yes"/>
			<point x="504" y="275"/>
			<point x="424" y="297"/>
			<point x="320" y="318" type="curve" smooth="yes"/>
			<point x="248" y="333"/>
			<point x="218" y="341"/>
			<point x="218" y="380" type="curve" smooth="yes"/>
			<point x="218" y="421"/>
			<point x="255" y="444"/>
			<point x="317" y="444" type="curve" smooth="yes"/>
			<point x="389" y="444"/>
			<point x="476" y="421"/>
			<point x="530" y="381" type="curve"/>
			<point x="544" y="486" type="line"/>
			<point x="490" y="518"/>
			<point x="407" y="538"/>
			<point x="326" y="538" type="curve" smooth="yes"/>
			<point x="173" y="538"/>
			<point x="96" y="461"/>
			<point x="96" y="353" type="curve" smooth="yes"/>
			<point x="96" y="250"/>
			<point x="177" y="224"/>
			<point x="281" y="206" type="curve" smooth="yes"/>
			<point x="356" y="194"/>
			<point x="384" y="184"/>
			<point x="384" y="146" type="curve" smooth="yes"/>
			<point x="384" y="101"/>
			<point x="344" y="81"/>
			<point x="279" y="81" type="curve" smooth="yes"/>
			<point x="214" y="81"/>
			<point x="130" y="101"/>
			<point x="70" y="149" type="curve"/>
			<point x="56" y="46" type="line"/>
			<point x="100" y="12"/>
			<point x="180" y="-14"/>
		</contour>
	</outline>
	<anchor name="top" x="350" y="523"/>
	<anchor name="bottom" x="273" y="0"/>
</glyph>
<glyph name="u" format="2">
	<unicode hex="0075"/>
	<advance width="600"/>
	<outline>
		<contour>
			<point x="560" y="523" type="line"/>
			<point x="435" y="523" type="line"/>
			<point x="391" y="215" type="line" smooth="yes"/>
			<point x="387" y="183"/>
			<point x="377" y="155"/>
			<point x="361" y="133" type="curve" smooth="yes"/>
			<point x="341" y="104"/>
			<point x="311" y="87"/>
			<point x="272" y="87" type="curve" smooth="yes"/>
			<point x="209" y="87"/>
			<point x="179" y="127"/>
			<point x="191" y="207" type="curve" smooth="yes"/>
			<point x="236" y="523" type="line"/>
			<point x="111" y="523" type="line"/>
			<point x="63" y="186" type="line" smooth="yes"/>
			<point x="45" y="60"/>
			<point x="96" y="-14"/>
			<point x="203" y="-14" type="curve" smooth="yes"/>
			<point x="279" y="-14"/>
			<point x="341" y="29"/>
			<point x="381" y="102" type="curve"/>
			<point x="366" y="0" type="line"/>
			<point x="486" y="0" type="line"/>
		</contour>
	</outline>
	<anchor name="ogonek" x="486" y="0"/>
	<anchor name="bottom" x="274" y="0"/>
	<anchor name="top" x="336" y="523"/>
</glyph>
<glyph name="w" format="2">
	<unicode hex="0077"/>
	<advance width="600"/>
	<outline>
		<contour>
			<point x="112" y="-14" type="curve" smooth="yes"/>
			<point x="165" y="-14"/>
			<point x="206" y="28"/>
			<point x="231" y="86" type="curve"/>
			<point x="241" y="19"/>
			<point x="281" y="-13"/>
			<point x="358" y="-13" type="curve" smooth="yes"/>
			<point x="477" y="-13"/>
			<point x="543" y="90"/>
			<point x="567" y="274" type="curve" smooth="yes"/>
			<point x="579" y="358"/>
			<point x="583" y="448"/>
			<point x="575" y="523" type="curve"/>
			<point x="467" y="523" type="line"/>
			<point x="473" y="447"/>
			<point x="470" y="364"/>
			<point x="458" y="280" type="curve" smooth="yes"/>
			<point x="438" y="140"/>
			<point x="417" y="84"/>
			<point x="374" y="84" type="curve" smooth="yes"/>
			<point x="344" y="84"/>
			<point x="333" y="108"/>
			<point x="339" y="150" type="curve" smooth="yes"/>
			<point x="393" y="523" type="line"/>
			<point x="287" y="523" type="line"/>
			<point x="235" y="157" type="line" smooth="yes"/>
			<point x="229" y="117"/>
			<point x="211" y="84"/>
			<point x="176" y="84" type="curve" smooth="yes"/>
			<point x="147" y="84"/>
			<point x="135" y="106"/>
			<point x="141" y="151" type="curve" smooth="yes"/>
			<point x="194" y="523" type="line"/>
			<point x="84" y="523" type="line"/>
			<point x="26" y="113" type="line" smooth="yes"/>
			<point x="15" y="35"/>
			<point x="43" y="-14"/>
		</contour>
	</outline>
	<anchor name="top" x="341" y="523"/>
</glyph>
<glyph name="x" format="2">
	<unicode hex="0078"/>
	<advance width="600"/>
	<outline>
		<contour>
			<point x="7" y="0" type="line"/>
			<point x="150" y="0" type="line"/>
			<point x="289" y="189" type="line"/>
			<point x="384" y="0" type="line"/>
			<point x="519" y="0" type="line"/>
			<point x="381" y="274" type="line"/>
			<point x="582" y="523" type="line"/>
			<point x="442" y="523" type="line"/>
			<point x="311" y="355" type="line"/>
			<point x="228" y="523" type="line"/>
			<point x="92" y="523" type="line"/>
			<point x="224" y="272" type="line"/>
		</contour>
	</outline>
	<anchor name="top" x="364" y="523"/>
	<anchor name="bottom" x="296" y="0"/>
</glyph>
<glyph name="bar" format="2">
	<unicode hex="007C"/>
	<advance width="600"/>
	<outline>
		<contour>
			<point x="316" y="792" type="line"/>
			<point x="182" y="-163" type="line"/>
			<point x="299" y="-163" type="line"/>
			<point x="433" y="792" type="line"/>
		</contour>
	</outline>
</glyph>
<glyph name="cent" format="2">
	<unicode hex="00A2"/>
	<advance width="600"/>
	<outline>
		<contour>
			<point x="254" y="-93" type="line"/>
			<point x="348" y="-93" type="line"/>
			<point x="365" y="-12" type="line"/>
			<point x="409" y="-11"/>
			<point x="447" y="-3"/>
			<point x="477" y="10" type="curve"/>
			<point x="491" y="110" type="line"/>
			<point x="460" y="96"/>
			<point x="420" y="88"/>
			<point x="383" y="88" type="curve"/>
			<point x="454" y="429" type="line"/>
			<point x="485" y="423"/>
			<point x="510" y="413"/>
			<point x="532" y="399" type="curve"/>
			<point x="546" y="497" type="line"/>
			<point x="527" y="509"/>
			<point x="502" y="518"/>
			<point x="475" y="524" type="curve"/>
			<point x="494" y="615" type="line"/>
			<point x="399" y="615" type="line"/>
			<point x="382" y="535" type="line"/>
			<point x="378" y="535" type="line" smooth="yes"/>
			<point x="212" y="535"/>
			<point x="110" y="442"/>
			<point x="90" y="300" type="curve" smooth="yes"/>
			<point x="88" y="286" type="line" smooth="yes"/>
			<point x="66" y="132"/>
			<point x="137" y="27"/>
			<point x="273" y="-3" type="curve"/>
		</contour>
		<contour>
			<point x="215" y="280" type="curve" smooth="yes"/>
			<point x="216" y="287" type="line" smooth="yes"/>
			<point x="229" y="376"/>
			<point x="279" y="425"/>
			<point x="364" y="433" type="curve"/>
			<point x="296" y="103" type="line"/>
			<point x="232" y="131"/>
			<point x="203" y="192"/>
		</contour>
	</outline>
</glyph>
<glyph name="sterling" format="2">
	<unicode hex="00A3"/>
	<advance width="600"/>
	<outline>
		<contour>
			<point x="43" y="101" type="curve"/>
			<point x="29" y="0" type="line"/>
			<point x="506" y="0" type="line"/>
			<point x="521" y="105" type="line"/>
			<point x="187" y="105" type="line"/>
			<point x="224" y="130"/>
			<point x="268" y="182"/>
			<point x="271" y="281" type="curve"/>
			<point x="451" y="281" type="line"/>
			<point x="464" y="376" type="line"/>
			<point x="272" y="376" type="line"/>
			<point x="268" y="404"/>
			<point x="262" y="430"/>
			<point x="262" y="461" type="curve" smooth="yes"/>
			<point x="262" y="542"/>
			<point x="310" y="591"/>
			<point x="392" y="591" type="curve" smooth="yes"/>
			<point x="464" y="591"/>
			<point x="531" y="568"/>
			<point x="580" y="529" type="curve"/>
			<point x="596" y="638" type="line"/>
			<point x="549" y="670"/>
			<point x="480" y="698"/>
			<point x="378" y="698" type="curve" smooth="yes"/>
			<point x="239" y="698"/>
			<point x="140" y="617"/>
			<point x="140" y="483" type="curve" smooth="yes"/>
			<point x="140" y="443"/>
			<point x="147" y="406"/>
			<point x="154" y="376" type="curve"/>
			<point x="72" y="376" type="line"/>
			<point x="58" y="281" type="line"/>
			<point x="149" y="281" type="line"/>
			<point x="145" y="198"/>
			<point x="96" y="133"/>
		</contour>
	</outline>
</glyph>
<glyph name="brokenbar" format="2">
	<unicode hex="00A6"/>
	<advance width="600"/>
	<outline>
		<contour>
			<point x="316" y="792" type="line"/>
			<point x="264" y="418" type="line"/>
			<point x="381" y="418" type="line"/>
			<point x="433" y="792" type="line"/>
		</contour>
		<contour>
			<point x="239" y="244" type="line"/>
			<point x="182" y="-163" type="line"/>
			<point x="299" y="-163" type="line"/>
			<point x="356" y="244" type="line"/>
		</contour>
	</outline>
</glyph>
<glyph name="copyright" format="2">
	<unicode hex="00A9"/>
	<advance width="600"/>
	<outline>
		<contour>
			<point x="302" y="103" type="curve" smooth="yes"/>
			<point x="440" y="103"/>
			<point x="550" y="189"/>
			<point x="572" y="342" type="curve" smooth="yes"/>
			<point x="574" y="356" type="line" smooth="yes"/>
			<point x="600" y="536"/>
			<point x="494" y="657"/>
			<point x="331" y="657" type="curve" smooth="yes"/>
			<point x="191" y="657"/>
			<point x="83" y="572"/>
			<point x="61" y="421" type="curve" smooth="yes"/>
			<point x="59" y="407" type="line" smooth="yes"/>
			<point x="33" y="225"/>
			<point x="140" y="103"/>
		</contour>
		<contour>
			<point x="307" y="160" type="curve" smooth="yes"/>
			<point x="173" y="160"/>
			<point x="99" y="257"/>
			<point x="120" y="406" type="curve" smooth="yes"/>
			<point x="121" y="413" type="line" smooth="yes"/>
			<point x="138" y="534"/>
			<point x="213" y="600"/>
			<point x="327" y="600" type="curve" smooth="yes"/>
			<point x="461" y="600"/>
			<point x="535" y="504"/>
			<point x="514" y="356" type="curve" smooth="yes"/>
			<point x="513" y="349" type="line" smooth="yes"/>
			<point x="495" y="227"/>
			<point x="419" y="160"/>
		</contour>
		<contour>
			<point x="328" y="244" type="curve" smooth="yes"/>
			<point x="347" y="244"/>
			<point x="364" y="247"/>
			<point x="376" y="252" type="curve"/>
			<point x="383" y="301" type="line"/>
			<point x="372" y="297"/>
			<point x="358" y="294"/>
			<point x="342" y="294" type="curve" smooth="yes"/>
			<point x="296" y="294"/>
			<point x="260" y="324"/>
			<point x="269" y="388" type="curve" smooth="yes"/>
			<point x="277" y="440"/>
			<point x="307" y="467"/>
			<point x="352" y="467" type="curve" smooth="yes"/>
			<point x="373" y="467"/>
			<point x="392" y="461"/>
			<point x="404" y="455" type="curve"/>
			<point x="410" y="503" type="line"/>
			<point x="399" y="511"/>
			<point x="372" y="517"/>
			<point x="344" y="517" type="curve" smooth="yes"/>
			<point x="268" y="517"/>
			<point x="218" y="472"/>
			<point x="206" y="397" type="curve" smooth="yes"/>
			<point x="192" y="306"/>
			<point x="243" y="244"/>
		</contour>
	</outline>
</glyph>
<glyph name="logicalnot" format="2">
	<unicode hex="00AC"/>
	<advance width="600"/>
	<outline>
		<contour>
			<point x="501" y="49" type="line"/>
			<point x="542" y="350" type="line"/>
			<point x="81" y="350" type="line"/>
			<point x="66" y="244" type="line"/>
			<point x="413" y="244" type="line"/>
			<point x="387" y="49" type="line"/>
		</contour>
	</outline>
</glyph>
<glyph name="paragraph" format="2">
	<unicode hex="00B6"/>
	<advance width="600"/>
	<outline>
		<contour>
			<point x="247" y="0" type="line"/>
			<point x="340" y="0" type="line"/>
			<point x="424" y="593" type="line"/>
			<point x="494" y="593" type="line"/>
			<point x="410" y="0" type="line"/>
			<point x="505" y="0" type="line"/>
			<point x="602" y="684" type="line"/>
			<point x="306" y="684" type="line" smooth="yes"/>
			<point x="150" y="684"/>
			<point x="61" y="585"/>
			<point x="61" y="441" type="curve" smooth="yes"/>
			<point x="61" y="311"/>
			<point x="142" y="240"/>
			<point x="281" y="240" type="curve" smooth="yes"/>
		</contour>
	</outline>
</glyph>
<glyph name="cedilla" format="2">
	<unicode hex="00B8"/>
	<advance width="600"/>
	<outline>
		<contour>
			<point x="219" y="-227" type="curve" smooth="yes"/>
			<point x="299" y="-227"/>
			<point x="345" y="-188"/>
			<point x="346" y="-123" type="curve" smooth="yes"/>
			<point x="347" y="-76"/>
			<point x="321" y="-50"/>
			<point x="270" y="-46" type="curve"/>
			<point x="298" y="0" type="line"/>
			<point x="229" y="0" type="line"/>
			<point x="175" y="-93" type="line"/>
			<point x="188" y="-91"/>
			<point x="199" y="-90"/>
			<point x="208" y="-90" type="curve" smooth="yes"/>
			<point x="245" y="-90"/>
			<point x="264" y="-100"/>
			<point x="264" y="-124" type="curve" smooth="yes"/>
			<point x="264" y="-151"/>
			<point x="244" y="-163"/>
			<point x="208" y="-163" type="curve" smooth="yes"/>
			<point x="180" y="-163"/>
			<point x="155" y="-155"/>
			<point x="136" y="-145" type="curve"/>
			<point x="128" y="-206" type="line"/>
			<point x="148" y="-218"/>
			<point x="184" y="-227"/>
		</contour>
	</outline>
	<anchor name="_bottom" x="262" y="0"/>
</glyph>
<glyph name="ordmasculine" format="2">
	<unicode hex="00BA"/>
	<advance width="600"/>
	<outline>
		<contour>
			<point x="311" y="224" type="curve" smooth="yes"/>
			<point x="441" y="224"/>
			<point x="529" y="309"/>
			<point x="547" y="444" type="curve" smooth="yes"/>
			<point x="567" y="596"/>
			<point x="488" y="696"/>
			<point x="345" y="696" type="curve" smooth="yes"/>
			<point x="214" y="696"/>
			<point x="126" y="612"/>
			<point x="108" y="476" type="curve" smooth="yes"/>
			<point x="88" y="325"/>
			<point x="168" y="224"/>
		</contour>
		<contour>
			<point x="315" y="303" type="curve" smooth="yes"/>
			<point x="232" y="303"/>
			<point x="200" y="372"/>
			<point x="215" y="473" type="curve" smooth="yes"/>
			<point x="229" y="565"/>
			<point x="269" y="617"/>
			<point x="341" y="617" type="curve" smooth="yes"/>
			<point x="424" y="617"/>
			<point x="455" y="549"/>
			<point x="440" y="447" type="curve" smooth="yes"/>
			<point x="427" y="356"/>
			<point x="386" y="303"/>
		</contour>
	</outline>
</glyph>
<glyph name="guillemetright" format="2">
	<unicode hex="00BB"/>
	<advance width="600"/>
	<outline>
		<contour>
			<point x="244" y="77" type="line"/>
			<point x="375" y="77" type="line"/>
			<point x="558" y="287" type="line"/>
			<point x="433" y="497" type="line"/>
			<point x="304" y="497" type="line"/>
			<point x="430" y="289" type="line"/>
		</contour>
		<contour>
			<point x="23" y="77" type="line"/>
			<point x="154" y="77" type="line"/>
			<point x="337" y="287" type="line"/>
			<point x="211" y="497" type="line"/>
			<point x="83" y="497" type="line"/>
			<point x="208" y="290" type="line"/>
		</contour>
	</outline>
</glyph>
<glyph name="Ccedilla" format="2">
	<unicode hex="00C7"/>
	<advance width="600"/>
	<outline>
		<contour>
			<point x="289" y="-227" type="curve" smooth="yes"/>
			<point x="369" y="-227"/>
			<point x="415" y="-188"/>
			<point x="416" y="-123" type="curve" smooth="yes"/>
			<point x="417" y="-76"/>
			<point x="391" y="-50"/>
			<point x="340" y="-46" type="curve"/>
			<point x="361" y="-12" type="line"/>
			<point x="370" y="-12" type="line" smooth="yes"/>
			<point x="428" y="-12"/>
			<point x="472" y="-2"/>
			<point x="507" y="13" type="curve"/>
			<point x="522" y="120" type="line"/>
			<point x="481" y="103"/>
			<point x="438" y="95"/>
			<point x="392" y="95" type="curve" smooth="yes"/>
			<point x="231" y="95"/>
			<point x="178" y="221"/>
			<point x="200" y="369" type="curve" smooth="yes"/>
			<point x="201" y="376" type="line" smooth="yes"/>
			<point x="221" y="516"/>
			<point x="296" y="589"/>
			<point x="425" y="589" type="curve" smooth="yes"/>
			<point x="481" y="589"/>
			<point x="536" y="575"/>
			<point x="581" y="547" type="curve"/>
			<point x="596" y="654" type="line"/>
			<point x="557" y="676"/>
			<point x="494" y="695"/>
			<point x="418" y="695" type="curve" smooth="yes"/>
			<point x="214" y="695"/>
			<point x="97" y="571"/>
			<point x="72" y="393" type="curve" smooth="yes"/>
			<point x="70" y="379" type="line" smooth="yes"/>
			<point x="43" y="195"/>
			<point x="106" y="28"/>
			<point x="296" y="-6" type="curve"/>
			<point x="245" y="-93" type="line"/>
			<point x="258" y="-91"/>
			<point x="269" y="-90"/>
			<point x="278" y="-90" type="curve" smooth="yes"/>
			<point x="315" y="-90"/>
			<point x="334" y="-100"/>
			<point x="334" y="-124" type="curve" smooth="yes"/>
			<point x="334" y="-151"/>
			<point x="314" y="-163"/>
			<point x="278" y="-163" type="curve" smooth="yes"/>
			<point x="250" y="-163"/>
			<point x="225" y="-155"/>
			<point x="206" y="-145" type="curve"/>
			<point x="198" y="-206" type="line"/>
			<point x="218" y="-218"/>
			<point x="254" y="-227"/>
		</contour>
	</outline>
</glyph>
<glyph name="multiply" format="2">
	<unicode hex="00D7"/>
	<advance width="600"/>
	<outline>
		<contour>
			<point x="128" y="79" type="line"/>
			<point x="299" y="230" type="line"/>
			<point x="423" y="81" type="line"/>
			<point x="503" y="152" type="line"/>
			<point x="379" y="301" type="line"/>
			<point x="551" y="454" type="line"/>
			<point x="484" y="532" type="line"/>
			<point x="313" y="380" type="line"/>
			<point x="189" y="529" type="line"/>
			<point x="108" y="459" type="line"/>
			<point x="233" y="309" type="line"/>
			<point x="61" y="157" type="line"/>
		</contour>
	</outline>
</glyph>
<glyph name="Thorn" format="2">
	<unicode hex="00DE"/>
	<advance width="600"/>
	<outline>
		<contour>
			<point x="133" y="693" type="line"/>
			<point x="35" y="0" type="line"/>
			<point x="162" y="0" type="line"/>
			<point x="179" y="118" type="line"/>
			<point x="326" y="118" type="line" smooth="yes"/>
			<point x="477" y="118"/>
			<point x="585" y="216"/>
			<point x="585" y="382" type="curve" smooth="yes"/>
			<point x="585" y="510"/>
			<point x="507" y="592"/>
			<point x="360" y="592" type="curve" smooth="yes"/>
			<point x="245" y="592" type="line"/>
			<point x="260" y="693" type="line"/>
		</contour>
		<contour>
			<point x="336" y="489" type="line" smooth="yes"/>
			<point x="423" y="489"/>
			<point x="456" y="437"/>
			<point x="456" y="370" type="curve" smooth="yes"/>
			<point x="456" y="275"/>
			<point x="403" y="221"/>
			<point x="316" y="221" type="curve" smooth="yes"/>
			<point x="194" y="221" type="line"/>
			<point x="231" y="489" type="line"/>
		</contour>
	</outline>
</glyph>
<glyph name="ae" format="2">
	<unicode hex="00E6"/>
	<advance width="600"/>
	<outline>
		<contour>
			<point x="102" y="-14" type="curve" smooth="yes"/>
			<point x="156" y="-14"/>
			<point x="207" y="17"/>
			<point x="239" y="102" type="curve"/>
			<point x="261" y="25"/>
			<point x="316" y="-14"/>
			<point x="413" y="-14" type="curve" smooth="yes"/>
			<point x="459" y="-14"/>
			<point x="510" y="3"/>
			<point x="534" y="21" type="curve"/>
			<point x="548" y="118" type="line"/>
			<point x="513" y="96"/>
			<point x="476" y="82"/>
			<point x="438" y="82" type="curve" smooth="yes"/>
			<point x="357" y="82"/>
			<point x="328" y="134"/>
			<point x="339" y="228" type="curve"/>
			<point x="581" y="228" type="line"/>
			<point x="589" y="281" type="line" smooth="yes"/>
			<point x="612" y="430"/>
			<point x="575" y="537"/>
			<point x="456" y="537" type="curve" smooth="yes"/>
			<point x="407" y="537"/>
			<point x="365" y="515"/>
			<point x="331" y="474" type="curve"/>
			<point x="311" y="515"/>
			<point x="271" y="537"/>
			<point x="210" y="537" type="curve" smooth="yes"/>
			<point x="141" y="537"/>
			<point x="88" y="511"/>
			<point x="57" y="493" type="curve"/>
			<point x="43" y="390" type="line"/>
			<point x="86" y="424"/>
			<point x="138" y="441"/>
			<point x="182" y="441" type="curve" smooth="yes"/>
			<point x="238" y="441"/>
			<point x="259" y="409"/>
			<point x="249" y="337" type="curve" smooth="yes"/>
			<point x="247" y="324" type="line"/>
			<point x="190" y="314" type="line" smooth="yes"/>
			<point x="68" y="291"/>
			<point x="-5" y="228"/>
			<point x="-5" y="108" type="curve" smooth="yes"/>
			<point x="-5" y="29"/>
			<point x="38" y="-14"/>
		</contour>
		<contour>
			<point x="440" y="449" type="curve" smooth="yes"/>
			<point x="484" y="449"/>
			<point x="494" y="391"/>
			<point x="486" y="306" type="curve"/>
			<point x="349" y="306" type="line"/>
			<point x="364" y="403"/>
			<point x="395" y="449"/>
		</contour>
		<contour>
			<point x="100" y="134" type="curve" smooth="yes"/>
			<point x="100" y="195"/>
			<point x="136" y="227"/>
			<point x="198" y="239" type="curve" smooth="yes"/>
			<point x="236" y="246" type="line"/>
			<point x="223" y="158" type="line" smooth="yes"/>
			<point x="215" y="104"/>
			<point x="187" y="72"/>
			<point x="150" y="72" type="curve" smooth="yes"/>
			<point x="118" y="72"/>
			<point x="100" y="95"/>
		</contour>
	</outline>
	<anchor name="top" x="333" y="523"/>
</glyph>
<glyph name="ccedilla" format="2">
	<unicode hex="00E7"/>
	<advance width="600"/>
	<outline>
		<contour>
			<point x="400" y="-12"/>
			<point x="443.6382978723" y="-4.5957446809"/>
			<point x="477" y="10" type="curve"/>
			<point x="491" y="110" type="line"/>
			<point x="460" y="96"/>
			<point x="419" y="88"/>
			<point x="382" y="88" type="curve" smooth="yes"/>
			<point x="260" y="88"/>
			<point x="198" y="160"/>
			<point x="215" y="280" type="curve" smooth="yes"/>
			<point x="216" y="287" type="line" smooth="yes"/>
			<point x="230" y="385"/>
			<point x="289" y="434"/>
			<point x="391" y="434" type="curve" smooth="yes"/>
			<point x="453" y="434"/>
			<point x="497" y="421"/>
			<point x="532" y="399" type="curve"/>
			<point x="546" y="497" type="line"/>
			<point x="506" y="521"/>
			<point x="445" y="535"/>
			<point x="378" y="535" type="curve" smooth="yes"/>
			<point x="212" y="535"/>
			<point x="110" y="442"/>
			<point x="90" y="300" type="curve" smooth="yes"/>
			<point x="88" y="286" type="line" smooth="yes"/>
			<point x="66" y="128"/>
			<point x="142" y="20"/>
			<point x="286" y="-6" type="curve"/>
			<point x="235" y="-93" type="line"/>
			<point x="248" y="-91"/>
			<point x="259" y="-90"/>
			<point x="268" y="-90" type="curve" smooth="yes"/>
			<point x="305" y="-90"/>
			<point x="324" y="-100"/>
			<point x="324" y="-124" type="curve" smooth="yes"/>
			<point x="324" y="-151"/>
			<point x="304" y="-163"/>
			<point x="268" y="-163" type="curve" smooth="yes"/>
			<point x="240" y="-163"/>
			<point x="215" y="-155"/>
			<point x="196" y="-145" type="curve"/>
			<point x="188" y="-206" type="line"/>
			<point x="208" y="-218"/>
			<point x="244" y="-227"/>
			<point x="279" y="-227" type="curve" smooth="yes"/>
			<point x="359" y="-227"/>
			<point x="405" y="-188"/>
			<point x="406" y="-123" type="curve" smooth="yes"/>
			<point x="407" y="-76"/>
			<point x="381" y="-50"/>
			<point x="330" y="-46" type="curve"/>
			<point x="351" y="-12" type="line"/>
		</contour>
	</outline>
</glyph>
<glyph name="divide" format="2">
	<unicode hex="00F7"/>
	<advance width="600"/>
	<outline>
		<contour>
			<point x="323" y="433" type="curve" smooth="yes"/>
			<point x="381" y="433"/>
			<point x="414" y="451"/>
			<point x="420" y="499" type="curve" smooth="yes"/>
			<point x="427" y="546"/>
			<point x="399" y="563"/>
			<point x="342" y="563" type="curve" smooth="yes"/>
			<point x="285" y="563"/>
			<point x="252" y="546"/>
			<point x="246" y="499" type="curve" smooth="yes"/>
			<point x="239" y="451"/>
			<point x="266" y="433"/>
		</contour>
		<contour>
			<point x="66" y="244" type="line"/>
			<point x="529" y="244" type="line"/>
			<point x="543" y="350" type="line"/>
			<point x="81" y="350" type="line"/>
		</contour>
		<contour>
			<point x="266" y="30" type="curve" smooth="yes"/>
			<point x="323" y="30"/>
			<point x="356" y="47"/>
			<point x="363" y="95" type="curve" smooth="yes"/>
			<point x="369" y="142"/>
			<point x="342" y="159"/>
			<point x="285" y="159" type="curve" smooth="yes"/>
			<point x="228" y="159"/>
			<point x="195" y="142"/>
			<point x="188" y="95" type="curve" smooth="yes"/>
			<point x="181" y="47"/>
			<point x="209" y="30"/>
		</contour>
	</outline>
</glyph>
<glyph name="aogonek" format="2">
	<unicode hex="0105"/>
	<advance width="600"/>
	<outline>
		<contour>
			<point x="198" y="-14" type="curve" smooth="yes"/>
			<point x="276" y="-14"/>
			<point x="329" y="28"/>
			<point x="368" y="89" type="curve"/>
			<point x="356" y="0" type="line"/>
			<point x="388" y="0" type="line"/>
			<point x="318" y="-25"/>
			<point x="277" y="-65"/>
			<point x="277" y="-120" type="curve" smooth="yes"/>
			<point x="277" y="-177"/>
			<point x="319" y="-203"/>
			<point x="394" y="-203" type="curve" smooth="yes"/>
			<point x="419" y="-203"/>
			<point x="445" y="-198"/>
			<point x="457" y="-193" type="curve"/>
			<point x="469" y="-114" type="line"/>
			<point x="462" y="-116"/>
			<point x="448" y="-119"/>
			<point x="433" y="-119" type="curve" smooth="yes"/>
			<point x="403" y="-119"/>
			<point x="383" y="-108"/>
			<point x="383" y="-82" type="curve" smooth="yes"/>
			<point x="383" y="-51"/>
			<point x="408" y="-22"/>
			<point x="476" y="0" type="curve"/>
			<point x="522" y="323" type="line" smooth="yes"/>
			<point x="543" y="476"/>
			<point x="457" y="537"/>
			<point x="318" y="537" type="curve" smooth="yes"/>
			<point x="243" y="537"/>
			<point x="171" y="519"/>
			<point x="118" y="493" type="curve"/>
			<point x="102" y="385" type="line"/>
			<point x="162" y="421"/>
			<point x="227" y="438"/>
			<point x="292" y="438" type="curve" smooth="yes"/>
			<point x="373" y="438"/>
			<point x="407" y="400"/>
			<point x="399" y="329" type="curve"/>
			<point x="292" y="314" type="line" smooth="yes"/>
			<point x="132" y="291"/>
			<point x="52" y="231"/>
			<point x="52" y="114" type="curve" smooth="yes"/>
			<point x="53" y="37"/>
			<point x="106" y="-14"/>
		</contour>
		<contour>
			<point x="254" y="76" type="curve" smooth="yes"/>
			<point x="205" y="76"/>
			<point x="172" y="101"/>
			<point x="172" y="142" type="curve" smooth="yes"/>
			<point x="172" y="193"/>
			<point x="209" y="222"/>
			<point x="298" y="236" type="curve" smooth="yes"/>
			<point x="387" y="249" type="line"/>
			<point x="378" y="189" type="line" smooth="yes"/>
			<point x="368" y="122"/>
			<point x="321" y="76"/>
		</contour>
	</outline>
</glyph>
<glyph name="eogonek" format="2">
	<unicode hex="0119"/>
	<advance width="600"/>
	<outline>
		<contour>
			<point x="346" y="-203" type="curve" smooth="yes"/>
			<point x="371" y="-203"/>
			<point x="397" y="-198"/>
			<point x="409" y="-193" type="curve"/>
			<point x="421" y="-114" type="line"/>
			<point x="414" y="-116"/>
			<point x="400" y="-119"/>
			<point x="385" y="-119" type="curve" smooth="yes"/>
			<point x="355" y="-119"/>
			<point x="335" y="-108"/>
			<point x="335" y="-82" type="curve" smooth="yes"/>
			<point x="335" y="-51"/>
			<point x="360" y="-22"/>
			<point x="428" y="0" type="curve"/>
			<point x="427" y="0" type="line"/>
			<point x="451" y="6"/>
			<point x="470" y="14"/>
			<point x="486" y="22" type="curve"/>
			<point x="499" y="120" type="line"/>
			<point x="461" y="102"/>
			<point x="406" y="87"/>
			<point x="345" y="87" type="curve" smooth="yes"/>
			<point x="237" y="87"/>
			<point x="184" y="137"/>
			<point x="182" y="227" type="curve"/>
			<point x="535" y="227" type="line"/>
			<point x="541" y="269" type="line" smooth="yes"/>
			<point x="565" y="434"/>
			<point x="482" y="537"/>
			<point x="329" y="537" type="curve" smooth="yes"/>
			<point x="193" y="537"/>
			<point x="86" y="445"/>
			<point x="65" y="296" type="curve" smooth="yes"/>
			<point x="63" y="282" type="line" smooth="yes"/>
			<point x="39" y="117"/>
			<point x="114" y="-12"/>
			<point x="308" y="-14" type="curve"/>
			<point x="257" y="-39"/>
			<point x="229" y="-75"/>
			<point x="229" y="-120" type="curve" smooth="yes"/>
			<point x="229" y="-177"/>
			<point x="271" y="-203"/>
		</contour>
		<contour>
			<point x="322" y="448" type="curve" smooth="yes"/>
			<point x="392" y="448"/>
			<point x="433" y="399"/>
			<point x="425" y="310" type="curve"/>
			<point x="188" y="310" type="line"/>
			<point x="203" y="397"/>
			<point x="253" y="448"/>
		</contour>
	</outline>
</glyph>
<glyph name="Iogonek" format="2">
	<unicode hex="012E"/>
	<advance width="600"/>
	<outline>
		<contour>
			<point x="37" y="0" type="line"/>
			<point x="400" y="0" type="line"/>
			<point x="330" y="-25"/>
			<point x="289" y="-65"/>
			<point x="289" y="-120" type="curve" smooth="yes"/>
			<point x="289" y="-177"/>
			<point x="331" y="-203"/>
			<point x="406" y="-203" type="curve" smooth="yes"/>
			<point x="431" y="-203"/>
			<point x="457" y="-198"/>
			<point x="469" y="-193" type="curve"/>
			<point x="481" y="-114" type="line"/>
			<point x="474" y="-116"/>
			<point x="460" y="-119"/>
			<point x="445" y="-119" type="curve" smooth="yes"/>
			<point x="415" y="-119"/>
			<point x="395" y="-108"/>
			<point x="395" y="-82" type="curve" smooth="yes"/>
			<point x="395" y="-51"/>
			<point x="420" y="-22"/>
			<point x="488" y="0" type="curve"/>
			<point x="502" y="101" type="line"/>
			<point x="340" y="101" type="line"/>
			<point x="408" y="583" type="line"/>
			<point x="570" y="583" type="line"/>
			<point x="584" y="684" type="line"/>
			<point x="134" y="684" type="line"/>
			<point x="119" y="583" type="line"/>
			<point x="281" y="583" type="line"/>
			<point x="213" y="101" type="line"/>
			<point x="52" y="101" type="line"/>
		</contour>
	</outline>
</glyph>
<glyph name="iogonek" format="2">
	<unicode hex="012F"/>
	<advance width="600"/>
	<outline>
		<contour>
			<point x="373" y="616" type="curve" smooth="yes"/>
			<point x="429" y="616"/>
			<point x="453" y="637"/>
			<point x="458" y="681" type="curve" smooth="yes"/>
			<point x="463" y="727"/>
			<point x="441" y="749"/>
			<point x="383" y="749" type="curve" smooth="yes"/>
			<point x="326" y="749"/>
			<point x="303" y="729"/>
			<point x="298" y="684" type="curve" smooth="yes"/>
			<point x="293" y="638"/>
			<point x="315" y="616"/>
		</contour>
		<contour>
			<point x="40" y="0" type="line"/>
			<point x="426" y="0" type="line"/>
			<point x="356" y="-25"/>
			<point x="315" y="-65"/>
			<point x="315" y="-120" type="curve" smooth="yes"/>
			<point x="315" y="-177"/>
			<point x="357" y="-203"/>
			<point x="432" y="-203" type="curve" smooth="yes"/>
			<point x="457" y="-203"/>
			<point x="483" y="-198"/>
			<point x="495" y="-193" type="curve"/>
			<point x="507" y="-114" type="line"/>
			<point x="500" y="-116"/>
			<point x="486" y="-119"/>
			<point x="471" y="-119" type="curve" smooth="yes"/>
			<point x="441" y="-119"/>
			<point x="421" y="-108"/>
			<point x="421" y="-82" type="curve" smooth="yes"/>
			<point x="421" y="-51"/>
			<point x="446" y="-22"/>
			<point x="514" y="0" type="curve"/>
			<point x="529" y="99" type="line"/>
			<point x="359" y="99" type="line"/>
			<point x="419" y="523" type="line"/>
			<point x="115" y="523" type="line"/>
			<point x="101" y="424" type="line"/>
			<point x="280" y="424" type="line"/>
			<point x="234" y="99" type="line"/>
			<point x="55" y="99" type="line"/>
		</contour>
	</outline>
</glyph>
<glyph name="dotlessi" format="2">
	<unicode hex="0131"/>
	<advance width="600"/>
	<outline>
		<contour>
			<point x="40" y="0" type="line"/>
			<point x="514" y="0" type="line"/>
			<point x="529" y="99" type="line"/>
			<point x="359" y="99" type="line"/>
			<point x="419" y="523" type="line"/>
			<point x="115" y="523" type="line"/>
			<point x="101" y="424" type="line"/>
			<point x="280" y="424" type="line"/>
			<point x="234" y="99" type="line"/>
			<point x="55" y="99" type="line"/>
		</contour>
	</outline>
	<anchor name="ogonek" x="514" y="0"/>
	<anchor name="top" x="357" y="523"/>
</glyph>
<glyph name="ij" format="2">
	<unicode hex="0133"/>
	<advance width="600"/>
	<outline>
		<contour>
			<point x="212" y="616" type="curve" smooth="yes"/>
			<point x="269" y="616"/>
			<point x="292" y="637"/>
			<point x="297" y="681" type="curve" smooth="yes"/>
			<point x="302" y="727"/>
			<point x="280" y="749"/>
			<point x="223" y="749" type="curve" smooth="yes"/>
			<point x="166" y="749"/>
			<point x="142" y="729"/>
			<point x="137" y="684" type="curve" smooth="yes"/>
			<point x="132" y="638"/>
			<point x="154" y="616"/>
		</contour>
		<contour>
			<point x="496" y="616" type="curve" smooth="yes"/>
			<point x="553" y="616"/>
			<point x="576" y="637"/>
			<point x="581" y="681" type="curve" smooth="yes"/>
			<point x="586" y="727"/>
			<point x="564" y="749"/>
			<point x="506" y="749" type="curve" smooth="yes"/>
			<point x="450" y="749"/>
			<point x="426" y="729"/>
			<point x="421" y="684" type="curve" smooth="yes"/>
			<point x="416" y="638"/>
			<point x="438" y="616"/>
		</contour>
		<contour>
			<point x="243" y="-204" type="curve" smooth="yes"/>
			<point x="355" y="-204"/>
			<point x="446" y="-159"/>
			<point x="465" y="-20" type="curve" smooth="yes"/>
			<point x="541" y="523" type="line"/>
			<point x="416" y="523" type="line"/>
			<point x="344" y="5" type="line" smooth="yes"/>
			<point x="333" y="-69"/>
			<point x="295" y="-102"/>
			<point x="224" y="-102" type="curve" smooth="yes"/>
			<point x="176" y="-102"/>
			<point x="137" y="-91"/>
			<point x="109" y="-79" type="curve"/>
			<point x="95" y="-175" type="line"/>
			<point x="126" y="-191"/>
			<point x="183" y="-204"/>
		</contour>
		<contour>
			<point x="58" y="0" type="line"/>
			<point x="183" y="0" type="line"/>
			<point x="257" y="523" type="line"/>
			<point x="132" y="523" type="line"/>
		</contour>
	</outline>
</glyph>
<glyph name="kgreenlandic" format="2">
	<unicode hex="0138"/>
	<advance width="600"/>
	<outline>
		<contour>
			<point x="51" y="0" type="line"/>
			<point x="175" y="0" type="line"/>
			<point x="193" y="124" type="line"/>
			<point x="288" y="229" type="line"/>
			<point x="387" y="0" type="line"/>
			<point x="523" y="0" type="line"/>
			<point x="393" y="302" type="line"/>
			<point x="588" y="524" type="line"/>
			<point x="445" y="524" type="line"/>
			<point x="210" y="253" type="line"/>
			<point x="249" y="524" type="line"/>
			<point x="125" y="524" type="line"/>
		</contour>
	</outline>
</glyph>
<glyph name="Lslash" format="2">
	<unicode hex="0141"/>
	<advance width="600"/>
	<outline>
		<contour>
			<point x="52" y="0" type="line"/>
			<point x="511" y="0" type="line"/>
			<point x="527" y="116" type="line"/>
			<point x="196" y="116" type="line"/>
			<point x="224" y="316" type="line"/>
			<point x="407" y="383" type="line"/>
			<point x="420" y="476" type="line"/>
			<point x="237" y="409" type="line"/>
			<point x="275" y="684" type="line"/>
			<point x="148" y="684" type="line"/>
			<point x="103" y="360" type="line"/>
			<point x="21" y="330" type="line"/>
			<point x="8" y="237" type="line"/>
			<point x="89" y="267" type="line"/>
		</contour>
	</outline>
</glyph>
<glyph name="lslash" format="2">
	<unicode hex="0142"/>
	<advance width="600"/>
	<outline>
		<contour>
			<point x="31" y="0" type="line"/>
			<point x="505" y="0" type="line"/>
			<point x="519" y="99" type="line"/>
			<point x="350" y="99" type="line"/>
			<point x="386" y="354" type="line"/>
			<point x="549" y="412" type="line"/>
			<point x="562" y="504" type="line"/>
			<point x="399" y="445" type="line"/>
			<point x="443" y="750" type="line"/>
			<point x="139" y="750" type="line"/>
			<point x="124" y="651" type="line"/>
			<point x="304" y="651" type="line"/>
			<point x="267" y="397" type="line"/>
			<point x="106" y="339" type="line"/>
			<point x="93" y="248" type="line"/>
			<point x="254" y="306" type="line"/>
			<point x="224" y="99" type="line"/>
			<point x="45" y="99" type="line"/>
		</contour>
	</outline>
</glyph>
<glyph name="Eng" format="2">
	<unicode hex="014A"/>
	<advance width="600"/>
	<outline>
		<contour>
			<point x="282" y="-209" type="curve" smooth="yes"/>
			<point x="401" y="-209"/>
			<point x="479" y="-155"/>
			<point x="499" y="-13" type="curve" smooth="yes"/>
			<point x="596" y="684" type="line"/>
			<point x="487" y="684" type="line"/>
			<point x="446" y="395" type="line" smooth="yes"/>
			<point x="432" y="294"/>
			<point x="428" y="231"/>
			<point x="426" y="146" type="curve"/>
			<point x="418" y="146" type="line"/>
			<point x="269" y="684" type="line"/>
			<point x="122" y="684" type="line"/>
			<point x="26" y="0" type="line"/>
			<point x="136" y="0" type="line"/>
			<point x="177" y="290" type="line" smooth="yes"/>
			<point x="189" y="380"/>
			<point x="192" y="454"/>
			<point x="195" y="538" type="curve"/>
			<point x="204" y="538" type="line"/>
			<point x="353" y="0" type="line"/>
			<point x="385" y="0" type="line"/>
			<point x="384" y="-7" type="line" smooth="yes"/>
			<point x="372" y="-94"/>
			<point x="331" y="-116"/>
			<point x="263" y="-116" type="curve" smooth="yes"/>
			<point x="229" y="-116"/>
			<point x="197" y="-108"/>
			<point x="177" y="-100" type="curve"/>
			<point x="163" y="-188" type="line"/>
			<point x="190" y="-200"/>
			<point x="233" y="-209"/>
		</contour>
	</outline>
	<anchor name="top" x="412" y="720"/>
	<anchor name="bottom" x="262" y="0"/>
</glyph>
<glyph name="Scedilla" format="2">
	<unicode hex="015E"/>
	<advance width="600"/>
	<outline>
		<contour>
			<point x="235" y="-227" type="curve" smooth="yes"/>
			<point x="315" y="-227"/>
			<point x="361" y="-188"/>
			<point x="362" y="-123" type="curve" smooth="yes"/>
			<point x="363" y="-76"/>
			<point x="337" y="-50"/>
			<point x="286" y="-46" type="curve"/>
			<point x="306" y="-12" type="line"/>
			<point x="450" y="-4"/>
			<point x="540" y="85"/>
			<point x="540" y="220" type="curve" smooth="yes"/>
			<point x="540" y="341"/>
			<point x="464" y="372"/>
			<point x="336" y="402" type="curve" smooth="yes"/>
			<point x="254" y="421"/>
			<point x="212" y="437"/>
			<point x="212" y="495" type="curve" smooth="yes"/>
			<point x="212" y="558"/>
			<point x="257" y="595"/>
			<point x="338" y="595" type="curve" smooth="yes"/>
			<point x="415" y="595"/>
			<point x="509" y="567"/>
			<point x="565" y="521" type="curve"/>
			<point x="581" y="631" type="line"/>
			<point x="531" y="666"/>
			<point x="445" y="698"/>
			<point x="339" y="698" type="curve" smooth="yes"/>
			<point x="177" y="698"/>
			<point x="85" y="606"/>
			<point x="85" y="471" type="curve" smooth="yes"/>
			<point x="85" y="336"/>
			<point x="180" y="307"/>
			<point x="292" y="283" type="curve" smooth="yes"/>
			<point x="367" y="266"/>
			<point x="413" y="257"/>
			<point x="413" y="195" type="curve" smooth="yes"/>
			<point x="413" y="130"/>
			<point x="364" y="90"/>
			<point x="285" y="90" type="curve" smooth="yes"/>
			<point x="204" y="90"/>
			<point x="118" y="123"/>
			<point x="56" y="182" type="curve"/>
			<point x="39" y="68" type="line"/>
			<point x="89" y="26"/>
			<point x="159" y="-3"/>
			<point x="239" y="-11" type="curve"/>
			<point x="191" y="-93" type="line"/>
			<point x="204" y="-91"/>
			<point x="215" y="-90"/>
			<point x="224" y="-90" type="curve" smooth="yes"/>
			<point x="261" y="-90"/>
			<point x="280" y="-100"/>
			<point x="280" y="-124" type="curve" smooth="yes"/>
			<point x="280" y="-151"/>
			<point x="260" y="-163"/>
			<point x="224" y="-163" type="curve" smooth="yes"/>
			<point x="196" y="-163"/>
			<point x="171" y="-155"/>
			<point x="152" y="-145" type="curve"/>
			<point x="144" y="-206" type="line"/>
			<point x="164" y="-218"/>
			<point x="200" y="-227"/>
		</contour>
	</outline>
</glyph>
<glyph name="tcaron" format="2">
	<unicode hex="0165"/>
	<advance width="600"/>
	<outline>
		<contour>
			<point x="480" y="620" type="line"/>
			<point x="549" y="620" type="line"/>
			<point x="638" y="780" type="line"/>
			<point x="516" y="780" type="line"/>
		</contour>
		<contour>
			<point x="353" y="-12" type="curve" smooth="yes"/>
			<point x="408" y="-12"/>
			<point x="453" y="-1"/>
			<point x="478" y="12" type="curve"/>
			<point x="490" y="105" type="line"/>
			<point x="467" y="95"/>
			<point x="431" y="88"/>
			<point x="398" y="88" type="curve" smooth="yes"/>
			<point x="324" y="88"/>
			<point x="294" y="115"/>
			<point x="305" y="198" type="curve" smooth="yes"/>
			<point x="337" y="424" type="line"/>
			<point x="539" y="424" type="line"/>
			<point x="553" y="523" type="line"/>
			<point x="352" y="523" type="line"/>
			<point x="376" y="692" type="line"/>
			<point x="266" y="692" type="line"/>
			<point x="243" y="586" type="line" smooth="yes"/>
			<point x="231" y="528"/>
			<point x="205" y="518"/>
			<point x="165" y="518" type="curve" smooth="yes"/>
			<point x="88" y="518" type="line"/>
			<point x="75" y="424" type="line"/>
			<point x="212" y="424" type="line"/>
			<point x="179" y="184" type="line" smooth="yes"/>
			<point x="159" y="41"/>
			<point x="227" y="-12"/>
		</contour>
	</outline>
</glyph>
<glyph name="uogonek" format="2">
	<unicode hex="0173"/>
	<advance width="600"/>
	<outline>
		<contour>
			<point x="404" y="-203" type="curve" smooth="yes"/>
			<point x="429" y="-203"/>
			<point x="455" y="-198"/>
			<point x="467" y="-193" type="curve"/>
			<point x="479" y="-114" type="line"/>
			<point x="472" y="-116"/>
			<point x="458" y="-119"/>
			<point x="443" y="-119" type="curve" smooth="yes"/>
			<point x="413" y="-119"/>
			<point x="393" y="-108"/>
			<point x="393" y="-82" type="curve" smooth="yes"/>
			<point x="393" y="-51"/>
			<point x="418" y="-22"/>
			<point x="486" y="0" type="curve"/>
			<point x="560" y="523" type="line"/>
			<point x="435" y="523" type="line"/>
			<point x="391" y="215" type="line" smooth="yes"/>
			<point x="387" y="183"/>
			<point x="377" y="155"/>
			<point x="361" y="133" type="curve" smooth="yes"/>
			<point x="341" y="104"/>
			<point x="311" y="87"/>
			<point x="272" y="87" type="curve" smooth="yes"/>
			<point x="209" y="87"/>
			<point x="179" y="127"/>
			<point x="191" y="207" type="curve" smooth="yes"/>
			<point x="236" y="523" type="line"/>
			<point x="111" y="523" type="line"/>
			<point x="63" y="186" type="line" smooth="yes"/>
			<point x="45" y="60"/>
			<point x="96" y="-14"/>
			<point x="203" y="-14" type="curve" smooth="yes"/>
			<point x="279" y="-14"/>
			<point x="341" y="29"/>
			<point x="381" y="102" type="curve"/>
			<point x="366" y="0" type="line"/>
			<point x="398" y="0" type="line"/>
			<point x="328" y="-25"/>
			<point x="287" y="-65"/>
			<point x="287" y="-120" type="curve" smooth="yes"/>
			<point x="287" y="-177"/>
			<point x="329" y="-203"/>
		</contour>
	</outline>
</glyph>
<glyph name="dotlessj" format="2">
	<unicode hex="0237"/>
	<advance width="600"/>
	<outline>
		<contour>
			<point x="179" y="-204" type="curve" smooth="yes"/>
			<point x="314" y="-204"/>
			<point x="413" y="-154"/>
			<point x="434" y="-5" type="curve" smooth="yes"/>
			<point x="508" y="523" type="line"/>
			<point x="118" y="523" type="line"/>
			<point x="103" y="424" type="line"/>
			<point x="369" y="424" type="line"/>
			<point x="313" y="21" type="line" smooth="yes"/>
			<point x="300" y="-69"/>
			<point x="252" y="-102"/>
			<point x="159" y="-102" type="curve" smooth="yes"/>
			<point x="108" y="-102"/>
			<point x="63" y="-88"/>
			<point x="31" y="-74" type="curve"/>
			<point x="18" y="-171" type="line"/>
			<point x="52" y="-189"/>
			<point x="113" y="-204"/>
		</contour>
	</outline>
	<anchor name="top" x="446" y="523"/>
</glyph>
<glyph name="circumflex" format="2">
	<unicode hex="02C6"/>
	<advance width="600"/>
	<outline>
		<contour>
			<point x="167" y="602" type="line"/>
			<point x="281" y="602" type="line"/>
			<point x="363" y="696" type="line"/>
			<point x="418" y="602" type="line"/>
			<point x="529" y="602" type="line"/>
			<point x="435" y="750" type="line"/>
			<point x="302" y="750" type="line"/>
		</contour>
	</outline>
	<anchor name="_top" x="340" y="523"/>
</glyph>
<glyph name="caron" format="2">
	<unicode hex="02C7"/>
	<advance width="600"/>
	<outline>
		<contour>
			<point x="550" y="750" type="line"/>
			<point x="435" y="750" type="line"/>
			<point x="353" y="655" type="line"/>
			<point x="298" y="750" type="line"/>
			<point x="188" y="750" type="line"/>
			<point x="282" y="602" type="line"/>
			<point x="415" y="602" type="line"/>
		</contour>
	</outline>
	<anchor name="_top" x="338" y="523"/>
</glyph>
<glyph name="breve" format="2">
	<unicode hex="02D8"/>
	<advance width="600"/>
	<outline>
		<contour>
			<point x="350" y="591" type="curve" smooth="yes"/>
			<point x="461" y="591"/>
			<point x="513" y="635"/>
			<point x="528" y="750" type="curve"/>
			<point x="436" y="750" type="line"/>
			<point x="428" y="692"/>
			<point x="415" y="662"/>
			<point x="361" y="662" type="curve" smooth="yes"/>
			<point x="303" y="662"/>
			<point x="295" y="692"/>
			<point x="302" y="750" type="curve"/>
			<point x="210" y="750" type="line"/>
			<point x="194" y="638"/>
			<point x="241" y="591"/>
		</contour>
	</outline>
	<anchor name="_top" x="338" y="523"/>
</glyph>
<glyph name="dotaccent" format="2">
	<unicode hex="02D9"/>
	<advance width="600"/>
	<outline>
		<contour>
			<point x="352" y="610" type="curve" smooth="yes"/>
			<point x="410" y="610"/>
			<point x="433" y="631"/>
			<point x="438" y="675" type="curve" smooth="yes"/>
			<point x="443" y="721"/>
			<point x="421" y="743"/>
			<point x="365" y="743" type="curve" smooth="yes"/>
			<point x="307" y="743"/>
			<point x="283" y="723"/>
			<point x="278" y="678" type="curve" smooth="yes"/>
			<point x="273" y="632"/>
			<point x="295" y="610"/>
		</contour>
	</outline>
	<anchor name="_top" x="337" y="523"/>
</glyph>
<glyph name="ring" format="2">
	<unicode hex="02DA"/>
	<advance width="600"/>
	<outline>
		<contour>
			<point x="356" y="590" type="curve" smooth="yes"/>
			<point x="443" y="590"/>
			<point x="494" y="641"/>
			<point x="494" y="723" type="curve" smooth="yes"/>
			<point x="494" y="794"/>
			<point x="452" y="835"/>
			<point x="371" y="835" type="curve" smooth="yes"/>
			<point x="284" y="835"/>
			<point x="233" y="784"/>
			<point x="233" y="703" type="curve" smooth="yes"/>
			<point x="233" y="632"/>
			<point x="274" y="590"/>
		</contour>
		<contour>
			<point x="359" y="649" type="curve" smooth="yes"/>
			<point x="318" y="649"/>
			<point x="301" y="671"/>
			<point x="301" y="707" type="curve" smooth="yes"/>
			<point x="301" y="751"/>
			<point x="323" y="777"/>
			<point x="368" y="777" type="curve" smooth="yes"/>
			<point x="410" y="777"/>
			<point x="426" y="755"/>
			<point x="426" y="721" type="curve" smooth="yes"/>
			<point x="426" y="675"/>
			<point x="404" y="649"/>
		</contour>
	</outline>
	<anchor name="_top" x="336" y="523"/>
</glyph>
<glyph name="tilde" format="2">
	<unicode hex="02DC"/>
	<advance width="600"/>
	<outline>
		<contour>
			<point x="171" y="609" type="curve"/>
			<point x="257" y="609" type="line"/>
			<point x="263" y="646"/>
			<point x="274" y="667"/>
			<point x="298" y="667" type="curve"/>
			<point x="338" y="667"/>
			<point x="361" y="605"/>
			<point x="430" y="605" type="curve" smooth="yes"/>
			<point x="485" y="605"/>
			<point x="529" y="641"/>
			<point x="544" y="741" type="curve"/>
			<point x="458" y="741" type="line"/>
			<point x="452" y="705"/>
			<point x="441" y="685"/>
			<point x="419" y="685" type="curve" smooth="yes"/>
			<point x="378" y="685"/>
			<point x="348" y="745"/>
			<point x="283" y="745" type="curve" smooth="yes"/>
			<point x="224" y="745"/>
			<point x="186" y="702"/>
		</contour>
	</outline>
	<anchor name="_top" x="337" y="523"/>
</glyph>
<glyph name="pi" format="2">
	<unicode hex="03C0"/>
	<advance width="600"/>
	<outline>
		<contour>
			<point x="56" y="0" type="line"/>
			<point x="174" y="0" type="line"/>
			<point x="234" y="425" type="line"/>
			<point x="394" y="425" type="line"/>
			<point x="353" y="131" type="line" smooth="yes"/>
			<point x="339" y="31"/>
			<point x="377" y="-12"/>
			<point x="466" y="-12" type="curve" smooth="yes"/>
			<point x="498" y="-12"/>
			<point x="525" y="-6"/>
			<point x="537" y="-2" type="curve"/>
			<point x="549" y="85" type="line"/>
			<point x="544" y="83"/>
			<point x="530" y="81"/>
			<point x="519" y="81" type="curve" smooth="yes"/>
			<point x="484" y="81"/>
			<point x="465" y="96"/>
			<point x="471" y="133" type="curve" smooth="yes"/>
			<point x="512" y="425" type="line"/>
			<point x="597" y="425" type="line"/>
			<point x="611" y="523" type="line"/>
			<point x="51" y="523" type="line"/>
			<point x="37" y="425" type="line"/>
			<point x="116" y="425" type="line"/>
		</contour>
	</outline>
</glyph>
<glyph name="endash" format="2">
	<unicode hex="2013"/>
	<advance width="600"/>
	<outline>
		<contour>
			<point x="552" y="353" type="line"/>
			<point x="73" y="353" type="line"/>
			<point x="57" y="239" type="line"/>
			<point x="536" y="239" type="line"/>
		</contour>
	</outline>
</glyph>
<glyph name="emdash" format="2">
	<unicode hex="2014"/>
	<advance width="600"/>
	<outline>
		<contour>
			<point x="613" y="353" type="line"/>
			<point x="13" y="353" type="line"/>
			<point x="-3" y="239" type="line"/>
			<point x="596" y="239" type="line"/>
		</contour>
	</outline>
</glyph>
<glyph name="quoteright" format="2">
	<unicode hex="2019"/>
	<advance width="600"/>
	<outline>
		<contour>
			<point x="321" y="750" type="line"/>
			<point x="232" y="454" type="line"/>
			<point x="316" y="454" type="line"/>
			<point x="470" y="750" type="line"/>
		</contour>
	</outline>
</glyph>
<glyph name="quotesinglbase" format="2">
	<unicode hex="201A"/>
	<advance width="600"/>
	<outline>
		<contour>
			<point x="236" y="143" type="line"/>
			<point x="147" y="-153" type="line"/>
			<point x="231" y="-153" type="line"/>
			<point x="385" y="143" type="line"/>
		</contour>
	</outline>
</glyph>
<glyph name="quotedblleft" format="2">
	<unicode hex="201C"/>
	<advance width="600"/>
	<outline>
		<contour>
			<point x="467" y="454" type="line"/>
			<point x="555" y="750" type="line"/>
			<point x="473" y="750" type="line"/>
			<point x="321" y="454" type="line"/>
		</contour>
		<contour>
			<point x="261" y="453" type="line"/>
			<point x="348" y="749" type="line"/>
			<point x="266" y="749" type="line"/>
			<point x="115" y="453" type="line"/>
		</contour>
	</outline>
</glyph>
<glyph name="quotedblright" format="2">
	<unicode hex="201D"/>
	<advance width="600"/>
	<outline>
		<contour>
			<point x="229" y="750" type="line"/>
			<point x="141" y="454" type="line"/>
			<point x="224" y="454" type="line"/>
			<point x="375" y="750" type="line"/>
		</contour>
		<contour>
			<point x="435" y="750" type="line"/>
			<point x="347" y="454" type="line"/>
			<point x="429" y="454" type="line"/>
			<point x="581" y="750" type="line"/>
		</contour>
	</outline>
</glyph>
<glyph name="dagger" format="2">
	<unicode hex="2020"/>
	<advance width="600"/>
	<outline>
		<contour>
			<point x="108" y="570" type="line"/>
			<point x="92" y="458" type="line"/>
			<point x="266" y="458" type="line"/>
			<point x="181" y="-143" type="line"/>
			<point x="304" y="-143" type="line"/>
			<point x="389" y="458" type="line"/>
			<point x="562" y="458" type="line"/>
			<point x="578" y="570" type="line"/>
			<point x="405" y="570" type="line"/>
			<point x="432" y="765" type="line"/>
			<point x="309" y="765" type="line"/>
			<point x="282" y="570" type="line"/>
		</contour>
	</outline>
</glyph>
<glyph name="daggerdbl" format="2">
	<unicode hex="2021"/>
	<advance width="600"/>
	<outline>
		<contour>
			<point x="58" y="216" type="line"/>
			<point x="43" y="108" type="line"/>
			<point x="217" y="108" type="line"/>
			<point x="182" y="-143" type="line"/>
			<point x="305" y="-143" type="line"/>
			<point x="340" y="108" type="line"/>
			<point x="513" y="108" type="line"/>
			<point x="529" y="216" type="line"/>
			<point x="355" y="216" type="line"/>
			<point x="392" y="476" type="line"/>
			<point x="565" y="476" type="line"/>
			<point x="580" y="583" type="line"/>
			<point x="407" y="583" type="line"/>
			<point x="432" y="765" type="line"/>
			<point x="309" y="765" type="line"/>
			<point x="284" y="583" type="line"/>
			<point x="110" y="583" type="line"/>
			<point x="95" y="476" type="line"/>
			<point x="269" y="476" type="line"/>
			<point x="232" y="216" type="line"/>
		</contour>
	</outline>
</glyph>
<glyph name="bullet" format="2">
	<unicode hex="2022"/>
	<advance width="600"/>
	<outline>
		<contour>
			<point x="295" y="142" type="curve" smooth="yes"/>
			<point x="391" y="142"/>
			<point x="431" y="188"/>
			<point x="442" y="283" type="curve" smooth="yes"/>
			<point x="453" y="372"/>
			<point x="421" y="433"/>
			<point x="314" y="433" type="curve" smooth="yes"/>
			<point x="217" y="433"/>
			<point x="176" y="386"/>
			<point x="165" y="292" type="curve" smooth="yes"/>
			<point x="154" y="202"/>
			<point x="187" y="142"/>
		</contour>
	</outline>
</glyph>
<glyph name="ellipsis" format="2">
	<unicode hex="2026"/>
	<advance width="600"/>
	<outline>
		<contour>
			<point x="75" y="-12" type="curve" smooth="yes"/>
			<point x="122" y="-12"/>
			<point x="139" y="17"/>
			<point x="146" y="64" type="curve" smooth="yes"/>
			<point x="154" y="118"/>
			<point x="137" y="150"/>
			<point x="90" y="150" type="curve" smooth="yes"/>
			<point x="42" y="150"/>
			<point x="25" y="121"/>
			<point x="18" y="74" type="curve" smooth="yes"/>
			<point x="11" y="19"/>
			<point x="28" y="-12"/>
		</contour>
		<contour>
			<point x="266" y="-12" type="curve" smooth="yes"/>
			<point x="313" y="-12"/>
			<point x="330" y="17"/>
			<point x="337" y="64" type="curve" smooth="yes"/>
			<point x="344" y="118"/>
			<point x="327" y="150"/>
			<point x="281" y="150" type="curve" smooth="yes"/>
			<point x="233" y="150"/>
			<point x="215" y="121"/>
			<point x="209" y="74" type="curve" smooth="yes"/>
			<point x="201" y="19"/>
			<point x="219" y="-12"/>
		</contour>
		<contour>
			<point x="457" y="-12" type="curve" smooth="yes"/>
			<point x="504" y="-12"/>
			<point x="520" y="17"/>
			<point x="527" y="64" type="curve" smooth="yes"/>
			<point x="535" y="118"/>
			<point x="518" y="150"/>
			<point x="471" y="150" type="curve" smooth="yes"/>
			<point x="424" y="150"/>
			<point x="406" y="121"/>
			<point x="400" y="74" type="curve" smooth="yes"/>
			<point x="392" y="19"/>
			<point x="410" y="-12"/>
		</contour>
	</outline>
</glyph>
<glyph name="perthousand" format="2">
	<unicode hex="2030"/>
	<advance width="600"/>
	<outline>
		<contour>
			<point x="178" y="393" type="curve" smooth="yes"/>
			<point x="258" y="393"/>
			<point x="311" y="444"/>
			<point x="324" y="532" type="curve" smooth="yes"/>
			<point x="340" y="644"/>
			<point x="281" y="691"/>
			<point x="200" y="691" type="curve" smooth="yes"/>
			<point x="120" y="691"/>
			<point x="67" y="640"/>
			<point x="55" y="553" type="curve" smooth="yes"/>
			<point x="38" y="441"/>
			<point x="96" y="393"/>
		</contour>
		<contour>
			<point x="181" y="456" type="curve" smooth="yes"/>
			<point x="137" y="456"/>
			<point x="124" y="487"/>
			<point x="132" y="545" type="curve" smooth="yes"/>
			<point x="139" y="598"/>
			<point x="159" y="629"/>
			<point x="197" y="629" type="curve" smooth="yes"/>
			<point x="240" y="629"/>
			<point x="254" y="597"/>
			<point x="246" y="539" type="curve" smooth="yes"/>
			<point x="239" y="487"/>
			<point x="219" y="456"/>
		</contour>
		<contour>
			<point x="17" y="260" type="line"/>
			<point x="590" y="404" type="line"/>
			<point x="600" y="472" type="line"/>
			<point x="27" y="327" type="line"/>
		</contour>
		<contour>
			<point x="225" y="-7" type="curve" smooth="yes"/>
			<point x="266" y="-7"/>
			<point x="300" y="7"/>
			<point x="325" y="33" type="curve"/>
			<point x="347" y="6"/>
			<point x="381" y="-7"/>
			<point x="421" y="-7" type="curve" smooth="yes"/>
			<point x="501" y="-7"/>
			<point x="555" y="44"/>
			<point x="567" y="132" type="curve" smooth="yes"/>
			<point x="584" y="244"/>
			<point x="527" y="291"/>
			<point x="447" y="291" type="curve" smooth="yes"/>
			<point x="406" y="291"/>
			<point x="372" y="277"/>
			<point x="347" y="251" type="curve"/>
			<point x="325" y="278"/>
			<point x="290" y="291"/>
			<point x="250" y="291" type="curve" smooth="yes"/>
			<point x="170" y="291"/>
			<point x="117" y="240"/>
			<point x="104" y="153" type="curve" smooth="yes"/>
			<point x="88" y="41"/>
			<point x="145" y="-7"/>
		</contour>
		<contour>
			<point x="231" y="56" type="curve" smooth="yes"/>
			<point x="187" y="56"/>
			<point x="173" y="87"/>
			<point x="181" y="145" type="curve" smooth="yes"/>
			<point x="189" y="198"/>
			<point x="208" y="229"/>
			<point x="247" y="229" type="curve" smooth="yes"/>
			<point x="290" y="229"/>
			<point x="303" y="197"/>
			<point x="295" y="139" type="curve" smooth="yes"/>
			<point x="288" y="87"/>
			<point x="269" y="56"/>
		</contour>
		<contour>
			<point x="424" y="56" type="curve" smooth="yes"/>
			<point x="381" y="56"/>
			<point x="367" y="87"/>
			<point x="375" y="145" type="curve" smooth="yes"/>
			<point x="383" y="198"/>
			<point x="402" y="229"/>
			<point x="440" y="229" type="curve" smooth="yes"/>
			<point x="484" y="229"/>
			<point x="497" y="197"/>
			<point x="489" y="139" type="curve" smooth="yes"/>
			<point x="482" y="87"/>
			<point x="463" y="56"/>
		</contour>
	</outline>
</glyph>
<glyph name="guilsinglright" format="2">
	<unicode hex="203A"/>
	<advance width="600"/>
	<outline>
		<contour>
			<point x="98" y="77" type="line"/>
			<point x="259" y="77" type="line"/>
			<point x="492" y="287" type="line"/>
			<point x="308" y="497" type="line"/>
			<point x="158" y="497" type="line"/>
			<point x="337" y="290" type="line"/>
		</contour>
	</outline>
</glyph>
<glyph name="Euro" format="2">
	<unicode hex="20AC"/>
	<advance width="600"/>
	<outline>
		<contour>
			<point x="19" y="230" type="line"/>
			<point x="108" y="230" type="line"/>
			<point x="128" y="85"/>
			<point x="221" y="-12"/>
			<point x="392" y="-12" type="curve" smooth="yes"/>
			<point x="446" y="-12"/>
			<point x="488" y="-2"/>
			<point x="521" y="13" type="curve"/>
			<point x="535" y="122" type="line"/>
			<point x="496" y="104"/>
			<point x="455" y="96"/>
			<point x="411" y="96" type="curve" smooth="yes"/>
			<point x="316" y="96"/>
			<point x="261" y="148"/>
			<point x="243" y="230" type="curve"/>
			<point x="456" y="230" type="line"/>
			<point x="467" y="308" type="line"/>
			<point x="236" y="308" type="line"/>
			<point x="236" y="328"/>
			<point x="238" y="349"/>
			<point x="241" y="370" type="curve" smooth="yes"/>
			<point x="242" y="377" type="line" smooth="yes"/>
			<point x="477" y="377" type="line"/>
			<point x="488" y="455" type="line"/>
			<point x="260" y="455" type="line"/>
			<point x="293" y="547"/>
			<point x="356" y="590"/>
			<point x="447" y="590" type="curve" smooth="yes"/>
			<point x="501" y="590"/>
			<point x="552" y="577"/>
			<point x="596" y="548" type="curve"/>
			<point x="611" y="654" type="line"/>
			<point x="573" y="677"/>
			<point x="516" y="695"/>
			<point x="441" y="695" type="curve" smooth="yes"/>
			<point x="276" y="695"/>
			<point x="167" y="606"/>
			<point x="125" y="455" type="curve"/>
			<point x="51" y="455" type="line"/>
			<point x="40" y="377" type="line"/>
			<point x="110" y="377" type="line"/>
			<point x="110" y="376" type="line" smooth="yes"/>
			<point x="107" y="353"/>
			<point x="105" y="330"/>
			<point x="104" y="308" type="curve"/>
			<point x="30" y="308" type="line"/>
		</contour>
	</outline>
</glyph>
<glyph name="servicemark" format="2">
	<unicode hex="2120"/>
	<advance width="600"/>
	<outline>
		<contour>
			<point x="153" y="337" type="curve" smooth="yes"/>
			<point x="231" y="337"/>
			<point x="283" y="385"/>
			<point x="283" y="455" type="curve" smooth="yes"/>
			<point x="283" y="515"/>
			<point x="247" y="528"/>
			<point x="192" y="544" type="curve" smooth="yes"/>
			<point x="150" y="556"/>
			<point x="133" y="564"/>
			<point x="133" y="589" type="curve" smooth="yes"/>
			<point x="133" y="618"/>
			<point x="154" y="635"/>
			<point x="191" y="635" type="curve" smooth="yes"/>
			<point x="236" y="635"/>
			<point x="274" y="619"/>
			<point x="298" y="598" type="curve"/>
			<point x="307" y="660" type="line"/>
			<point x="291" y="672"/>
			<point x="250" y="689"/>
			<point x="197" y="689" type="curve" smooth="yes"/>
			<point x="110" y="689"/>
			<point x="67" y="639"/>
			<point x="67" y="573" type="curve" smooth="yes"/>
			<point x="67" y="509"/>
			<point x="111" y="495"/>
			<point x="162" y="482" type="curve" smooth="yes"/>
			<point x="196" y="473"/>
			<point x="216" y="466"/>
			<point x="216" y="440" type="curve" smooth="yes"/>
			<point x="216" y="410"/>
			<point x="193" y="392"/>
			<point x="155" y="392" type="curve" smooth="yes"/>
			<point x="118" y="392"/>
			<point x="78" y="408"/>
			<point x="51" y="432" type="curve"/>
			<point x="42" y="371" type="line"/>
			<point x="59" y="357"/>
			<point x="99" y="337"/>
		</contour>
		<contour>
			<point x="303" y="342" type="line"/>
			<point x="362" y="342" type="line"/>
			<point x="381" y="479" type="line" smooth="yes"/>
			<point x="388" y="530"/>
			<point x="392" y="572"/>
			<point x="393" y="617" type="curve"/>
			<point x="397" y="617" type="line"/>
			<point x="422" y="431" type="line"/>
			<point x="478" y="431" type="line"/>
			<point x="556" y="617" type="line"/>
			<point x="560" y="617" type="line"/>
			<point x="548" y="568"/>
			<point x="540" y="526"/>
			<point x="534" y="479" type="curve" smooth="yes"/>
			<point x="515" y="342" type="line"/>
			<point x="574" y="342" type="line"/>
			<point x="622" y="684" type="line"/>
			<point x="531" y="684" type="line"/>
			<point x="460" y="499" type="line"/>
			<point x="457" y="499" type="line"/>
			<point x="438" y="684" type="line"/>
			<point x="351" y="684" type="line"/>
		</contour>
	</outline>
</glyph>
<glyph name="trademark" format="2">
	<unicode hex="2122"/>
	<advance width="600"/>
	<outline>
		<contour>
			<point x="303" y="342" type="line"/>
			<point x="362" y="342" type="line"/>
			<point x="381" y="479" type="line" smooth="yes"/>
			<point x="388" y="528"/>
			<point x="392" y="574"/>
			<point x="393" y="617" type="curve"/>
			<point x="397" y="617" type="line"/>
			<point x="422" y="431" type="line"/>
			<point x="478" y="431" type="line"/>
			<point x="556" y="617" type="line"/>
			<point x="560" y="617" type="line"/>
			<point x="549" y="573"/>
			<point x="541" y="530"/>
			<point x="534" y="479" type="curve" smooth="yes"/>
			<point x="515" y="342" type="line"/>
			<point x="574" y="342" type="line"/>
			<point x="622" y="684" type="line"/>
			<point x="531" y="684" type="line"/>
			<point x="460" y="499" type="line"/>
			<point x="457" y="499" type="line"/>
			<point x="438" y="684" type="line"/>
			<point x="351" y="684" type="line"/>
		</contour>
		<contour>
			<point x="115" y="342" type="line"/>
			<point x="183" y="342" type="line"/>
			<point x="223" y="626" type="line"/>
			<point x="311" y="626" type="line"/>
			<point x="320" y="684" type="line"/>
			<point x="73" y="684" type="line"/>
			<point x="65" y="626" type="line"/>
			<point x="154" y="626" type="line"/>
		</contour>
	</outline>
</glyph>
<glyph name="arrowleft" format="2">
	<unicode hex="2190"/>
	<advance width="600"/>
	<outline>
		<contour>
			<point x="350" y="126" type="line"/>
			<point x="197" y="302" type="line"/>
			<point x="572" y="302" type="line"/>
			<point x="586" y="403" type="line"/>
			<point x="211" y="403" type="line"/>
			<point x="412" y="577" type="line"/>
			<point x="284" y="577" type="line"/>
			<point x="27" y="352" type="line"/>
			<point x="222" y="126" type="line"/>
		</contour>
	</outline>
</glyph>
<glyph name="arrowup" format="2">
	<unicode hex="2191"/>
	<advance width="600"/>
	<outline>
		<contour>
			<point x="213" y="0" type="line"/>
			<point x="314" y="0" type="line"/>
			<point x="388" y="526" type="line"/>
			<point x="537" y="350" type="line"/>
			<point x="555" y="479" type="line"/>
			<point x="362" y="703" type="line"/>
			<point x="105" y="477" type="line"/>
			<point x="87" y="350" type="line"/>
			<point x="286" y="526" type="line"/>
		</contour>
	</outline>
</glyph>
<glyph name="arrowright" format="2">
	<unicode hex="2192"/>
	<advance width="600"/>
	<outline>
		<contour>
			<point x="276" y="577" type="line"/>
			<point x="429" y="402" type="line"/>
			<point x="54" y="402" type="line"/>
			<point x="39" y="301" type="line"/>
			<point x="415" y="301" type="line"/>
			<point x="214" y="126" type="line"/>
			<point x="342" y="126" type="line"/>
			<point x="599" y="351" type="line"/>
			<point x="404" y="577" type="line"/>
		</contour>
	</outline>
</glyph>
<glyph name="uni2197" format="2">
	<unicode hex="2197"/>
	<advance width="600"/>
	<outline>
		<contour>
			<point x="67" y="66" type="line"/>
			<point x="496" y="445" type="line"/>
			<point x="459" y="188" type="line"/>
			<point x="563" y="279" type="line"/>
			<point x="610" y="610" type="line"/>
			<point x="277" y="610" type="line"/>
			<point x="174" y="520" type="line"/>
			<point x="432" y="522" type="line"/>
			<point x="2" y="143" type="line"/>
		</contour>
	</outline>
</glyph>
<glyph name="uni2198" format="2">
	<unicode hex="2198"/>
	<advance width="600"/>
	<outline>
		<contour>
			<point x="203" y="68" type="line"/>
			<point x="534" y="68" type="line"/>
			<point x="581" y="401" type="line"/>
			<point x="504" y="491" type="line"/>
			<point x="468" y="223" type="line"/>
			<point x="134" y="611" type="line"/>
			<point x="58" y="544" type="line"/>
			<point x="392" y="158" type="line"/>
			<point x="125" y="159" type="line"/>
		</contour>
	</outline>
</glyph>
<glyph name="uni2199" format="2">
	<unicode hex="2199"/>
	<advance width="600"/>
	<outline>
		<contour>
			<point x="12" y="68" type="line"/>
			<point x="345" y="68" type="line"/>
			<point x="448" y="158" type="line"/>
			<point x="189" y="156" type="line"/>
			<point x="620" y="534" type="line"/>
			<point x="555" y="611" type="line"/>
			<point x="126" y="232" type="line"/>
			<point x="163" y="490" type="line"/>
			<point x="59" y="399" type="line"/>
		</contour>
	</outline>
</glyph>
<glyph name="increment" format="2">
	<unicode hex="2206"/>
	<advance width="600"/>
	<outline>
		<contour>
			<point x="-22" y="0" type="line"/>
			<point x="548" y="0" type="line"/>
			<point x="446" y="686" type="line"/>
			<point x="270" y="686" type="line"/>
		</contour>
		<contour>
			<point x="154" y="105" type="line"/>
			<point x="346" y="590" type="line"/>
			<point x="404" y="105" type="line"/>
		</contour>
	</outline>
</glyph>
<glyph name="product" format="2">
	<unicode hex="220F"/>
	<advance width="600"/>
	<outline>
		<contour>
			<point x="30" y="0" type="line"/>
			<point x="152" y="0" type="line"/>
			<point x="234" y="579" type="line"/>
			<point x="455" y="579" type="line"/>
			<point x="373" y="0" type="line"/>
			<point x="495" y="0" type="line"/>
			<point x="592" y="684" type="line"/>
			<point x="127" y="684" type="line"/>
		</contour>
	</outline>
</glyph>
<glyph name="radical" format="2">
	<unicode hex="221A"/>
	<advance width="600"/>
	<outline>
		<contour>
			<point x="156" y="0" type="line"/>
			<point x="316" y="0" type="line"/>
			<point x="639" y="684" type="line"/>
			<point x="502" y="684" type="line"/>
			<point x="253" y="130" type="line"/>
			<point x="210" y="450" type="line"/>
			<point x="55" y="450" type="line"/>
			<point x="40" y="342" type="line"/>
			<point x="102" y="342" type="line"/>
		</contour>
	</outline>
</glyph>
<glyph name="infinity" format="2">
	<unicode hex="221E"/>
	<advance width="600"/>
	<outline>
		<contour>
			<point x="204" y="592" type="curve" smooth="yes"/>
			<point x="113" y="592"/>
			<point x="60" y="516"/>
			<point x="36" y="355" type="curve" smooth="yes"/>
			<point x="9" y="176"/>
			<point x="44" y="75"/>
			<point x="155" y="75" type="curve" smooth="yes"/>
			<point x="224" y="75"/>
			<point x="270" y="125"/>
			<point x="293" y="207" type="curve"/>
			<point x="300" y="127"/>
			<point x="338" y="74"/>
			<point x="413" y="74" type="curve" smooth="yes"/>
			<point x="510" y="74"/>
			<point x="563" y="162"/>
			<point x="585" y="320" type="curve" smooth="yes"/>
			<point x="610" y="499"/>
			<point x="569" y="591"/>
			<point x="469" y="591" type="curve" smooth="yes"/>
			<point x="390" y="591"/>
			<point x="349" y="534"/>
			<point x="326" y="461" type="curve"/>
			<point x="319" y="538"/>
			<point x="280" y="592"/>
		</contour>
		<contour>
			<point x="176" y="171" type="curve" smooth="yes"/>
			<point x="130" y="171"/>
			<point x="116" y="228"/>
			<point x="132" y="343" type="curve" smooth="yes"/>
			<point x="147" y="450"/>
			<point x="171" y="496"/>
			<point x="213" y="496" type="curve" smooth="yes"/>
			<point x="256" y="496"/>
			<point x="272" y="448"/>
			<point x="255" y="325" type="curve" smooth="yes"/>
			<point x="241" y="224"/>
			<point x="220" y="171"/>
		</contour>
		<contour>
			<point x="407" y="171" type="curve" smooth="yes"/>
			<point x="366" y="171"/>
			<point x="346" y="215"/>
			<point x="362" y="341" type="curve" smooth="yes"/>
			<point x="375" y="443"/>
			<point x="399" y="496"/>
			<point x="443" y="496" type="curve" smooth="yes"/>
			<point x="499" y="496"/>
			<point x="499" y="412"/>
			<point x="488" y="328" type="curve" smooth="yes"/>
			<point x="474" y="220"/>
			<point x="451" y="171"/>
		</contour>
	</outline>
</glyph>
<glyph name="integral" format="2">
	<unicode hex="222B"/>
	<advance width="600"/>
	<outline>
		<contour>
			<point x="103" y="-204" type="curve" smooth="yes"/>
			<point x="210" y="-204"/>
			<point x="293" y="-155"/>
			<point x="311" y="-26" type="curve" smooth="yes"/>
			<point x="383" y="495" type="line" smooth="yes"/>
			<point x="394" y="572"/>
			<point x="432" y="600"/>
			<point x="492" y="600" type="curve" smooth="yes"/>
			<point x="524" y="600"/>
			<point x="549" y="593"/>
			<point x="563" y="588" type="curve"/>
			<point x="576" y="678" type="line"/>
			<point x="556" y="688"/>
			<point x="519" y="697"/>
			<point x="470" y="697" type="curve" smooth="yes"/>
			<point x="367" y="697"/>
			<point x="281" y="651"/>
			<point x="262" y="511" type="curve" smooth="yes"/>
			<point x="188" y="-14" type="line" smooth="yes"/>
			<point x="179" y="-81"/>
			<point x="148" y="-111"/>
			<point x="81" y="-111" type="curve" smooth="yes"/>
			<point x="56" y="-111"/>
			<point x="30" y="-106"/>
			<point x="7" y="-98" type="curve"/>
			<point x="-5" y="-186" type="line"/>
			<point x="16" y="-196"/>
			<point x="58" y="-204"/>
		</contour>
	</outline>
</glyph>
<glyph name="approxequal" format="2">
	<unicode hex="2248"/>
	<advance width="600"/>
	<outline>
		<contour>
			<point x="189" y="379" type="curve" smooth="yes"/>
			<point x="258" y="379"/>
			<point x="339" y="323"/>
			<point x="436" y="323" type="curve" smooth="yes"/>
			<point x="479" y="323"/>
			<point x="525" y="339"/>
			<point x="545" y="364" type="curve"/>
			<point x="561" y="477" type="line"/>
			<point x="525" y="439"/>
			<point x="485" y="429"/>
			<point x="444" y="429" type="curve" smooth="yes"/>
			<point x="374" y="430"/>
			<point x="284" y="485"/>
			<point x="204" y="485" type="curve" smooth="yes"/>
			<point x="162" y="485"/>
			<point x="115" y="470"/>
			<point x="95" y="445" type="curve"/>
			<point x="79" y="331" type="line"/>
			<point x="108" y="364"/>
			<point x="151" y="379"/>
		</contour>
		<contour>
			<point x="158" y="158" type="curve" smooth="yes"/>
			<point x="227" y="158"/>
			<point x="309" y="102"/>
			<point x="405" y="102" type="curve" smooth="yes"/>
			<point x="449" y="102"/>
			<point x="494" y="118"/>
			<point x="514" y="143" type="curve"/>
			<point x="530" y="255" type="line"/>
			<point x="496" y="219"/>
			<point x="456" y="206"/>
			<point x="413" y="207" type="curve" smooth="yes"/>
			<point x="349" y="208"/>
			<point x="252" y="263"/>
			<point x="170" y="263" type="curve" smooth="yes"/>
			<point x="128" y="263"/>
			<point x="84" y="247"/>
			<point x="64" y="223" type="curve"/>
			<point x="48" y="110" type="line"/>
			<point x="77" y="143"/>
			<point x="121" y="158"/>
		</contour>
	</outline>
</glyph>
<glyph name="greaterequal" format="2">
	<unicode hex="2265"/>
	<advance width="600"/>
	<outline>
		<contour>
			<point x="53" y="150" type="line"/>
			<point x="541" y="331" type="line"/>
			<point x="560" y="468" type="line"/>
			<point x="124" y="647" type="line"/>
			<point x="107" y="535" type="line"/>
			<point x="448" y="401" type="line"/>
			<point x="70" y="268" type="line"/>
		</contour>
		<contour>
			<point x="32" y="0" type="line"/>
			<point x="494" y="0" type="line"/>
			<point x="509" y="106" type="line"/>
			<point x="47" y="106" type="line"/>
		</contour>
	</outline>
</glyph>
<glyph name="heart" format="2">
	<unicode hex="2665"/>
	<advance width="600"/>
	<outline>
		<contour>
			<point x="83" y="541" type="curve" smooth="yes"/>
			<point x="83" y="427"/>
			<point x="143" y="318"/>
			<point x="306" y="137" type="curve" smooth="yes"/>
			<point x="444" y="-17" type="line"/>
			<point x="582" y="137" type="line" smooth="yes"/>
			<point x="746" y="318"/>
			<point x="810" y="427"/>
			<point x="810" y="541" type="curve" smooth="yes"/>
			<point x="810" y="642"/>
			<point x="725" y="726"/>
			<point x="624" y="726" type="curve" smooth="yes"/>
			<point x="524" y="726"/>
			<point x="455" y="658"/>
			<point x="444" y="569" type="curve"/>
			<point x="433" y="658"/>
			<point x="362" y="726"/>
			<point x="263" y="726" type="curve" smooth="yes"/>
			<point x="162" y="726"/>
			<point x="83" y="642"/>
		</contour>
	</outline>
</glyph>
<glyph name="Anocross" format="2">
	<advance width="600"/>
	<outline>
		<contour>
			<point x="-22" y="0" type="line"/>
			<point x="111" y="0" type="line"/>
			<point x="347" y="590" type="line"/>
			<point x="419" y="0" type="line"/>
			<point x="548" y="0" type="line"/>
			<point x="447" y="686" type="line"/>
			<point x="270" y="686" type="line"/>
		</contour>
	</outline>
	<anchor name="ogonek" x="548" y="0"/>
	<anchor name="bottom" x="294" y="0"/>
	<anchor name="top" x="359" y="684"/>
</glyph>
<glyph name=".notdef" format="2">
	<advance width="600"/>
	<outline>
		<contour>
			<point x="75" y="-100" type="line"/>
			<point x="525" y="-100" type="line"/>
			<point x="525" y="784" type="line"/>
			<point x="75" y="784" type="line"/>
		</contour>
		<contour>
			<point x="170" y="-14.5" type="line"/>
			<point x="170" y="698.5" type="line"/>
			<point x="430" y="698.5" type="line"/>
			<point x="430" y="-14.5" type="line"/>
		</contour>
	</outline>
</glyph>
<glyph name="a.ss01" format="2">
	<advance width="600"/>
	<outline>
		<contour>
			<point x="211" y="-14" type="curve" smooth="yes"/>
			<point x="280" y="-14"/>
			<point x="340" y="22"/>
			<point x="382" y="106" type="curve"/>
			<point x="367" y="0" type="line"/>
			<point x="488" y="0" type="line"/>
			<point x="561" y="523" type="line"/>
			<point x="371" y="523" type="line" smooth="yes"/>
			<point x="192" y="523"/>
			<point x="80" y="423"/>
			<point x="56" y="261" type="curve" smooth="yes"/>
			<point x="54" y="247" type="line" smooth="yes"/>
			<point x="31" y="83"/>
			<point x="93" y="-14"/>
		</contour>
		<contour>
			<point x="182" y="252" type="curve" smooth="yes"/>
			<point x="183" y="259" type="line"/>
			<point x="199" y="373"/>
			<point x="259" y="425"/>
			<point x="361" y="425" type="curve" smooth="yes"/>
			<point x="423" y="425" type="line"/>
			<point x="394" y="217" type="line" smooth="yes"/>
			<point x="383" y="138"/>
			<point x="339" y="85"/>
			<point x="273" y="85" type="curve" smooth="yes"/>
			<point x="201" y="85"/>
			<point x="167" y="146"/>
		</contour>
	</outline>
	<anchor name="ogonek" x="488" y="0"/>
	<anchor name="bottom" x="261" y="-2"/>
	<anchor name="top" x="363" y="523"/>
</glyph>
<glyph name="acute.cap" format="2">
	<advance width="600"/>
	<outline>
		<contour>
			<point x="270" y="745" type="line"/>
			<point x="368" y="745" type="line"/>
			<point x="485" y="884" type="line"/>
			<point x="347" y="884" type="line"/>
		</contour>
	</outline>
	<anchor name="_top" x="310" y="684"/>
</glyph>
<glyph name="ampersand_ampersand_ampersand.rem" format="2">
	<advance width="600"/>
	<outline>
		<contour>
			<point x="-850" y="-14" type="curve" smooth="yes"/>
			<point x="-760" y="-14"/>
			<point x="-678" y="22"/>
			<point x="-617" y="83" type="curve"/>
			<point x="-585" y="23"/>
			<point x="-518" y="-14"/>
			<point x="-423" y="-14" type="curve" smooth="yes"/>
			<point x="-333" y="-14"/>
			<point x="-251" y="22"/>
			<point x="-190" y="82" type="curve"/>
			<point x="-158" y="22"/>
			<point x="-91" y="-14"/>
			<point x="1" y="-14" type="curve" smooth="yes"/>
			<point x="91" y="-14"/>
			<point x="167" y="16"/>
			<point x="229" y="68" type="curve"/>
			<point x="287" y="0" type="line"/>
			<point x="426" y="0" type="line"/>
			<point x="303" y="148" type="line"/>
			<point x="354" y="217"/>
			<point x="391" y="303"/>
			<point x="416" y="398" type="curve"/>
			<point x="311" y="398" type="line"/>
			<point x="293" y="330"/>
			<point x="270" y="271"/>
			<point x="241" y="223" type="curve"/>
			<point x="106" y="386" type="line" smooth="yes"/>
			<point x="70" y="429"/>
			<point x="56" y="460"/>
			<point x="58" y="500" type="curve" smooth="yes"/>
			<point x="61" y="558"/>
			<point x="101" y="596"/>
			<point x="166" y="596" type="curve" smooth="yes"/>
			<point x="219" y="596"/>
			<point x="272" y="571"/>
			<point x="307" y="543" type="curve"/>
			<point x="322" y="650" type="line"/>
			<point x="289" y="676"/>
			<point x="228" y="698"/>
			<point x="164" y="698" type="curve" smooth="yes"/>
			<point x="30" y="698"/>
			<point x="-50" y="615"/>
			<point x="-58" y="509" type="curve" smooth="yes"/>
			<point x="-61" y="473"/>
			<point x="-55" y="440"/>
			<point x="-42" y="410" type="curve"/>
			<point x="-113" y="378"/>
			<point x="-173" y="321"/>
			<point x="-198" y="244" type="curve"/>
			<point x="-325" y="386" type="line" smooth="yes"/>
			<point x="-359" y="425"/>
			<point x="-374" y="460"/>
			<point x="-372" y="500" type="curve" smooth="yes"/>
			<point x="-369" y="558"/>
			<point x="-329" y="596"/>
			<point x="-266" y="596" type="curve" smooth="yes"/>
			<point x="-215" y="596"/>
			<point x="-166" y="572"/>
			<point x="-133" y="546" type="curve"/>
			<point x="-117" y="653" type="line"/>
			<point x="-149" y="677"/>
			<point x="-204" y="698"/>
			<point x="-268" y="698" type="curve" smooth="yes"/>
			<point x="-400" y="698"/>
			<point x="-480" y="615"/>
			<point x="-488" y="509" type="curve" smooth="yes"/>
			<point x="-491" y="472"/>
			<point x="-485" y="438"/>
			<point x="-473" y="406" type="curve"/>
			<point x="-542" y="375"/>
			<point x="-602" y="318"/>
			<point x="-626" y="241" type="curve"/>
			<point x="-755" y="386" type="line" smooth="yes"/>
			<point x="-790" y="426"/>
			<point x="-804" y="461"/>
			<point x="-802" y="501" type="curve" smooth="yes"/>
			<point x="-800" y="559"/>
			<point x="-760" y="596"/>
			<point x="-697" y="596" type="curve" smooth="yes"/>
			<point x="-646" y="596"/>
			<point x="-597" y="572"/>
			<point x="-564" y="546" type="curve"/>
			<point x="-543" y="653" type="line"/>
			<point x="-575" y="677"/>
			<point x="-635" y="698"/>
			<point x="-700" y="698" type="curve" smooth="yes"/>
			<point x="-831" y="698"/>
			<point x="-911" y="616"/>
			<point x="-918" y="509" type="curve" smooth="yes"/>
			<point x="-921" y="472"/>
			<point x="-916" y="437"/>
			<point x="-902" y="405" type="curve"/>
			<point x="-987" y="365"/>
			<point x="-1055" y="292"/>
			<point x="-1062" y="185" type="curve" smooth="yes"/>
			<point x="-1071" y="69"/>
			<point x="-986" y="-14"/>
		</contour>
		<contour>
			<point x="-99" y="192" type="curve" smooth="yes"/>
			<point x="-97" y="257"/>
			<point x="-55" y="308"/>
			<point x="6" y="330" type="curve"/>
			<point x="8" y="328"/>
			<point x="9" y="326"/>
			<point x="11" y="324" type="curve" smooth="yes"/>
			<point x="170" y="137" type="line"/>
			<point x="129" y="102"/>
			<point x="81" y="83"/>
			<point x="27" y="83" type="curve" smooth="yes"/>
			<point x="-61" y="83"/>
			<point x="-103" y="127"/>
		</contour>
		<contour>
			<point x="-952" y="194" type="curve" smooth="yes"/>
			<point x="-949" y="258"/>
			<point x="-909" y="307"/>
			<point x="-854" y="329" type="curve"/>
			<point x="-853" y="327"/>
			<point x="-851" y="326"/>
			<point x="-850" y="324" type="curve" smooth="yes"/>
			<point x="-681" y="144" type="line"/>
			<point x="-724" y="104"/>
			<point x="-774" y="83"/>
			<point x="-829" y="83" type="curve" smooth="yes"/>
			<point x="-911" y="83"/>
			<point x="-955" y="129"/>
		</contour>
		<contour>
			<point x="-526" y="193" type="curve" smooth="yes"/>
			<point x="-524" y="257"/>
			<point x="-483" y="306"/>
			<point x="-424" y="329" type="curve"/>
			<point x="-423" y="327"/>
			<point x="-422" y="326"/>
			<point x="-420" y="324" type="curve" smooth="yes"/>
			<point x="-253" y="144" type="line"/>
			<point x="-296" y="104"/>
			<point x="-347" y="83"/>
			<point x="-403" y="83" type="curve" smooth="yes"/>
			<point x="-489" y="83"/>
			<point x="-529" y="129"/>
		</contour>
	</outline>
</glyph>
<glyph name="asciicircum_equal.cLig" format="2">
	<advance width="600"/>
	<outline>
		<contour>
			<point x="-444" y="352" type="line"/>
			<point x="-330" y="352" type="line"/>
			<point x="-171" y="603" type="line"/>
			<point x="-85" y="352" type="line"/>
			<point x="-29" y="352" type="line"/>
			<point x="-29" y="350" type="line"/>
			<point x="433" y="350" type="line"/>
			<point x="448" y="456" type="line"/>
			<point x="-13" y="456" type="line"/>
			<point x="-103" y="700" type="line"/>
			<point x="-218" y="700" type="line"/>
		</contour>
		<contour>
			<point x="-60" y="130" type="line"/>
			<point x="402" y="130" type="line"/>
			<point x="417" y="236" type="line"/>
			<point x="-45" y="236" type="line"/>
		</contour>
	</outline>
</glyph>
<glyph name="asciitilde_asciitilde.cLig" format="2">
	<advance width="600"/>
	<outline>
		<contour>
			<point x="-100" y="197" type="curve"/>
			<point x="15" y="197"/>
			<point x="32" y="321"/>
			<point x="108" y="321" type="curve"/>
			<point x="185" y="321"/>
			<point x="186" y="197"/>
			<point x="317" y="197" type="curve"/>
			<point x="411" y="197"/>
			<point x="478" y="278"/>
			<point x="515" y="428" type="curve"/>
			<point x="415" y="428" type="line"/>
			<point x="393" y="354"/>
			<point x="364" y="311"/>
			<point x="316" y="311" type="curve"/>
			<point x="235" y="311"/>
			<point x="247" y="433"/>
			<point x="114" y="433" type="curve"/>
			<point x="-9" y="433"/>
			<point x="-21" y="311"/>
			<point x="-94" y="311" type="curve"/>
			<point x="-167" y="311"/>
			<point x="-166" y="433"/>
			<point x="-291" y="433" type="curve"/>
			<point x="-392" y="433"/>
			<point x="-461" y="354"/>
			<point x="-498" y="203" type="curve"/>
			<point x="-398" y="203" type="line"/>
			<point x="-377" y="278"/>
			<point x="-348" y="320"/>
			<point x="-295" y="320" type="curve"/>
			<point x="-219" y="320"/>
			<point x="-222" y="197"/>
		</contour>
	</outline>
</glyph>
<glyph name="asciitilde_asciitilde_greater.cLig" format="2">
	<advance width="600"/>
	<outline>
		<contour>
			<point x="161" y="629" type="line"/>
			<point x="355" y="370" type="line"/>
			<point x="20" y="370" type="line"/>
			<point x="-8" y="416"/>
			<point x="-52" y="437"/>
			<point x="-99" y="437" type="curve" smooth="yes"/>
			<point x="-212" y="437"/>
			<point x="-237" y="307"/>
			<point x="-313" y="307" type="curve" smooth="yes"/>
			<point x="-393" y="307"/>
			<point x="-390" y="434"/>
			<point x="-508" y="434" type="curve" smooth="yes"/>
			<point x="-617" y="434"/>
			<point x="-647" y="306"/>
			<point x="-718" y="306" type="curve"/>
			<point x="-798" y="306"/>
			<point x="-795" y="434"/>
			<point x="-921" y="434" type="curve" smooth="yes"/>
			<point x="-1011" y="434"/>
			<point x="-1092" y="361"/>
			<point x="-1127" y="209" type="curve"/>
			<point x="-1026" y="209" type="line"/>
			<point x="-1006" y="277"/>
			<point x="-972" y="318"/>
			<point x="-922" y="318" type="curve" smooth="yes"/>
			<point x="-844" y="318"/>
			<point x="-846" y="192"/>
			<point x="-726" y="192" type="curve"/>
			<point x="-613" y="192"/>
			<point x="-590" y="318"/>
			<point x="-514" y="318" type="curve" smooth="yes"/>
			<point x="-433" y="318"/>
			<point x="-445" y="192"/>
			<point x="-322" y="192" type="curve" smooth="yes"/>
			<point x="-209" y="192"/>
			<point x="-188" y="322"/>
			<point x="-112" y="322" type="curve" smooth="yes"/>
			<point x="-74" y="322"/>
			<point x="-55" y="300"/>
			<point x="-42" y="257" type="curve"/>
			<point x="331" y="257" type="line"/>
			<point x="68" y="0" type="line"/>
			<point x="216" y="0" type="line"/>
			<point x="531" y="314" type="line"/>
			<point x="299" y="629" type="line"/>
		</contour>
	</outline>
</glyph>
<glyph name="asciitilde_at.cLig" format="2">
	<advance width="600"/>
	<outline>
		<contour>
			<point x="353" y="-17" type="curve"/>
			<point x="458" y="-17"/>
			<point x="523" y="79"/>
			<point x="549" y="260" type="curve" smooth="yes"/>
			<point x="551" y="274" type="line" smooth="yes"/>
			<point x="590" y="552"/>
			<point x="475" y="698"/>
			<point x="241" y="698" type="curve"/>
			<point x="4" y="698"/>
			<point x="-95" y="572"/>
			<point x="-161" y="380" type="curve" smooth="yes"/>
			<point x="-178" y="331"/>
			<point x="-190" y="303"/>
			<point x="-224" y="303" type="curve" smooth="yes"/>
			<point x="-283" y="303"/>
			<point x="-304" y="416"/>
			<point x="-406" y="416" type="curve" smooth="yes"/>
			<point x="-500" y="416"/>
			<point x="-546" y="340"/>
			<point x="-566" y="195" type="curve"/>
			<point x="-468" y="195" type="line"/>
			<point x="-458" y="267"/>
			<point x="-443" y="303"/>
			<point x="-401" y="303" type="curve" smooth="yes"/>
			<point x="-339" y="303"/>
			<point x="-318" y="187"/>
			<point x="-215" y="187" type="curve" smooth="yes"/>
			<point x="-140" y="187"/>
			<point x="-100" y="241"/>
			<point x="-67" y="343" type="curve" smooth="yes"/>
			<point x="-11" y="516"/>
			<point x="69" y="604"/>
			<point x="234" y="604" type="curve"/>
			<point x="421" y="604"/>
			<point x="479" y="487"/>
			<point x="450" y="284" type="curve" smooth="yes"/>
			<point x="449" y="277" type="line" smooth="yes"/>
			<point x="426" y="119"/>
			<point x="397" y="71"/>
			<point x="361" y="71" type="curve"/>
			<point x="334" y="71"/>
			<point x="323" y="87"/>
			<point x="332" y="148" type="curve" smooth="yes"/>
			<point x="379" y="481" type="line"/>
			<point x="280" y="481" type="line"/>
			<point x="269" y="399" type="line"/>
			<point x="253" y="458"/>
			<point x="222" y="491"/>
			<point x="161" y="491" type="curve" smooth="yes"/>
			<point x="77" y="491"/>
			<point x="16" y="420"/>
			<point x="-4" y="275" type="curve" smooth="yes"/>
			<point x="-23" y="145"/>
			<point x="20" y="62"/>
			<point x="111" y="62" type="curve" smooth="yes"/>
			<point x="176" y="62"/>
			<point x="217" y="108"/>
			<point x="241" y="163" type="curve"/>
			<point x="236" y="131" type="line" smooth="yes"/>
			<point x="222" y="30"/>
			<point x="270" y="-17"/>
		</contour>
		<contour>
			<point x="160" y="148" type="curve" smooth="yes"/>
			<point x="109" y="148"/>
			<point x="84" y="189"/>
			<point x="97" y="279" type="curve" smooth="yes"/>
			<point x="109" y="371"/>
			<point x="140" y="405"/>
			<point x="187" y="405" type="curve" smooth="yes"/>
			<point x="236" y="405"/>
			<point x="265" y="362"/>
			<point x="252" y="274" type="curve" smooth="yes"/>
			<point x="240" y="184"/>
			<point x="211" y="148"/>
		</contour>
	</outline>
</glyph>
<glyph name="asciitilde_hyphen.cLig" format="2">
	<advance width="600"/>
	<outline>
		<contour>
			<point x="424" y="365" type="line"/>
			<point x="6" y="365" type="line"/>
			<point x="-4" y="323"/>
			<point x="-23" y="295"/>
			<point x="-61" y="295" type="curve" smooth="yes"/>
			<point x="-126" y="295"/>
			<point x="-146" y="419"/>
			<point x="-252" y="419" type="curve" smooth="yes"/>
			<point x="-335" y="419"/>
			<point x="-396" y="363"/>
			<point x="-416" y="200" type="curve"/>
			<point x="-318" y="200" type="line"/>
			<point x="-310" y="271"/>
			<point x="-290" y="305"/>
			<point x="-252" y="305" type="curve" smooth="yes"/>
			<point x="-191" y="305"/>
			<point x="-164" y="184"/>
			<point x="-57" y="184" type="curve" smooth="yes"/>
			<point x="-9" y="184"/>
			<point x="32" y="204"/>
			<point x="59" y="252" type="curve"/>
			<point x="408" y="252" type="line"/>
		</contour>
	</outline>
</glyph>
<glyph name="asterisk_asterisk_asterisk.cLig" format="2">
	<advance width="600"/>
	<outline>
		<contour>
			<point x="-696" y="71" type="line"/>
			<point x="-622" y="176" type="line"/>
			<point x="-793" y="245" type="line"/>
			<point x="-600" y="313" type="line"/>
			<point x="-646" y="418" type="line"/>
			<point x="-816" y="294" type="line"/>
			<point x="-756" y="488" type="line"/>
			<point x="-877" y="488" type="line"/>
			<point x="-874" y="295" type="line"/>
			<point x="-1009" y="420" type="line"/>
			<point x="-1084" y="315" type="line"/>
			<point x="-908" y="245" type="line"/>
			<point x="-1103" y="175" type="line"/>
			<point x="-1057" y="70" type="line"/>
			<point x="-887" y="195" type="line"/>
			<point x="-945" y="0" type="line"/>
			<point x="-824" y="0" type="line"/>
			<point x="-829" y="195" type="line"/>
		</contour>
		<contour>
			<point x="-127" y="266" type="line"/>
			<point x="-53" y="371" type="line"/>
			<point x="-224" y="440" type="line"/>
			<point x="-31" y="508" type="line"/>
			<point x="-77" y="613" type="line"/>
			<point x="-247" y="489" type="line"/>
			<point x="-187" y="683" type="line"/>
			<point x="-308" y="683" type="line"/>
			<point x="-305" y="490" type="line"/>
			<point x="-440" y="615" type="line"/>
			<point x="-515" y="510" type="line"/>
			<point x="-339" y="440" type="line"/>
			<point x="-534" y="370" type="line"/>
			<point x="-488" y="265" type="line"/>
			<point x="-318" y="390" type="line"/>
			<point x="-376" y="195" type="line"/>
			<point x="-255" y="195" type="line"/>
			<point x="-260" y="390" type="line"/>
		</contour>
		<contour>
			<point x="412" y="70" type="line"/>
			<point x="486" y="175" type="line"/>
			<point x="315" y="244" type="line"/>
			<point x="508" y="312" type="line"/>
			<point x="462" y="417" type="line"/>
			<point x="292" y="293" type="line"/>
			<point x="352" y="487" type="line"/>
			<point x="231" y="487" type="line"/>
			<point x="234" y="294" type="line"/>
			<point x="99" y="419" type="line"/>
			<point x="24" y="314" type="line"/>
			<point x="200" y="244" type="line"/>
			<point x="5" y="174" type="line"/>
			<point x="51" y="69" type="line"/>
			<point x="221" y="194" type="line"/>
			<point x="163" y="-1" type="line"/>
			<point x="284" y="-1" type="line"/>
			<point x="279" y="194" type="line"/>
		</contour>
	</outline>
</glyph>
<glyph name="asterisk_asterisk_slash.rem" format="2">
	<advance width="600"/>
	<outline>
		<contour>
			<point x="-665" y="147" type="line"/>
			<point x="-591" y="252" type="line"/>
			<point x="-762" y="321" type="line"/>
			<point x="-569" y="389" type="line"/>
			<point x="-615" y="494" type="line"/>
			<point x="-785" y="370" type="line"/>
			<point x="-725" y="564" type="line"/>
			<point x="-846" y="564" type="line"/>
			<point x="-843" y="371" type="line"/>
			<point x="-978" y="496" type="line"/>
			<point x="-1053" y="391" type="line"/>
			<point x="-877" y="321" type="line"/>
			<point x="-1072" y="251" type="line"/>
			<point x="-1026" y="146" type="line"/>
			<point x="-856" y="271" type="line"/>
			<point x="-914" y="76" type="line"/>
			<point x="-793" y="76" type="line"/>
			<point x="-798" y="271" type="line"/>
		</contour>
		<contour>
			<point x="-86" y="147" type="line"/>
			<point x="-12" y="252" type="line"/>
			<point x="-183" y="321" type="line"/>
			<point x="10" y="389" type="line"/>
			<point x="-36" y="494" type="line"/>
			<point x="-206" y="370" type="line"/>
			<point x="-146" y="564" type="line"/>
			<point x="-267" y="564" type="line"/>
			<point x="-264" y="371" type="line"/>
			<point x="-399" y="496" type="line"/>
			<point x="-474" y="391" type="line"/>
			<point x="-298" y="321" type="line"/>
			<point x="-493" y="251" type="line"/>
			<point x="-447" y="146" type="line"/>
			<point x="-277" y="271" type="line"/>
			<point x="-335" y="76" type="line"/>
			<point x="-214" y="76" type="line"/>
			<point x="-219" y="271" type="line"/>
		</contour>
		<contour>
			<point x="433" y="792" type="line"/>
			<point x="-56" y="-163" type="line"/>
			<point x="71" y="-163" type="line"/>
			<point x="561" y="792" type="line"/>
		</contour>
	</outline>
</glyph>
<glyph name="bar_bar_bar.cLig" format="2">
	<advance width="600"/>
	<outline>
		<contour>
			<point x="216" y="792" type="line"/>
			<point x="82" y="-163" type="line"/>
			<point x="199" y="-163" type="line"/>
			<point x="333" y="792" type="line"/>
		</contour>
		<contour>
			<point x="-784" y="792" type="line"/>
			<point x="-918" y="-163" type="line"/>
			<point x="-801" y="-163" type="line"/>
			<point x="-667" y="792" type="line"/>
		</contour>
		<contour>
			<point x="-284" y="792" type="line"/>
			<point x="-418" y="-163" type="line"/>
			<point x="-301" y="-163" type="line"/>
			<point x="-167" y="792" type="line"/>
		</contour>
	</outline>
</glyph>
<glyph name="bar_bar_bar_greater.cLig" format="2">
	<advance width="600"/>
	<outline>
		<contour>
			<point x="-368" y="-79" type="line"/>
			<point x="-250" y="-79" type="line"/>
			<point x="325" y="245" type="line"/>
			<point x="344" y="383" type="line"/>
			<point x="-140" y="708" type="line"/>
			<point x="-258" y="708" type="line"/>
		</contour>
		<contour>
			<point x="-937" y="-80" type="line"/>
			<point x="-820" y="-80" type="line"/>
			<point x="-710" y="707" type="line"/>
			<point x="-827" y="707" type="line"/>
		</contour>
		<contour>
			<point x="-1507" y="-80" type="line"/>
			<point x="-1390" y="-80" type="line"/>
			<point x="-1280" y="707" type="line"/>
			<point x="-1397" y="707" type="line"/>
		</contour>
		<contour>
			<point x="-162" y="582" type="line"/>
			<point x="235" y="321" type="line"/>
			<point x="-234" y="60" type="line"/>
		</contour>
	</outline>
</glyph>
<glyph name="bar_bar_equal.init" format="2">
	<advance width="600"/>
	<outline>
		<contour>
			<point x="-309" y="684" type="line"/>
			<point x="-413" y="-55" type="line"/>
			<point x="-295" y="-55" type="line"/>
			<point x="-191" y="684" type="line"/>
		</contour>
		<contour>
			<point x="71" y="684" type="line"/>
			<point x="-33" y="-55" type="line"/>
			<point x="85" y="-55" type="line"/>
			<point x="114" y="151" type="line"/>
			<point x="584" y="151" type="line"/>
			<point x="600" y="258" type="line"/>
			<point x="129" y="258" type="line"/>
			<point x="145" y="371" type="line"/>
			<point x="615" y="371" type="line"/>
			<point x="631" y="478" type="line"/>
			<point x="160" y="478" type="line"/>
			<point x="189" y="684" type="line"/>
		</contour>
	</outline>
</glyph>
<glyph name="bar_bar_equal.rem" format="2">
	<advance width="600"/>
	<outline>
		<contour>
			<point x="-911" y="684" type="line"/>
			<point x="-1015" y="-55" type="line"/>
			<point x="-898" y="-55" type="line"/>
			<point x="-794" y="684" type="line"/>
		</contour>
		<contour>
			<point x="-529" y="684" type="line"/>
			<point x="-633" y="-55" type="line"/>
			<point x="-516" y="-55" type="line"/>
			<point x="-487" y="151" type="line"/>
			<point x="419" y="151" type="line"/>
			<point x="434" y="258" type="line"/>
			<point x="-472" y="258" type="line"/>
			<point x="-456" y="371" type="line"/>
			<point x="450" y="371" type="line"/>
			<point x="465" y="478" type="line"/>
			<point x="-441" y="478" type="line"/>
			<point x="-412" y="684" type="line"/>
		</contour>
	</outline>
</glyph>
<glyph name="bar_bar_hyphen.init" format="2">
	<advance width="600"/>
	<outline>
		<contour>
			<point x="-33" y="-55" type="line"/>
			<point x="84" y="-55" type="line"/>
			<point x="128" y="257" type="line"/>
			<point x="599" y="257" type="line"/>
			<point x="615" y="370" type="line"/>
			<point x="144" y="370" type="line"/>
			<point x="188" y="684" type="line"/>
			<point x="71" y="684" type="line"/>
		</contour>
		<contour>
			<point x="-413" y="-55" type="line"/>
			<point x="-296" y="-55" type="line"/>
			<point x="-192" y="684" type="line"/>
			<point x="-309" y="684" type="line"/>
		</contour>
	</outline>
</glyph>
<glyph name="bar_bracketright.cLig" format="2">
	<advance width="600"/>
	<outline>
		<contour>
			<point x="-117" y="-163" type="line"/>
			<point x="328" y="-163" type="line"/>
			<point x="463" y="792" type="line"/>
			<point x="17" y="792" type="line"/>
			<point x="4" y="700" type="line"/>
			<point x="331" y="700" type="line"/>
			<point x="223" y="-72" type="line"/>
			<point x="-104" y="-72" type="line"/>
		</contour>
		<contour>
			<point x="-306" y="-163" type="line"/>
			<point x="-172" y="792" type="line"/>
			<point x="-289" y="792" type="line"/>
			<point x="-423" y="-163" type="line"/>
		</contour>
	</outline>
</glyph>
<glyph name="bar_equal.med" format="2">
	<advance width="600"/>
	<outline>
		<contour>
			<point x="-16" y="151" type="line"/>
			<point x="223" y="151" type="line"/>
			<point x="194" y="-55" type="line"/>
			<point x="312" y="-55" type="line"/>
			<point x="341" y="151" type="line"/>
			<point x="584" y="151" type="line"/>
			<point x="599" y="258" type="line"/>
			<point x="356" y="258" type="line"/>
			<point x="372" y="371" type="line"/>
			<point x="615" y="371" type="line"/>
			<point x="630" y="478" type="line"/>
			<point x="387" y="478" type="line"/>
			<point x="416" y="684" type="line"/>
			<point x="298" y="684" type="line"/>
			<point x="269" y="478" type="line"/>
			<point x="31" y="478" type="line"/>
			<point x="15" y="371" type="line"/>
			<point x="254" y="371" type="line"/>
			<point x="238" y="258" type="line"/>
			<point x="0" y="258" type="line"/>
		</contour>
	</outline>
</glyph>
<glyph name="bar_equal.rem" format="2">
	<advance width="600"/>
	<outline>
		<contour>
			<point x="-311" y="684" type="line"/>
			<point x="-415" y="-55" type="line"/>
			<point x="-298" y="-55" type="line"/>
			<point x="-269" y="151" type="line"/>
			<point x="419" y="151" type="line"/>
			<point x="434" y="258" type="line"/>
			<point x="-254" y="258" type="line"/>
			<point x="-238" y="371" type="line"/>
			<point x="450" y="371" type="line"/>
			<point x="465" y="478" type="line"/>
			<point x="-223" y="478" type="line"/>
			<point x="-194" y="684" type="line"/>
		</contour>
	</outline>
</glyph>
<glyph name="bar_greater.cLig" format="2">
	<advance width="600"/>
	<outline>
		<contour>
			<point x="-333" y="-79" type="line"/>
			<point x="-215" y="-79" type="line"/>
			<point x="360" y="245" type="line"/>
			<point x="379" y="383" type="line"/>
			<point x="-105" y="708" type="line"/>
			<point x="-223" y="708" type="line"/>
		</contour>
		<contour>
			<point x="-127" y="582" type="line"/>
			<point x="270" y="321" type="line"/>
			<point x="-199" y="60" type="line"/>
		</contour>
	</outline>
</glyph>
<glyph name="bar_hyphen.fina" format="2">
	<advance width="600"/>
	<outline>
		<contour>
			<point x="-1" y="257" type="line"/>
			<point x="350" y="257" type="line"/>
			<point x="306" y="-55" type="line"/>
			<point x="424" y="-55" type="line"/>
			<point x="528" y="684" type="line"/>
			<point x="410" y="684" type="line"/>
			<point x="366" y="370" type="line"/>
			<point x="15" y="370" type="line"/>
		</contour>
	</outline>
</glyph>
<glyph name="bar_hyphen.init" format="2">
	<advance width="600"/>
	<outline>
		<contour>
			<point x="87" y="-55" type="line"/>
			<point x="204" y="-55" type="line"/>
			<point x="248" y="257" type="line"/>
			<point x="599" y="257" type="line"/>
			<point x="615" y="370" type="line"/>
			<point x="264" y="370" type="line"/>
			<point x="308" y="684" type="line"/>
			<point x="191" y="684" type="line"/>
		</contour>
	</outline>
</glyph>
<glyph name="braceleft_bar.cLig" format="2">
	<advance width="600"/>
	<outline>
		<contour>
			<point x="-270" y="-163" type="curve" smooth="yes"/>
			<point x="1" y="-163" type="line"/>
			<point x="13" y="-71" type="line"/>
			<point x="-215" y="-71" type="line" smooth="yes"/>
			<point x="-267" y="-71"/>
			<point x="-294" y="-52"/>
			<point x="-294" y="-12" type="curve" smooth="yes"/>
			<point x="-294" y="71"/>
			<point x="-166" y="110"/>
			<point x="-166" y="213" type="curve" smooth="yes"/>
			<point x="-166" y="261"/>
			<point x="-206" y="301"/>
			<point x="-265" y="313" type="curve"/>
			<point x="-205" y="321"/>
			<point x="-133" y="354"/>
			<point x="-133" y="435" type="curve" smooth="yes"/>
			<point x="-133" y="510"/>
			<point x="-206" y="569"/>
			<point x="-206" y="632" type="curve" smooth="yes"/>
			<point x="-206" y="684"/>
			<point x="-170" y="700"/>
			<point x="-112" y="700" type="curve" smooth="yes"/>
			<point x="122" y="700" type="line"/>
			<point x="135" y="792" type="line"/>
			<point x="-157" y="792" type="line" smooth="yes"/>
			<point x="-263" y="792"/>
			<point x="-330" y="734"/>
			<point x="-330" y="649" type="curve" smooth="yes"/>
			<point x="-330" y="564"/>
			<point x="-258" y="498"/>
			<point x="-258" y="437" type="curve" smooth="yes"/>
			<point x="-258" y="398"/>
			<point x="-285" y="367"/>
			<point x="-329" y="367" type="curve" smooth="yes"/>
			<point x="-423" y="367" type="line"/>
			<point x="-438" y="259" type="line"/>
			<point x="-356" y="259" type="line" smooth="yes"/>
			<point x="-310" y="259"/>
			<point x="-294" y="231"/>
			<point x="-294" y="205" type="curve" smooth="yes"/>
			<point x="-294" y="130"/>
			<point x="-426" y="86"/>
			<point x="-426" y="-35" type="curve" smooth="yes"/>
			<point x="-426" y="-106"/>
			<point x="-377" y="-163"/>
		</contour>
		<contour>
			<point x="323" y="792" type="line"/>
			<point x="189" y="-163" type="line"/>
			<point x="306" y="-163" type="line"/>
			<point x="440" y="792" type="line"/>
		</contour>
	</outline>
</glyph>
<glyph name="braceleft_braceleft_numbersign.cLig" format="2">
	<advance width="600"/>
	<outline>
		<contour>
			<point x="-700" y="-163" type="line"/>
			<point x="-688" y="-71" type="line"/>
			<point x="-810" y="-71" type="line" smooth="yes"/>
			<point x="-862" y="-71"/>
			<point x="-889" y="-52"/>
			<point x="-889" y="-12" type="curve" smooth="yes"/>
			<point x="-889" y="71"/>
			<point x="-761" y="110"/>
			<point x="-761" y="213" type="curve" smooth="yes"/>
			<point x="-761" y="261"/>
			<point x="-801" y="301"/>
			<point x="-861" y="313" type="curve"/>
			<point x="-801" y="321"/>
			<point x="-728" y="354"/>
			<point x="-728" y="435" type="curve" smooth="yes"/>
			<point x="-728" y="510"/>
			<point x="-801" y="569"/>
			<point x="-801" y="632" type="curve" smooth="yes"/>
			<point x="-801" y="684"/>
			<point x="-765" y="700"/>
			<point x="-707" y="700" type="curve" smooth="yes"/>
			<point x="-374" y="700" type="line"/>
			<point x="-429" y="687"/>
			<point x="-458" y="658"/>
			<point x="-458" y="611" type="curve" smooth="yes"/>
			<point x="-458" y="543"/>
			<point x="-384" y="490"/>
			<point x="-384" y="431" type="curve" smooth="yes"/>
			<point x="-384" y="393"/>
			<point x="-412" y="367"/>
			<point x="-466" y="367" type="curve" smooth="yes"/>
			<point x="-568" y="367" type="line"/>
			<point x="-583" y="259" type="line"/>
			<point x="-492" y="259" type="line" smooth="yes"/>
			<point x="-438" y="259"/>
			<point x="-420" y="236"/>
			<point x="-420" y="209" type="curve"/>
			<point x="-420" y="131"/>
			<point x="-553" y="86"/>
			<point x="-553" y="-35" type="curve" smooth="yes"/>
			<point x="-553" y="-106"/>
			<point x="-504" y="-163"/>
			<point x="-398" y="-163" type="curve" smooth="yes"/>
			<point x="-203" y="-163" type="line"/>
			<point x="-190" y="-71" type="line"/>
			<point x="-342" y="-71" type="line" smooth="yes"/>
			<point x="-394" y="-71"/>
			<point x="-421" y="-52"/>
			<point x="-421" y="-12" type="curve" smooth="yes"/>
			<point x="-421" y="69"/>
			<point x="-292" y="114"/>
			<point x="-292" y="216" type="curve"/>
			<point x="-292" y="264"/>
			<point x="-332" y="301"/>
			<point x="-392" y="313" type="curve"/>
			<point x="-332" y="320"/>
			<point x="-259" y="349"/>
			<point x="-259" y="432" type="curve" smooth="yes"/>
			<point x="-259" y="506"/>
			<point x="-332" y="562"/>
			<point x="-332" y="629" type="curve" smooth="yes"/>
			<point x="-332" y="677"/>
			<point x="-296" y="700"/>
			<point x="-233" y="700" type="curve" smooth="yes"/>
			<point x="-82" y="700" type="line"/>
			<point x="-69" y="792" type="line"/>
			<point x="-753" y="792" type="line" smooth="yes"/>
			<point x="-858" y="792"/>
			<point x="-925" y="734"/>
			<point x="-925" y="649" type="curve" smooth="yes"/>
			<point x="-925" y="564"/>
			<point x="-853" y="498"/>
			<point x="-853" y="437" type="curve" smooth="yes"/>
			<point x="-853" y="398"/>
			<point x="-881" y="367"/>
			<point x="-924" y="367" type="curve" smooth="yes"/>
			<point x="-1029" y="367" type="line"/>
			<point x="-1043" y="259" type="line"/>
			<point x="-951" y="259" type="line" smooth="yes"/>
			<point x="-905" y="259"/>
			<point x="-889" y="231"/>
			<point x="-889" y="205" type="curve" smooth="yes"/>
			<point x="-889" y="130"/>
			<point x="-1021" y="86"/>
			<point x="-1021" y="-35" type="curve" smooth="yes"/>
			<point x="-1021" y="-106"/>
			<point x="-972" y="-163"/>
			<point x="-866" y="-163" type="curve" smooth="yes"/>
		</contour>
		<contour>
			<point x="-127" y="256" type="line"/>
			<point x="-141" y="161" type="line"/>
			<point x="-22" y="161" type="line"/>
			<point x="-60" y="0" type="line"/>
			<point x="39" y="0" type="line"/>
			<point x="77" y="161" type="line"/>
			<point x="198" y="161" type="line"/>
			<point x="161" y="0" type="line"/>
			<point x="258" y="0" type="line"/>
			<point x="296" y="161" type="line"/>
			<point x="403" y="161" type="line"/>
			<point x="417" y="256" type="line"/>
			<point x="318" y="256" type="line"/>
			<point x="361" y="437" type="line"/>
			<point x="466" y="437" type="line"/>
			<point x="479" y="533" type="line"/>
			<point x="384" y="533" type="line"/>
			<point x="419" y="684" type="line"/>
			<point x="321" y="684" type="line"/>
			<point x="286" y="533" type="line"/>
			<point x="164" y="533" type="line"/>
			<point x="199" y="684" type="line"/>
			<point x="101" y="684" type="line"/>
			<point x="66" y="533" type="line"/>
			<point x="-88" y="533" type="line"/>
			<point x="-102" y="437" type="line"/>
			<point x="43" y="437" type="line"/>
			<point x="0" y="256" type="line"/>
		</contour>
		<contour>
			<point x="99" y="256" type="line"/>
			<point x="141" y="437" type="line"/>
			<point x="263" y="437" type="line"/>
			<point x="221" y="256" type="line"/>
		</contour>
	</outline>
</glyph>
<glyph name="braceleft_hyphen.rem" format="2">
	<advance width="600"/>
	<outline>
		<contour>
			<point x="69" y="792" type="line"/>
			<point x="-118" y="792" type="line" smooth="yes"/>
			<point x="-223" y="792"/>
			<point x="-288" y="733"/>
			<point x="-288" y="648" type="curve" smooth="yes"/>
			<point x="-288" y="565"/>
			<point x="-217" y="498"/>
			<point x="-217" y="438" type="curve" smooth="yes"/>
			<point x="-217" y="396"/>
			<point x="-246" y="367"/>
			<point x="-314" y="367" type="curve" smooth="yes"/>
			<point x="-394" y="367" type="line"/>
			<point x="-409" y="259" type="line"/>
			<point x="-332" y="259" type="line" smooth="yes"/>
			<point x="-274" y="259"/>
			<point x="-255" y="229"/>
			<point x="-255" y="199" type="curve" smooth="yes"/>
			<point x="-255" y="123"/>
			<point x="-385" y="81"/>
			<point x="-385" y="-35" type="curve" smooth="yes"/>
			<point x="-385" y="-105"/>
			<point x="-337" y="-163"/>
			<point x="-231" y="-163" type="curve" smooth="yes"/>
			<point x="-66" y="-163" type="line"/>
			<point x="-53" y="-71" type="line"/>
			<point x="-176" y="-71" type="line" smooth="yes"/>
			<point x="-228" y="-71"/>
			<point x="-255" y="-52"/>
			<point x="-255" y="-12" type="curve" smooth="yes"/>
			<point x="-255" y="66"/>
			<point x="-127" y="104"/>
			<point x="-127" y="193" type="curve" smooth="yes"/>
			<point x="-127" y="232"/>
			<point x="-155" y="251"/>
			<point x="-193" y="261" type="curve"/>
			<point x="426" y="261" type="line"/>
			<point x="442" y="368" type="line"/>
			<point x="-176" y="368" type="line"/>
			<point x="-131" y="380"/>
			<point x="-92" y="403"/>
			<point x="-92" y="452" type="curve" smooth="yes"/>
			<point x="-92" y="513"/>
			<point x="-166" y="571"/>
			<point x="-166" y="632" type="curve" smooth="yes"/>
			<point x="-166" y="684"/>
			<point x="-131" y="700"/>
			<point x="-74" y="700" type="curve" smooth="yes"/>
			<point x="55" y="700" type="line"/>
		</contour>
	</outline>
</glyph>
<glyph name="braceright_numbersign.cLig" format="2">
	<advance width="600"/>
	<outline>
		<contour>
			<point x="-565" y="-164" type="line"/>
			<point x="-378" y="-164" type="line" smooth="yes"/>
			<point x="-273" y="-164"/>
			<point x="-206" y="-106"/>
			<point x="-206" y="-20" type="curve" smooth="yes"/>
			<point x="-206" y="65"/>
			<point x="-278" y="131"/>
			<point x="-278" y="192" type="curve" smooth="yes"/>
			<point x="-278" y="231"/>
			<point x="-251" y="262"/>
			<point x="-206" y="262" type="curve" smooth="yes"/>
			<point x="-149" y="262" type="line"/>
			<point x="-134" y="370" type="line"/>
			<point x="-180" y="370" type="line" smooth="yes"/>
			<point x="-225" y="370"/>
			<point x="-242" y="398"/>
			<point x="-242" y="424" type="curve" smooth="yes"/>
			<point x="-242" y="499"/>
			<point x="-110" y="542"/>
			<point x="-110" y="664" type="curve" smooth="yes"/>
			<point x="-110" y="735"/>
			<point x="-159" y="792"/>
			<point x="-266" y="792" type="curve" smooth="yes"/>
			<point x="-431" y="792" type="line"/>
			<point x="-444" y="700" type="line"/>
			<point x="-321" y="700" type="line" smooth="yes"/>
			<point x="-269" y="700"/>
			<point x="-242" y="681"/>
			<point x="-242" y="641" type="curve" smooth="yes"/>
			<point x="-241" y="558"/>
			<point x="-370" y="519"/>
			<point x="-370" y="416" type="curve" smooth="yes"/>
			<point x="-370" y="367"/>
			<point x="-330" y="328"/>
			<point x="-271" y="316" type="curve"/>
			<point x="-330" y="308"/>
			<point x="-403" y="276"/>
			<point x="-403" y="194" type="curve" smooth="yes"/>
			<point x="-403" y="118"/>
			<point x="-330" y="60"/>
			<point x="-330" y="-3" type="curve" smooth="yes"/>
			<point x="-331" y="-55"/>
			<point x="-366" y="-71"/>
			<point x="-423" y="-71" type="curve" smooth="yes"/>
			<point x="-552" y="-71" type="line"/>
		</contour>
		<contour>
			<point x="-59" y="256" type="line"/>
			<point x="-72" y="161" type="line"/>
			<point x="47" y="161" type="line"/>
			<point x="9" y="0" type="line"/>
			<point x="108" y="0" type="line"/>
			<point x="145" y="161" type="line"/>
			<point x="267" y="161" type="line"/>
			<point x="230" y="0" type="line"/>
			<point x="327" y="0" type="line"/>
			<point x="364" y="161" type="line"/>
			<point x="472" y="161" type="line"/>
			<point x="486" y="256" type="line"/>
			<point x="387" y="256" type="line"/>
			<point x="430" y="437" type="line"/>
			<point x="535" y="437" type="line"/>
			<point x="548" y="533" type="line"/>
			<point x="452" y="533" type="line"/>
			<point x="488" y="684" type="line"/>
			<point x="390" y="684" type="line"/>
			<point x="355" y="533" type="line"/>
			<point x="232" y="533" type="line"/>
			<point x="268" y="684" type="line"/>
			<point x="170" y="684" type="line"/>
			<point x="135" y="533" type="line"/>
			<point x="-20" y="533" type="line"/>
			<point x="-33" y="437" type="line"/>
			<point x="112" y="437" type="line"/>
			<point x="69" y="256" type="line"/>
		</contour>
		<contour>
			<point x="168" y="256" type="line"/>
			<point x="210" y="437" type="line"/>
			<point x="332" y="437" type="line"/>
			<point x="290" y="256" type="line"/>
		</contour>
	</outline>
</glyph>
<glyph name="bracketleft_bar.cLig" format="2">
	<advance width="600"/>
	<outline>
		<contour>
			<point x="19" y="-71" type="line"/>
			<point x="-318" y="-71" type="line"/>
			<point x="-210" y="700" type="line"/>
			<point x="128" y="700" type="line"/>
			<point x="141" y="792" type="line"/>
			<point x="-315" y="792" type="line"/>
			<point x="-449" y="-163" type="line"/>
			<point x="6" y="-163" type="line"/>
		</contour>
		<contour>
			<point x="319" y="792" type="line"/>
			<point x="185" y="-163" type="line"/>
			<point x="302" y="-163" type="line"/>
			<point x="436" y="792" type="line"/>
		</contour>
	</outline>
</glyph>
<glyph name="bracketleft_numbersign.cLig" format="2">
	<advance width="600"/>
	<outline>
		<contour>
			<point x="-97" y="256" type="line"/>
			<point x="-111" y="161" type="line"/>
			<point x="8" y="161" type="line"/>
			<point x="-30" y="0" type="line"/>
			<point x="69" y="0" type="line"/>
			<point x="107" y="161" type="line"/>
			<point x="228" y="161" type="line"/>
			<point x="191" y="0" type="line"/>
			<point x="288" y="0" type="line"/>
			<point x="326" y="161" type="line"/>
			<point x="433" y="161" type="line"/>
			<point x="447" y="256" type="line"/>
			<point x="348" y="256" type="line"/>
			<point x="391" y="437" type="line"/>
			<point x="496" y="437" type="line"/>
			<point x="509" y="533" type="line"/>
			<point x="414" y="533" type="line"/>
			<point x="449" y="684" type="line"/>
			<point x="351" y="684" type="line"/>
			<point x="316" y="533" type="line"/>
			<point x="194" y="533" type="line"/>
			<point x="229" y="684" type="line"/>
			<point x="131" y="684" type="line"/>
			<point x="96" y="533" type="line"/>
			<point x="-58" y="533" type="line"/>
			<point x="-72" y="437" type="line"/>
			<point x="73" y="437" type="line"/>
			<point x="30" y="256" type="line"/>
		</contour>
		<contour>
			<point x="129" y="256" type="line"/>
			<point x="171" y="437" type="line"/>
			<point x="293" y="437" type="line"/>
			<point x="251" y="256" type="line"/>
		</contour>
		<contour>
			<point x="-152" y="-72" type="line"/>
			<point x="-353" y="-72" type="line"/>
			<point x="-244" y="701" type="line"/>
			<point x="-43" y="701" type="line"/>
			<point x="-31" y="792" type="line"/>
			<point x="-348" y="792" type="line"/>
			<point x="-483" y="-163" type="line"/>
			<point x="-166" y="-163" type="line"/>
		</contour>
	</outline>
</glyph>
<glyph name="bracketright_bracketright.cLig" format="2">
	<advance width="600"/>
	<outline>
		<contour>
			<point x="-371" y="700" type="line"/>
			<point x="-148" y="700" type="line"/>
			<point x="-256" y="-71" type="line"/>
			<point x="-479" y="-71" type="line"/>
			<point x="-492" y="-163" type="line"/>
			<point x="-152" y="-163" type="line"/>
			<point x="-17" y="792" type="line"/>
			<point x="-357" y="792" type="line"/>
		</contour>
		<contour>
			<point x="51" y="700" type="line"/>
			<point x="332" y="700" type="line"/>
			<point x="224" y="-71" type="line"/>
			<point x="-57" y="-71" type="line"/>
			<point x="-70" y="-163" type="line"/>
			<point x="328" y="-163" type="line"/>
			<point x="463" y="792" type="line"/>
			<point x="65" y="792" type="line"/>
		</contour>
	</outline>
</glyph>
<glyph name="colon_colon.cLig" format="2">
	<advance width="600"/>
	<outline>
		<contour>
			<point x="-251" y="-12" type="curve" smooth="yes"/>
			<point x="-191" y="-12"/>
			<point x="-161" y="13"/>
			<point x="-154" y="66" type="curve" smooth="yes"/>
			<point x="-145" y="126"/>
			<point x="-173" y="155"/>
			<point x="-238" y="155" type="curve" smooth="yes"/>
			<point x="-300" y="155"/>
			<point x="-330" y="131"/>
			<point x="-337" y="78" type="curve" smooth="yes"/>
			<point x="-346" y="17"/>
			<point x="-319" y="-12"/>
		</contour>
		<contour>
			<point x="-199" y="359" type="curve" smooth="yes"/>
			<point x="-139" y="359"/>
			<point x="-109" y="384"/>
			<point x="-102" y="437" type="curve" smooth="yes"/>
			<point x="-93" y="497"/>
			<point x="-121" y="526"/>
			<point x="-186" y="526" type="curve" smooth="yes"/>
			<point x="-248" y="526"/>
			<point x="-278" y="502"/>
			<point x="-285" y="449" type="curve" smooth="yes"/>
			<point x="-294" y="388"/>
			<point x="-267" y="359"/>
		</contour>
		<contour>
			<point x="187" y="-12" type="curve" smooth="yes"/>
			<point x="247" y="-12"/>
			<point x="277" y="13"/>
			<point x="284" y="66" type="curve" smooth="yes"/>
			<point x="293" y="126"/>
			<point x="265" y="155"/>
			<point x="200" y="155" type="curve" smooth="yes"/>
			<point x="138" y="155"/>
			<point x="108" y="131"/>
			<point x="101" y="78" type="curve" smooth="yes"/>
			<point x="92" y="17"/>
			<point x="119" y="-12"/>
		</contour>
		<contour>
			<point x="239" y="359" type="curve" smooth="yes"/>
			<point x="299" y="359"/>
			<point x="329" y="384"/>
			<point x="336" y="437" type="curve" smooth="yes"/>
			<point x="345" y="497"/>
			<point x="317" y="526"/>
			<point x="252" y="526" type="curve" smooth="yes"/>
			<point x="190" y="526"/>
			<point x="160" y="502"/>
			<point x="153" y="449" type="curve" smooth="yes"/>
			<point x="144" y="388"/>
			<point x="171" y="359"/>
		</contour>
	</outline>
</glyph>
<glyph name="colon_equal.cLig" format="2">
	<advance width="600"/>
	<outline>
		<contour>
			<point x="-315" y="354" type="curve" smooth="yes"/>
			<point x="-255" y="354"/>
			<point x="-225" y="379"/>
			<point x="-218" y="432" type="curve" smooth="yes"/>
			<point x="-209" y="492"/>
			<point x="-237" y="521"/>
			<point x="-302" y="521" type="curve" smooth="yes"/>
			<point x="-364" y="521"/>
			<point x="-394" y="497"/>
			<point x="-401" y="444" type="curve" smooth="yes"/>
			<point x="-410" y="383"/>
			<point x="-383" y="354"/>
		</contour>
		<contour>
			<point x="-54" y="352" type="line"/>
			<point x="441" y="352" type="line"/>
			<point x="456" y="459" type="line"/>
			<point x="-39" y="459" type="line"/>
		</contour>
		<contour>
			<point x="-85" y="132" type="line"/>
			<point x="410" y="132" type="line"/>
			<point x="425" y="239" type="line"/>
			<point x="-69" y="239" type="line"/>
		</contour>
		<contour>
			<point x="-355" y="63" type="curve" smooth="yes"/>
			<point x="-295" y="63"/>
			<point x="-265" y="88"/>
			<point x="-258" y="141" type="curve" smooth="yes"/>
			<point x="-249" y="201"/>
			<point x="-277" y="230"/>
			<point x="-342" y="230" type="curve" smooth="yes"/>
			<point x="-404" y="230"/>
			<point x="-434" y="206"/>
			<point x="-441" y="153" type="curve" smooth="yes"/>
			<point x="-450" y="92"/>
			<point x="-423" y="63"/>
		</contour>
	</outline>
</glyph>
<glyph name="colon_equal.med" format="2">
	<advance width="600"/>
	<outline>
		<contour>
			<point x="320" y="354" type="curve" smooth="yes"/>
			<point x="380" y="354"/>
			<point x="410" y="379"/>
			<point x="417" y="432" type="curve" smooth="yes"/>
			<point x="426" y="492"/>
			<point x="398" y="521"/>
			<point x="333" y="521" type="curve" smooth="yes"/>
			<point x="271" y="521"/>
			<point x="241" y="497"/>
			<point x="234" y="444" type="curve" smooth="yes"/>
			<point x="225" y="383"/>
			<point x="252" y="354"/>
		</contour>
		<contour>
			<point x="516" y="373" type="line"/>
			<point x="615" y="373" type="line"/>
			<point x="631" y="479" type="line"/>
			<point x="531" y="479" type="line"/>
		</contour>
		<contour>
			<point x="15" y="373" type="line"/>
			<point x="115" y="373" type="line"/>
			<point x="130" y="479" type="line"/>
			<point x="31" y="479" type="line"/>
		</contour>
		<contour>
			<point x="485" y="153" type="line"/>
			<point x="585" y="153" type="line"/>
			<point x="600" y="260" type="line"/>
			<point x="500" y="260" type="line"/>
		</contour>
		<contour>
			<point x="-15" y="153" type="line"/>
			<point x="85" y="153" type="line"/>
			<point x="99" y="260" type="line"/>
			<point x="0" y="260" type="line"/>
		</contour>
		<contour>
			<point x="279" y="63" type="curve" smooth="yes"/>
			<point x="339" y="63"/>
			<point x="369" y="88"/>
			<point x="376" y="141" type="curve" smooth="yes"/>
			<point x="385" y="201"/>
			<point x="357" y="230"/>
			<point x="292" y="230" type="curve" smooth="yes"/>
			<point x="230" y="230"/>
			<point x="200" y="206"/>
			<point x="193" y="153" type="curve" smooth="yes"/>
			<point x="184" y="92"/>
			<point x="211" y="63"/>
		</contour>
	</outline>
</glyph>
<glyph name="cordinal" format="2">
	<advance width="600"/>
	<outline>
		<contour>
			<point x="378" y="226" type="curve" smooth="yes"/>
			<point x="421" y="226"/>
			<point x="455" y="232"/>
			<point x="480" y="241" type="curve"/>
			<point x="489" y="323" type="line"/>
			<point x="468" y="315"/>
			<point x="436" y="307"/>
			<point x="398" y="307" type="curve" smooth="yes"/>
			<point x="300" y="307"/>
			<point x="235" y="365"/>
			<point x="251" y="475" type="curve" smooth="yes"/>
			<point x="265" y="568"/>
			<point x="326" y="613"/>
			<point x="412" y="613" type="curve" smooth="yes"/>
			<point x="458" y="613"/>
			<point x="501" y="602"/>
			<point x="528" y="587" type="curve"/>
			<point x="539" y="669" type="line"/>
			<point x="513" y="683"/>
			<point x="461" y="695"/>
			<point x="401" y="695" type="curve" smooth="yes"/>
			<point x="259" y="695"/>
			<point x="163" y="613"/>
			<point x="145" y="486" type="curve" smooth="yes"/>
			<point x="121" y="316"/>
			<point x="227" y="226"/>
		</contour>
	</outline>
</glyph>
<glyph name="dotbelow" format="2">
	<advance width="600"/>
	<outline>
		<contour>
			<point x="241" y="-183" type="curve" smooth="yes"/>
			<point x="297" y="-183"/>
			<point x="319" y="-160"/>
			<point x="324" y="-114" type="curve" smooth="yes"/>
			<point x="330" y="-66"/>
			<point x="308" y="-41"/>
			<point x="252" y="-41" type="curve" smooth="yes"/>
			<point x="199" y="-41"/>
			<point x="175" y="-62"/>
			<point x="169" y="-110" type="curve" smooth="yes"/>
			<point x="164" y="-158"/>
			<point x="184" y="-183"/>
		</contour>
	</outline>
	<anchor name="bottom" x="263" y="0"/>
</glyph>
<glyph name="eight.den" format="2">
	<advance width="600"/>
	<outline>
		<contour>
			<point x="271" y="-8" type="curve" smooth="yes"/>
			<point x="384" y="-8"/>
			<point x="442" y="43"/>
			<point x="442" y="119" type="curve" smooth="yes"/>
			<point x="442" y="169"/>
			<point x="411" y="195"/>
			<point x="363" y="207" type="curve"/>
			<point x="423" y="219"/>
			<point x="463" y="254"/>
			<point x="463" y="316" type="curve" smooth="yes"/>
			<point x="463" y="383"/>
			<point x="407" y="418"/>
			<point x="310" y="418" type="curve" smooth="yes"/>
			<point x="214" y="418"/>
			<point x="151" y="376"/>
			<point x="151" y="298" type="curve" smooth="yes"/>
			<point x="151" y="252"/>
			<point x="178" y="223"/>
			<point x="223" y="212" type="curve"/>
			<point x="156" y="204"/>
			<point x="114" y="165"/>
			<point x="114" y="100" type="curve" smooth="yes"/>
			<point x="114" y="24"/>
			<point x="181" y="-8"/>
		</contour>
		<contour>
			<point x="302" y="240" type="curve" smooth="yes"/>
			<point x="261" y="240"/>
			<point x="235" y="260"/>
			<point x="235" y="293" type="curve" smooth="yes"/>
			<point x="235" y="335"/>
			<point x="260" y="357"/>
			<point x="310" y="357" type="curve" smooth="yes"/>
			<point x="351" y="357"/>
			<point x="379" y="341"/>
			<point x="379" y="305" type="curve" smooth="yes"/>
			<point x="379" y="263"/>
			<point x="351" y="240"/>
		</contour>
		<contour>
			<point x="274" y="55" type="curve" smooth="yes"/>
			<point x="233" y="55"/>
			<point x="202" y="73"/>
			<point x="202" y="112" type="curve" smooth="yes"/>
			<point x="202" y="155"/>
			<point x="229" y="177"/>
			<point x="282" y="177" type="curve" smooth="yes"/>
			<point x="329" y="177"/>
			<point x="354" y="160"/>
			<point x="354" y="125" type="curve" smooth="yes"/>
			<point x="354" y="81"/>
			<point x="326" y="55"/>
		</contour>
	</outline>
</glyph>
<glyph name="eight.numr" format="2">
	<advance width="600"/>
	<outline>
		<contour>
			<point x="323" y="366" type="curve" smooth="yes"/>
			<point x="416" y="366"/>
			<point x="468" y="408"/>
			<point x="468" y="473" type="curve" smooth="yes"/>
			<point x="468" y="515"/>
			<point x="440" y="536"/>
			<point x="401" y="546" type="curve"/>
			<point x="451" y="556"/>
			<point x="486" y="586"/>
			<point x="486" y="638" type="curve" smooth="yes"/>
			<point x="486" y="694"/>
			<point x="438" y="724"/>
			<point x="357" y="724" type="curve" smooth="yes"/>
			<point x="275" y="724"/>
			<point x="221" y="689"/>
			<point x="221" y="622" type="curve" smooth="yes"/>
			<point x="221" y="586"/>
			<point x="245" y="560"/>
			<point x="279" y="550" type="curve"/>
			<point x="226" y="543"/>
			<point x="189" y="509"/>
			<point x="189" y="456" type="curve" smooth="yes"/>
			<point x="189" y="391"/>
			<point x="247" y="366"/>
		</contour>
		<contour>
			<point x="349" y="576" type="curve" smooth="yes"/>
			<point x="314" y="576"/>
			<point x="295" y="592"/>
			<point x="295" y="618" type="curve" smooth="yes"/>
			<point x="295" y="653"/>
			<point x="317" y="670"/>
			<point x="356" y="670" type="curve" smooth="yes"/>
			<point x="389" y="670"/>
			<point x="412" y="659"/>
			<point x="412" y="628" type="curve" smooth="yes"/>
			<point x="412" y="595"/>
			<point x="388" y="576"/>
		</contour>
		<contour>
			<point x="324" y="422" type="curve" smooth="yes"/>
			<point x="291" y="422"/>
			<point x="266" y="434"/>
			<point x="266" y="467" type="curve" smooth="yes"/>
			<point x="266" y="501"/>
			<point x="289" y="520"/>
			<point x="333" y="520" type="curve" smooth="yes"/>
			<point x="371" y="520"/>
			<point x="391" y="506"/>
			<point x="391" y="479" type="curve" smooth="yes"/>
			<point x="391" y="442"/>
			<point x="367" y="422"/>
		</contour>
	</outline>
</glyph>
<glyph name="equal.den" format="2">
	<advance width="600"/>
	<outline>
		<contour>
			<point x="149" y="293" type="line"/>
			<point x="139" y="223" type="line"/>
			<point x="450" y="223" type="line"/>
			<point x="460" y="293" type="line"/>
		</contour>
		<contour>
			<point x="130" y="156" type="line"/>
			<point x="120" y="86" type="line"/>
			<point x="431" y="86" type="line"/>
			<point x="441" y="156" type="line"/>
		</contour>
	</outline>
</glyph>
<glyph name="equal_bar.rem" format="2">
	<advance width="600"/>
	<outline>
		<contour>
			<point x="325" y="-55" type="line"/>
			<point x="429" y="684" type="line"/>
			<point x="312" y="684" type="line"/>
			<point x="283" y="478" type="line"/>
			<point x="-405" y="478" type="line"/>
			<point x="-420" y="371" type="line"/>
			<point x="268" y="371" type="line"/>
			<point x="252" y="258" type="line"/>
			<point x="-436" y="258" type="line"/>
			<point x="-451" y="151" type="line"/>
			<point x="237" y="151" type="line"/>
			<point x="208" y="-55" type="line"/>
		</contour>
	</outline>
</glyph>
<glyph name="equal_bar_bar.rem" format="2">
	<advance width="600"/>
	<outline>
		<contour>
			<point x="325" y="-55" type="line"/>
			<point x="429" y="684" type="line"/>
			<point x="312" y="684" type="line"/>
			<point x="208" y="-55" type="line"/>
		</contour>
		<contour>
			<point x="-57" y="-55" type="line"/>
			<point x="47" y="684" type="line"/>
			<point x="-70" y="684" type="line"/>
			<point x="-99" y="478" type="line"/>
			<point x="-1005" y="478" type="line"/>
			<point x="-1020" y="371" type="line"/>
			<point x="-114" y="371" type="line"/>
			<point x="-130" y="258" type="line"/>
			<point x="-1036" y="258" type="line"/>
			<point x="-1051" y="151" type="line"/>
			<point x="-145" y="151" type="line"/>
			<point x="-174" y="-55" type="line"/>
		</contour>
	</outline>
</glyph>
<glyph name="equal_colon_equal.rem" format="2">
	<advance width="600"/>
	<outline>
		<contour>
			<point x="-281" y="354" type="curve" smooth="yes"/>
			<point x="-221" y="354"/>
			<point x="-191" y="379"/>
			<point x="-184" y="432" type="curve" smooth="yes"/>
			<point x="-175" y="492"/>
			<point x="-203" y="521"/>
			<point x="-268" y="521" type="curve" smooth="yes"/>
			<point x="-330" y="521"/>
			<point x="-360" y="497"/>
			<point x="-367" y="444" type="curve" smooth="yes"/>
			<point x="-376" y="383"/>
			<point x="-349" y="354"/>
		</contour>
		<contour>
			<point x="-37" y="352" type="line"/>
			<point x="447" y="352" type="line"/>
			<point x="462" y="459" type="line"/>
			<point x="-22" y="459" type="line"/>
		</contour>
		<contour>
			<point x="-1023" y="352" type="line"/>
			<point x="-539" y="352" type="line"/>
			<point x="-524" y="459" type="line"/>
			<point x="-1008" y="459" type="line"/>
		</contour>
		<contour>
			<point x="-1053" y="132" type="line"/>
			<point x="-569" y="132" type="line"/>
			<point x="-554" y="239" type="line"/>
			<point x="-1038" y="239" type="line"/>
		</contour>
		<contour>
			<point x="-67" y="132" type="line"/>
			<point x="417" y="132" type="line"/>
			<point x="432" y="239" type="line"/>
			<point x="-52" y="239" type="line"/>
		</contour>
		<contour>
			<point x="-322" y="63" type="curve" smooth="yes"/>
			<point x="-262" y="63"/>
			<point x="-232" y="88"/>
			<point x="-225" y="141" type="curve" smooth="yes"/>
			<point x="-216" y="201"/>
			<point x="-244" y="230"/>
			<point x="-309" y="230" type="curve" smooth="yes"/>
			<point x="-371" y="230"/>
			<point x="-401" y="206"/>
			<point x="-408" y="153" type="curve" smooth="yes"/>
			<point x="-417" y="92"/>
			<point x="-390" y="63"/>
		</contour>
	</outline>
</glyph>
<glyph name="equal_equal.cLig" format="2">
	<advance width="600"/>
	<outline>
		<contour>
			<point x="-423" y="350" type="line"/>
			<point x="447" y="350" type="line"/>
			<point x="462" y="456" type="line"/>
			<point x="-408" y="456" type="line"/>
		</contour>
		<contour>
			<point x="-454" y="130" type="line"/>
			<point x="416" y="130" type="line"/>
			<point x="431" y="236" type="line"/>
			<point x="-439" y="236" type="line"/>
		</contour>
	</outline>
</glyph>
<glyph name="equal_equal_equal.cLig" format="2">
	<advance width="600"/>
	<outline>
		<contour>
			<point x="-1020" y="470" type="line"/>
			<point x="479" y="470" type="line"/>
			<point x="493" y="569" type="line"/>
			<point x="-1006" y="569" type="line"/>
		</contour>
		<contour>
			<point x="-1050" y="263" type="line"/>
			<point x="450" y="263" type="line"/>
			<point x="464" y="363" type="line"/>
			<point x="-1035" y="363" type="line"/>
		</contour>
		<contour>
			<point x="-1079" y="57" type="line"/>
			<point x="421" y="57" type="line"/>
			<point x="435" y="157" type="line"/>
			<point x="-1064" y="157" type="line"/>
		</contour>
	</outline>
</glyph>
<glyph name="equal_exclam_equal.rem" format="2">
	<advance width="600"/>
	<outline>
		<contour>
			<point x="-353" y="219" type="line"/>
			<point x="-263" y="219" type="line"/>
			<point x="-193" y="552" type="line"/>
			<point x="-174" y="684" type="line"/>
			<point x="-311" y="684" type="line"/>
			<point x="-330" y="552" type="line"/>
		</contour>
		<contour>
			<point x="-37" y="352" type="line"/>
			<point x="447" y="352" type="line"/>
			<point x="462" y="459" type="line"/>
			<point x="-22" y="459" type="line"/>
		</contour>
		<contour>
			<point x="-1023" y="352" type="line"/>
			<point x="-539" y="352" type="line"/>
			<point x="-524" y="459" type="line"/>
			<point x="-1008" y="459" type="line"/>
		</contour>
		<contour>
			<point x="-1053" y="132" type="line"/>
			<point x="-569" y="132" type="line"/>
			<point x="-554" y="239" type="line"/>
			<point x="-1038" y="239" type="line"/>
		</contour>
		<contour>
			<point x="-67" y="132" type="line"/>
			<point x="417" y="132" type="line"/>
			<point x="432" y="239" type="line"/>
			<point x="-52" y="239" type="line"/>
		</contour>
		<contour>
			<point x="-333" y="-12" type="curve" smooth="yes"/>
			<point x="-277" y="-12"/>
			<point x="-251" y="10"/>
			<point x="-245" y="58" type="curve" smooth="yes"/>
			<point x="-237" y="113"/>
			<point x="-264" y="140"/>
			<point x="-323" y="140" type="curve" smooth="yes"/>
			<point x="-380" y="140"/>
			<point x="-406" y="118"/>
			<point x="-412" y="71" type="curve" smooth="yes"/>
			<point x="-420" y="14"/>
			<point x="-393" y="-12"/>
		</contour>
	</outline>
</glyph>
<glyph name="equal_greater.rem" format="2">
	<advance width="600"/>
	<outline>
		<contour>
			<point x="-451" y="151" type="line"/>
			<point x="183" y="151" type="line"/>
			<point x="32" y="0" type="line"/>
			<point x="183" y="0" type="line"/>
			<point x="490" y="311" type="line"/>
			<point x="261" y="629" type="line"/>
			<point x="123" y="629" type="line"/>
			<point x="232" y="478" type="line"/>
			<point x="-405" y="478" type="line"/>
			<point x="-420" y="371" type="line"/>
			<point x="309" y="371" type="line"/>
			<point x="348" y="317" type="line"/>
			<point x="289" y="258" type="line"/>
			<point x="-436" y="258" type="line"/>
		</contour>
	</outline>
</glyph>
<glyph name="exclam_asciitilde.cLig" format="2">
	<advance width="600"/>
	<outline>
		<contour>
			<point x="-335" y="-67" type="line"/>
			<point x="-218" y="-67" type="line"/>
			<point x="-63" y="132" type="line"/>
			<point x="301" y="132" type="line"/>
			<point x="317" y="238" type="line"/>
			<point x="19" y="238" type="line"/>
			<point x="85" y="323" type="line"/>
			<point x="109" y="316"/>
			<point x="135" y="311"/>
			<point x="165" y="311" type="curve" smooth="yes"/>
			<point x="239" y="311"/>
			<point x="299" y="340"/>
			<point x="337" y="387" type="curve"/>
			<point x="354" y="506" type="line"/>
			<point x="291" y="434"/>
			<point x="239" y="418"/>
			<point x="173" y="420" type="curve" smooth="yes"/>
			<point x="169" y="420"/>
			<point x="165" y="420"/>
			<point x="161" y="421" type="curve"/>
			<point x="337" y="647" type="line"/>
			<point x="221" y="647" type="line"/>
			<point x="68" y="450" type="line"/>
			<point x="11" y="478"/>
			<point x="-46" y="513"/>
			<point x="-125" y="513" type="curve" smooth="yes"/>
			<point x="-192" y="513"/>
			<point x="-258" y="485"/>
			<point x="-295" y="438" type="curve"/>
			<point x="-313" y="319" type="line"/>
			<point x="-261" y="381"/>
			<point x="-199" y="405"/>
			<point x="-137" y="405" type="curve" smooth="yes"/>
			<point x="-86" y="405"/>
			<point x="-46" y="383"/>
			<point x="-2" y="360" type="curve"/>
			<point x="-97" y="238" type="line"/>
			<point x="-323" y="238" type="line"/>
			<point x="-339" y="132" type="line"/>
			<point x="-180" y="132" type="line"/>
		</contour>
	</outline>
</glyph>
<glyph name="exclam_equal.cLig" format="2">
	<advance width="600"/>
	<outline>
		<contour>
			<point x="-455" y="130" type="line"/>
			<point x="-174" y="130" type="line"/>
			<point x="-333" y="-77" type="line"/>
			<point x="-214" y="-77" type="line"/>
			<point x="-55" y="130" type="line"/>
			<point x="415" y="130" type="line"/>
			<point x="430" y="236" type="line"/>
			<point x="26" y="236" type="line"/>
			<point x="113" y="350" type="line"/>
			<point x="446" y="350" type="line"/>
			<point x="461" y="456" type="line"/>
			<point x="194" y="456" type="line"/>
			<point x="341" y="647" type="line"/>
			<point x="222" y="647" type="line"/>
			<point x="76" y="456" type="line"/>
			<point x="-409" y="456" type="line"/>
			<point x="-424" y="350" type="line"/>
			<point x="-5" y="350" type="line"/>
			<point x="-93" y="236" type="line"/>
			<point x="-440" y="236" type="line"/>
		</contour>
	</outline>
</glyph>
<glyph name="exclam_equal.med" format="2">
	<advance width="600"/>
	<outline>
		<contour>
			<point x="248" y="219" type="line"/>
			<point x="338" y="219" type="line"/>
			<point x="408" y="552" type="line"/>
			<point x="427" y="684" type="line"/>
			<point x="290" y="684" type="line"/>
			<point x="271" y="552" type="line"/>
		</contour>
		<contour>
			<point x="515" y="373" type="line"/>
			<point x="615" y="373" type="line"/>
			<point x="630" y="479" type="line"/>
			<point x="530" y="479" type="line"/>
		</contour>
		<contour>
			<point x="15" y="373" type="line"/>
			<point x="115" y="373" type="line"/>
			<point x="130" y="479" type="line"/>
			<point x="30" y="479" type="line"/>
		</contour>
		<contour>
			<point x="485" y="153" type="line"/>
			<point x="584" y="153" type="line"/>
			<point x="600" y="260" type="line"/>
			<point x="500" y="260" type="line"/>
		</contour>
		<contour>
			<point x="-16" y="153" type="line"/>
			<point x="84" y="153" type="line"/>
			<point x="99" y="260" type="line"/>
			<point x="0" y="260" type="line"/>
		</contour>
		<contour>
			<point x="268" y="-12" type="curve" smooth="yes"/>
			<point x="324" y="-12"/>
			<point x="350" y="10"/>
			<point x="356" y="58" type="curve" smooth="yes"/>
			<point x="364" y="113"/>
			<point x="337" y="140"/>
			<point x="278" y="140" type="curve" smooth="yes"/>
			<point x="221" y="140"/>
			<point x="195" y="118"/>
			<point x="189" y="71" type="curve" smooth="yes"/>
			<point x="181" y="14"/>
			<point x="208" y="-12"/>
		</contour>
	</outline>
</glyph>
<glyph name="exclam_exclam_period.cLig" format="2">
	<advance width="600"/>
	<outline>
		<contour>
			<point x="-834" y="219" type="line"/>
			<point x="-744" y="219" type="line"/>
			<point x="-674" y="552" type="line"/>
			<point x="-655" y="684" type="line"/>
			<point x="-792" y="684" type="line"/>
			<point x="-811" y="552" type="line"/>
		</contour>
		<contour>
			<point x="-814" y="-12" type="curve" smooth="yes"/>
			<point x="-758" y="-12"/>
			<point x="-732" y="10"/>
			<point x="-726" y="58" type="curve" smooth="yes"/>
			<point x="-718" y="113"/>
			<point x="-745" y="140"/>
			<point x="-804" y="140" type="curve" smooth="yes"/>
			<point x="-861" y="140"/>
			<point x="-887" y="118"/>
			<point x="-893" y="71" type="curve" smooth="yes"/>
			<point x="-901" y="14"/>
			<point x="-874" y="-12"/>
		</contour>
		<contour>
			<point x="-351" y="219" type="line"/>
			<point x="-261" y="219" type="line"/>
			<point x="-191" y="552" type="line"/>
			<point x="-172" y="684" type="line"/>
			<point x="-309" y="684" type="line"/>
			<point x="-328" y="552" type="line"/>
		</contour>
		<contour>
			<point x="-331" y="-12" type="curve" smooth="yes"/>
			<point x="-275" y="-12"/>
			<point x="-249" y="10"/>
			<point x="-243" y="58" type="curve" smooth="yes"/>
			<point x="-235" y="113"/>
			<point x="-262" y="140"/>
			<point x="-321" y="140" type="curve" smooth="yes"/>
			<point x="-378" y="140"/>
			<point x="-404" y="118"/>
			<point x="-410" y="71" type="curve" smooth="yes"/>
			<point x="-418" y="14"/>
			<point x="-391" y="-12"/>
		</contour>
		<contour>
			<point x="153" y="-12" type="curve" smooth="yes"/>
			<point x="213" y="-12"/>
			<point x="243" y="13"/>
			<point x="250" y="66" type="curve" smooth="yes"/>
			<point x="259" y="126"/>
			<point x="231" y="155"/>
			<point x="166" y="155" type="curve" smooth="yes"/>
			<point x="104" y="155"/>
			<point x="74" y="131"/>
			<point x="67" y="78" type="curve" smooth="yes"/>
			<point x="58" y="17"/>
			<point x="85" y="-12"/>
		</contour>
	</outline>
</glyph>
<glyph name="four.numr" format="2">
	<advance width="600"/>
	<outline>
		<contour>
			<point x="338" y="372" type="line"/>
			<point x="414" y="372" type="line"/>
			<point x="423" y="433" type="line"/>
			<point x="457" y="433" type="line"/>
			<point x="466" y="495" type="line"/>
			<point x="431" y="495" type="line"/>
			<point x="462" y="718" type="line"/>
			<point x="345" y="718" type="line"/>
			<point x="188" y="495" type="line"/>
			<point x="180" y="434" type="line"/>
			<point x="347" y="434" type="line"/>
		</contour>
		<contour>
			<point x="262" y="495" type="line"/>
			<point x="379" y="667" type="line"/>
			<point x="355" y="495" type="line"/>
		</contour>
	</outline>
</glyph>
<glyph name="grave.cap" format="2">
	<advance width="600"/>
	<outline>
		<contour>
			<point x="462" y="745" type="line"/>
			<point x="425" y="884" type="line"/>
			<point x="292" y="884" type="line"/>
			<point x="370" y="745" type="line"/>
		</contour>
	</outline>
	<anchor name="_top" x="411" y="684"/>
</glyph>
<glyph name="greater_equal.cLig" format="2">
	<advance width="600"/>
	<outline>
		<contour>
			<point x="-304" y="171" type="line"/>
			<point x="318" y="388" type="line"/>
			<point x="338" y="526" type="line"/>
			<point x="-223" y="745" type="line"/>
			<point x="-239" y="633" type="line"/>
			<point x="228" y="463" type="line"/>
			<point x="-287" y="288" type="line"/>
		</contour>
		<contour>
			<point x="-337" y="-69" type="line"/>
			<point x="284" y="147" type="line"/>
			<point x="300" y="257" type="line"/>
			<point x="-322" y="41" type="line"/>
		</contour>
	</outline>
</glyph>
<glyph name="greater_equal.init" format="2">
	<advance width="600"/>
	<outline>
		<contour>
			<point x="279" y="371" type="line"/>
			<point x="614" y="371" type="line"/>
			<point x="630" y="478" type="line"/>
			<point x="344" y="478" type="line"/>
			<point x="237" y="629" type="line"/>
			<point x="101" y="629" type="line"/>
		</contour>
		<contour>
			<point x="16" y="0" type="line"/>
			<point x="165" y="0" type="line"/>
			<point x="313" y="151" type="line"/>
			<point x="584" y="151" type="line"/>
			<point x="599" y="258" type="line"/>
			<point x="263" y="258" type="line"/>
		</contour>
	</outline>
</glyph>
<glyph name="greater_equal.rem" format="2">
	<advance width="600"/>
	<outline>
		<contour>
			<point x="-270" y="371" type="line"/>
			<point x="465" y="371" type="line"/>
			<point x="480" y="478" type="line"/>
			<point x="-205" y="478" type="line"/>
			<point x="-312" y="629" type="line"/>
			<point x="-448" y="629" type="line"/>
		</contour>
		<contour>
			<point x="-533" y="0" type="line"/>
			<point x="-384" y="0" type="line"/>
			<point x="-236" y="151" type="line"/>
			<point x="434" y="151" type="line"/>
			<point x="449" y="258" type="line"/>
			<point x="-286" y="258" type="line"/>
		</contour>
	</outline>
</glyph>
<glyph name="greater_equal_greater.rem" format="2">
	<advance width="600"/>
	<outline>
		<contour>
			<point x="-1121" y="0" type="line"/>
			<point x="-972" y="0" type="line"/>
			<point x="-824" y="151" type="line"/>
			<point x="185" y="151" type="line"/>
			<point x="34" y="0" type="line"/>
			<point x="185" y="0" type="line"/>
			<point x="492" y="311" type="line"/>
			<point x="263" y="629" type="line"/>
			<point x="125" y="629" type="line"/>
			<point x="234" y="478" type="line"/>
			<point x="-793" y="478" type="line"/>
			<point x="-900" y="629" type="line"/>
			<point x="-1036" y="629" type="line"/>
			<point x="-858" y="371" type="line"/>
			<point x="311" y="371" type="line"/>
			<point x="350" y="317" type="line"/>
			<point x="291" y="258" type="line"/>
			<point x="-874" y="258" type="line"/>
		</contour>
	</outline>
</glyph>
<glyph name="greater_greater.cLig" format="2">
	<advance width="600"/>
	<outline>
		<contour>
			<point x="-544" y="25" type="line"/>
			<point x="-53" y="229" type="line"/>
			<point x="-34" y="366" type="line"/>
			<point x="-467" y="571" type="line"/>
			<point x="-484" y="454" type="line"/>
			<point x="-146" y="300" type="line"/>
			<point x="-526" y="150" type="line"/>
		</contour>
		<contour>
			<point x="26" y="25" type="line"/>
			<point x="517" y="229" type="line"/>
			<point x="536" y="366" type="line"/>
			<point x="103" y="571" type="line"/>
			<point x="86" y="454" type="line"/>
			<point x="424" y="300" type="line"/>
			<point x="44" y="150" type="line"/>
		</contour>
	</outline>
</glyph>
<glyph name="greater_greater_equal.init" format="2">
	<advance width="600"/>
	<outline>
		<contour>
			<point x="-562" y="0" type="line"/>
			<point x="-411" y="0" type="line"/>
			<point x="-100" y="313" type="line"/>
			<point x="-334" y="629" type="line"/>
			<point x="-474" y="629" type="line"/>
			<point x="-244" y="320" type="line"/>
		</contour>
		<contour>
			<point x="87" y="371" type="line"/>
			<point x="615" y="371" type="line"/>
			<point x="630" y="478" type="line"/>
			<point x="151" y="478" type="line"/>
			<point x="45" y="629" type="line"/>
			<point x="-92" y="629" type="line"/>
		</contour>
		<contour>
			<point x="-177" y="0" type="line"/>
			<point x="-28" y="0" type="line"/>
			<point x="120" y="151" type="line"/>
			<point x="584" y="151" type="line"/>
			<point x="599" y="258" type="line"/>
			<point x="71" y="258" type="line"/>
		</contour>
	</outline>
</glyph>
<glyph name="greater_greater_hyphen.init" format="2">
	<advance width="600"/>
	<outline>
		<contour>
			<point x="-549" y="0" type="line"/>
			<point x="-398" y="0" type="line"/>
			<point x="-94" y="314" type="line"/>
			<point x="-326" y="629" type="line"/>
			<point x="-464" y="629" type="line"/>
			<point x="-240" y="320" type="line"/>
		</contour>
		<contour>
			<point x="-166" y="0" type="line"/>
			<point x="-15" y="0" type="line"/>
			<point x="236" y="258" type="line"/>
			<point x="599" y="258" type="line"/>
			<point x="615" y="371" type="line"/>
			<point x="248" y="371" type="line"/>
			<point x="57" y="629" type="line"/>
			<point x="-81" y="629" type="line"/>
			<point x="142" y="321" type="line"/>
		</contour>
	</outline>
</glyph>
<glyph name="greater_greater_hyphen.rem" format="2">
	<advance width="600"/>
	<outline>
		<contour>
			<point x="-1109" y="0" type="line"/>
			<point x="-958" y="0" type="line"/>
			<point x="-654" y="314" type="line"/>
			<point x="-886" y="629" type="line"/>
			<point x="-1024" y="629" type="line"/>
			<point x="-800" y="320" type="line"/>
		</contour>
		<contour>
			<point x="-726" y="0" type="line"/>
			<point x="-575" y="0" type="line"/>
			<point x="-324" y="258" type="line"/>
			<point x="468" y="258" type="line"/>
			<point x="484" y="371" type="line"/>
			<point x="-312" y="371" type="line"/>
			<point x="-503" y="629" type="line"/>
			<point x="-641" y="629" type="line"/>
			<point x="-418" y="321" type="line"/>
		</contour>
	</outline>
</glyph>
<glyph name="greater_hyphen.init" format="2">
	<advance width="600"/>
	<outline>
		<contour>
			<point x="48" y="0" type="line"/>
			<point x="200" y="0" type="line"/>
			<point x="450" y="258" type="line"/>
			<point x="599" y="258" type="line"/>
			<point x="615" y="371" type="line"/>
			<point x="463" y="371" type="line"/>
			<point x="271" y="629" type="line"/>
			<point x="133" y="629" type="line"/>
			<point x="357" y="321" type="line"/>
		</contour>
	</outline>
</glyph>
<glyph name="greater_hyphen.med" format="2">
	<advance width="600"/>
	<outline>
		<contour>
			<point x="161" y="629" type="line"/>
			<point x="355" y="370" type="line"/>
			<point x="15" y="371" type="line"/>
			<point x="-1" y="258" type="line"/>
			<point x="331" y="257" type="line"/>
			<point x="68" y="0" type="line"/>
			<point x="216" y="0" type="line"/>
			<point x="475" y="258" type="line"/>
			<point x="599" y="258" type="line"/>
			<point x="615" y="371" type="line"/>
			<point x="490" y="371" type="line"/>
			<point x="299" y="629" type="line"/>
		</contour>
	</outline>
</glyph>
<glyph name="hungarumlaut.cap" format="2">
	<advance width="600"/>
	<outline>
		<contour>
			<point x="367" y="745" type="line"/>
			<point x="452" y="745" type="line"/>
			<point x="555" y="884" type="line"/>
			<point x="440" y="884" type="line"/>
		</contour>
		<contour>
			<point x="200" y="745" type="line"/>
			<point x="286" y="745" type="line"/>
			<point x="388" y="884" type="line"/>
			<point x="273" y="884" type="line"/>
		</contour>
	</outline>
	<anchor name="_top" x="317" y="684"/>
</glyph>
<glyph name="hyphen.init" format="2">
	<advance width="600"/>
	<outline>
		<contour>
			<point x="615" y="371" type="line"/>
			<point x="180" y="371" type="line"/>
			<point x="164" y="258" type="line"/>
			<point x="599" y="258" type="line"/>
		</contour>
	</outline>
</glyph>
<glyph name="hyphen_asciitilde.cLig" format="2">
	<advance width="600"/>
	<outline>
		<contour>
			<point x="-416" y="252" type="line"/>
			<point x="2" y="252" type="line"/>
			<point x="12" y="294"/>
			<point x="31" y="322"/>
			<point x="69" y="322" type="curve" smooth="yes"/>
			<point x="134" y="322"/>
			<point x="154" y="198"/>
			<point x="260" y="198" type="curve" smooth="yes"/>
			<point x="343" y="198"/>
			<point x="404" y="254"/>
			<point x="424" y="417" type="curve"/>
			<point x="326" y="417" type="line"/>
			<point x="318" y="346"/>
			<point x="298" y="312"/>
			<point x="260" y="312" type="curve" smooth="yes"/>
			<point x="199" y="312"/>
			<point x="172" y="433"/>
			<point x="65" y="433" type="curve" smooth="yes"/>
			<point x="17" y="433"/>
			<point x="-24" y="413"/>
			<point x="-51" y="365" type="curve"/>
			<point x="-400" y="365" type="line"/>
		</contour>
	</outline>
</glyph>
<glyph name="hyphen_bar.rem" format="2">
	<advance width="600"/>
	<outline>
		<contour>
			<point x="312" y="684" type="line"/>
			<point x="268" y="370" type="line"/>
			<point x="-420" y="370" type="line"/>
			<point x="-436" y="257" type="line"/>
			<point x="252" y="257" type="line"/>
			<point x="208" y="-56" type="line"/>
			<point x="326" y="-56" type="line"/>
			<point x="430" y="684" type="line"/>
		</contour>
	</outline>
</glyph>
<glyph name="hyphen_greater_greater.rem" format="2">
	<advance width="600"/>
	<outline>
		<contour>
			<point x="31" y="0" type="line"/>
			<point x="183" y="0" type="line"/>
			<point x="485" y="314" type="line"/>
			<point x="253" y="629" type="line"/>
			<point x="116" y="629" type="line"/>
			<point x="338" y="320" type="line"/>
		</contour>
		<contour>
			<point x="-1030" y="371" type="line"/>
			<point x="-1046" y="258" type="line"/>
			<point x="-447" y="258" type="line"/>
			<point x="-115" y="257" type="line"/>
			<point x="-378" y="0" type="line"/>
			<point x="-231" y="0" type="line"/>
			<point x="85" y="314" type="line"/>
			<point x="-148" y="629" type="line"/>
			<point x="-285" y="629" type="line"/>
			<point x="-92" y="370" type="line"/>
			<point x="-360" y="371" type="line"/>
		</contour>
	</outline>
</glyph>
<glyph name="hyphen_hyphen.cLig" format="2">
	<advance width="600"/>
	<outline>
		<contour>
			<point x="-72" y="353" type="line"/>
			<point x="-429" y="353" type="line"/>
			<point x="-444" y="241" type="line"/>
			<point x="-88" y="241" type="line"/>
		</contour>
		<contour>
			<point x="453" y="353" type="line"/>
			<point x="96" y="353" type="line"/>
			<point x="81" y="241" type="line"/>
			<point x="437" y="241" type="line"/>
		</contour>
	</outline>
</glyph>
<glyph name="hyphen_less.rem" format="2">
	<advance width="600"/>
	<outline>
		<contour>
			<point x="527" y="629" type="line"/>
			<point x="375" y="629" type="line"/>
			<point x="125" y="371" type="line"/>
			<point x="-459" y="371" type="line"/>
			<point x="-475" y="258" type="line"/>
			<point x="112" y="258" type="line"/>
			<point x="304" y="0" type="line"/>
			<point x="442" y="0" type="line"/>
			<point x="218" y="308" type="line"/>
		</contour>
	</outline>
</glyph>
<glyph name="k.ss01" format="2">
	<advance width="600"/>
	<outline>
		<contour>
			<point x="52" y="0" type="line"/>
			<point x="176" y="0" type="line"/>
			<point x="193" y="122" type="line"/>
			<point x="290" y="227" type="line"/>
			<point x="389" y="0" type="line"/>
			<point x="524" y="0" type="line"/>
			<point x="393" y="300" type="line"/>
			<point x="589" y="524" type="line"/>
			<point x="445" y="524" type="line"/>
			<point x="213" y="255" type="line"/>
			<point x="282" y="750" type="line"/>
			<point x="158" y="750" type="line"/>
		</contour>
	</outline>
	<anchor name="bottom" x="278" y="0"/>
</glyph>
<glyph name="less_asterisk.cLig" format="2">
	<advance width="600"/>
	<outline>
		<contour>
			<point x="-92" y="-9" type="line"/>
			<point x="-74" y="110" type="line"/>
			<point x="-404" y="311" type="line"/>
			<point x="-19" y="508" type="line"/>
			<point x="0" y="638" type="line"/>
			<point x="-483" y="383" type="line"/>
			<point x="-502" y="245" type="line"/>
		</contour>
		<contour>
			<point x="413" y="144" type="line"/>
			<point x="487" y="249" type="line"/>
			<point x="315" y="317" type="line"/>
			<point x="509" y="386" type="line"/>
			<point x="463" y="491" type="line"/>
			<point x="293" y="367" type="line"/>
			<point x="353" y="561" type="line"/>
			<point x="232" y="561" type="line"/>
			<point x="235" y="368" type="line"/>
			<point x="100" y="493" type="line"/>
			<point x="25" y="388" type="line"/>
			<point x="200" y="318" type="line"/>
			<point x="6" y="248" type="line"/>
			<point x="52" y="143" type="line"/>
			<point x="222" y="268" type="line"/>
			<point x="164" y="73" type="line"/>
			<point x="285" y="73" type="line"/>
			<point x="279" y="267" type="line"/>
		</contour>
	</outline>
</glyph>
<glyph name="less_asterisk_greater.cLig" format="2">
	<advance width="600"/>
	<outline>
		<contour>
			<point x="0" y="-8" type="line"/>
			<point x="483" y="246" type="line"/>
			<point x="502" y="384" type="line"/>
			<point x="92" y="639" type="line"/>
			<point x="74" y="521" type="line"/>
			<point x="404" y="319" type="line"/>
			<point x="19" y="122" type="line"/>
		</contour>
		<contour>
			<point x="-677" y="-9" type="line"/>
			<point x="-659" y="110" type="line"/>
			<point x="-989" y="311" type="line"/>
			<point x="-604" y="508" type="line"/>
			<point x="-585" y="638" type="line"/>
			<point x="-1068" y="383" type="line"/>
			<point x="-1087" y="245" type="line"/>
		</contour>
		<contour>
			<point x="-136" y="147" type="line"/>
			<point x="-62" y="252" type="line"/>
			<point x="-233" y="321" type="line"/>
			<point x="-40" y="389" type="line"/>
			<point x="-86" y="494" type="line"/>
			<point x="-256" y="370" type="line"/>
			<point x="-196" y="564" type="line"/>
			<point x="-317" y="564" type="line"/>
			<point x="-314" y="371" type="line"/>
			<point x="-449" y="496" type="line"/>
			<point x="-524" y="391" type="line"/>
			<point x="-348" y="321" type="line"/>
			<point x="-543" y="251" type="line"/>
			<point x="-497" y="146" type="line"/>
			<point x="-327" y="271" type="line"/>
			<point x="-385" y="76" type="line"/>
			<point x="-264" y="76" type="line"/>
			<point x="-269" y="271" type="line"/>
		</contour>
	</outline>
</glyph>
<glyph name="less_equal.rem" format="2">
	<advance width="600"/>
	<outline>
		<contour>
			<point x="548" y="629" type="line"/>
			<point x="399" y="629" type="line"/>
			<point x="251" y="478" type="line"/>
			<point x="-419" y="478" type="line"/>
			<point x="-434" y="371" type="line"/>
			<point x="301" y="371" type="line"/>
		</contour>
		<contour>
			<point x="285" y="258" type="line"/>
			<point x="-450" y="258" type="line"/>
			<point x="-465" y="151" type="line"/>
			<point x="220" y="151" type="line"/>
			<point x="327" y="0" type="line"/>
			<point x="463" y="0" type="line"/>
		</contour>
	</outline>
</glyph>
<glyph name="less_equal_equal.rem" format="2">
	<advance width="600"/>
	<outline>
		<contour>
			<point x="465" y="478" type="line"/>
			<point x="-758" y="478" type="line"/>
			<point x="-607" y="629" type="line"/>
			<point x="-758" y="629" type="line"/>
			<point x="-1065" y="318" type="line"/>
			<point x="-836" y="0" type="line"/>
			<point x="-698" y="0" type="line"/>
			<point x="-807" y="151" type="line"/>
			<point x="419" y="151" type="line"/>
			<point x="434" y="258" type="line"/>
			<point x="-884" y="258" type="line"/>
			<point x="-923" y="312" type="line"/>
			<point x="-864" y="371" type="line"/>
			<point x="450" y="371" type="line"/>
		</contour>
	</outline>
</glyph>
<glyph name="less_equal_equal_greater.rem" format="2">
	<advance width="600"/>
	<outline>
		<contour>
			<point x="27" y="0" type="line"/>
			<point x="178" y="0" type="line"/>
			<point x="485" y="311" type="line"/>
			<point x="256" y="629" type="line"/>
			<point x="118" y="629" type="line"/>
			<point x="227" y="478" type="line"/>
			<point x="-1363" y="478" type="line"/>
			<point x="-1212" y="629" type="line"/>
			<point x="-1363" y="629" type="line"/>
			<point x="-1670" y="318" type="line"/>
			<point x="-1441" y="0" type="line"/>
			<point x="-1303" y="0" type="line"/>
			<point x="-1412" y="151" type="line"/>
			<point x="178" y="151" type="line"/>
		</contour>
		<contour>
			<point x="343" y="317" type="line"/>
			<point x="284" y="258" type="line"/>
			<point x="-1489" y="258" type="line"/>
			<point x="-1528" y="312" type="line"/>
			<point x="-1469" y="371" type="line"/>
			<point x="304" y="371" type="line"/>
		</contour>
	</outline>
</glyph>
<glyph name="less_equal_less.rem" format="2">
	<advance width="600"/>
	<outline>
		<contour>
			<point x="273" y="258" type="line"/>
			<point x="-896" y="258" type="line"/>
			<point x="-935" y="312" type="line"/>
			<point x="-876" y="371" type="line"/>
			<point x="289" y="371" type="line"/>
			<point x="536" y="629" type="line"/>
			<point x="387" y="629" type="line"/>
			<point x="239" y="478" type="line"/>
			<point x="-770" y="478" type="line"/>
			<point x="-619" y="629" type="line"/>
			<point x="-770" y="629" type="line"/>
			<point x="-1077" y="318" type="line"/>
			<point x="-848" y="0" type="line"/>
			<point x="-710" y="0" type="line"/>
			<point x="-819" y="151" type="line"/>
			<point x="208" y="151" type="line"/>
			<point x="315" y="0" type="line"/>
			<point x="451" y="0" type="line"/>
		</contour>
	</outline>
</glyph>
<glyph name="less_exclam_hyphen_hyphen.cLig" format="2">
	<advance width="600"/>
	<outline>
		<contour>
			<point x="-1016" y="219" type="line"/>
			<point x="-926" y="219" type="line"/>
			<point x="-856" y="552" type="line"/>
			<point x="-837" y="684" type="line"/>
			<point x="-974" y="684" type="line"/>
			<point x="-993" y="552" type="line"/>
		</contour>
		<contour>
			<point x="-1292" y="0" type="line"/>
			<point x="-1486" y="259" type="line"/>
			<point x="-1146" y="258" type="line"/>
			<point x="-1130" y="371" type="line"/>
			<point x="-1462" y="372" type="line"/>
			<point x="-1199" y="629" type="line"/>
			<point x="-1347" y="629" type="line"/>
			<point x="-1663" y="315" type="line"/>
			<point x="-1430" y="0" type="line"/>
		</contour>
		<contour>
			<point x="450" y="370" type="line"/>
			<point x="-764" y="370" type="line"/>
			<point x="-780" y="257" type="line"/>
			<point x="434" y="257" type="line"/>
		</contour>
		<contour>
			<point x="-996" y="-12" type="curve" smooth="yes"/>
			<point x="-940" y="-12"/>
			<point x="-914" y="10"/>
			<point x="-908" y="58" type="curve" smooth="yes"/>
			<point x="-900" y="113"/>
			<point x="-927" y="140"/>
			<point x="-986" y="140" type="curve" smooth="yes"/>
			<point x="-1043" y="140"/>
			<point x="-1069" y="118"/>
			<point x="-1075" y="71" type="curve" smooth="yes"/>
			<point x="-1083" y="14"/>
			<point x="-1056" y="-12"/>
		</contour>
	</outline>
</glyph>
<glyph name="less_hyphen.rem" format="2">
	<advance width="600"/>
	<outline>
		<contour>
			<point x="-75" y="0" type="line"/>
			<point x="-269" y="259" type="line"/>
			<point x="-1" y="258" type="line"/>
			<point x="-1" y="258" type="line"/>
			<point x="434" y="258" type="line"/>
			<point x="450" y="371" type="line"/>
			<point x="87" y="371" type="line"/>
			<point x="-245" y="372" type="line"/>
			<point x="18" y="629" type="line"/>
			<point x="-130" y="629" type="line"/>
			<point x="-446" y="315" type="line"/>
			<point x="-213" y="0" type="line"/>
		</contour>
	</outline>
</glyph>
<glyph name="less_hyphen_bar.rem" format="2">
	<advance width="600"/>
	<outline>
		<contour>
			<point x="487" y="629" type="line"/>
			<point x="369" y="629" type="line"/>
			<point x="333" y="371" type="line"/>
			<point x="-512" y="371" type="line"/>
			<point x="-844" y="372" type="line"/>
			<point x="-581" y="629" type="line"/>
			<point x="-729" y="629" type="line"/>
			<point x="-1045" y="315" type="line"/>
			<point x="-812" y="0" type="line"/>
			<point x="-674" y="0" type="line"/>
			<point x="-868" y="259" type="line"/>
			<point x="-600" y="258" type="line"/>
			<point x="318" y="258" type="line"/>
			<point x="281" y="0" type="line"/>
			<point x="399" y="0" type="line"/>
		</contour>
	</outline>
</glyph>
<glyph name="less_hyphen_greater.rem" format="2">
	<advance width="600"/>
	<outline>
		<contour>
			<point x="-699" y="0" type="line"/>
			<point x="-893" y="259" type="line"/>
			<point x="-625" y="258" type="line"/>
			<point x="-49" y="258" type="line"/>
			<point x="283" y="257" type="line"/>
			<point x="20" y="0" type="line"/>
			<point x="168" y="0" type="line"/>
			<point x="484" y="314" type="line"/>
			<point x="251" y="629" type="line"/>
			<point x="113" y="629" type="line"/>
			<point x="307" y="370" type="line"/>
			<point x="39" y="371" type="line"/>
			<point x="-537" y="371" type="line"/>
			<point x="-869" y="372" type="line"/>
			<point x="-606" y="629" type="line"/>
			<point x="-754" y="629" type="line"/>
			<point x="-1070" y="315" type="line"/>
			<point x="-837" y="0" type="line"/>
		</contour>
	</outline>
</glyph>
<glyph name="less_hyphen_hyphen.rem" format="2">
	<advance width="600"/>
	<outline>
		<contour>
			<point x="434" y="258" type="line"/>
			<point x="450" y="371" type="line"/>
			<point x="-513" y="371" type="line"/>
			<point x="-845" y="372" type="line"/>
			<point x="-582" y="629" type="line"/>
			<point x="-730" y="629" type="line"/>
			<point x="-1046" y="315" type="line"/>
			<point x="-813" y="0" type="line"/>
			<point x="-675" y="0" type="line"/>
			<point x="-869" y="259" type="line"/>
			<point x="-601" y="258" type="line"/>
		</contour>
	</outline>
</glyph>
<glyph name="less_hyphen_less.rem" format="2">
	<advance width="600"/>
	<outline>
		<contour>
			<point x="-695" y="-1" type="line"/>
			<point x="-889" y="258" type="line"/>
			<point x="-621" y="257" type="line"/>
			<point x="-621" y="257" type="line"/>
			<point x="106" y="257" type="line"/>
			<point x="298" y="-1" type="line"/>
			<point x="436" y="-1" type="line"/>
			<point x="212" y="307" type="line"/>
			<point x="521" y="628" type="line"/>
			<point x="369" y="628" type="line"/>
			<point x="119" y="370" type="line"/>
			<point x="-533" y="370" type="line"/>
			<point x="-865" y="371" type="line"/>
			<point x="-602" y="628" type="line"/>
			<point x="-750" y="628" type="line"/>
			<point x="-1066" y="314" type="line"/>
			<point x="-833" y="-1" type="line"/>
		</contour>
	</outline>
</glyph>
<glyph name="less_less.cLig" format="2">
	<advance width="600"/>
	<outline>
		<contour>
			<point x="-92" y="25" type="line"/>
			<point x="-76" y="143" type="line"/>
			<point x="-414" y="295" type="line"/>
			<point x="-33" y="447" type="line"/>
			<point x="-15" y="571" type="line"/>
			<point x="-507" y="366" type="line"/>
			<point x="-526" y="229" type="line"/>
		</contour>
		<contour>
			<point x="478" y="25" type="line"/>
			<point x="494" y="143" type="line"/>
			<point x="156" y="295" type="line"/>
			<point x="537" y="447" type="line"/>
			<point x="555" y="571" type="line"/>
			<point x="63" y="366" type="line"/>
			<point x="44" y="229" type="line"/>
		</contour>
	</outline>
</glyph>
<glyph name="less_less_equal.init" format="2">
	<advance width="600"/>
	<outline>
		<contour>
			<point x="-24" y="629" type="line"/>
			<point x="-175" y="629" type="line"/>
			<point x="-477" y="316" type="line"/>
			<point x="-244" y="0" type="line"/>
			<point x="-104" y="0" type="line"/>
			<point x="-332" y="311" type="line"/>
		</contour>
		<contour>
			<point x="630" y="478" type="line"/>
			<point x="214" y="478" type="line"/>
			<point x="364" y="629" type="line"/>
			<point x="214" y="629" type="line"/>
			<point x="-93" y="318" type="line"/>
			<point x="136" y="0" type="line"/>
			<point x="274" y="0" type="line"/>
			<point x="165" y="151" type="line"/>
			<point x="584" y="151" type="line"/>
			<point x="599" y="258" type="line"/>
			<point x="88" y="258" type="line"/>
			<point x="49" y="312" type="line"/>
			<point x="108" y="371" type="line"/>
			<point x="615" y="371" type="line"/>
		</contour>
	</outline>
</glyph>
<glyph name="less_less_equal.rem" format="2">
	<advance width="600"/>
	<outline>
		<contour>
			<point x="-610" y="629" type="line"/>
			<point x="-761" y="629" type="line"/>
			<point x="-1063" y="316" type="line"/>
			<point x="-830" y="0" type="line"/>
			<point x="-690" y="0" type="line"/>
			<point x="-918" y="311" type="line"/>
		</contour>
		<contour>
			<point x="465" y="478" type="line"/>
			<point x="-372" y="478" type="line"/>
			<point x="-222" y="629" type="line"/>
			<point x="-372" y="629" type="line"/>
			<point x="-679" y="318" type="line"/>
			<point x="-450" y="0" type="line"/>
			<point x="-312" y="0" type="line"/>
			<point x="-421" y="151" type="line"/>
			<point x="419" y="151" type="line"/>
			<point x="434" y="258" type="line"/>
			<point x="-498" y="258" type="line"/>
			<point x="-537" y="312" type="line"/>
			<point x="-478" y="371" type="line"/>
			<point x="450" y="371" type="line"/>
		</contour>
	</outline>
</glyph>
<glyph name="less_less_hyphen.rem" format="2">
	<advance width="600"/>
	<outline>
		<contour>
			<point x="-616" y="629" type="line"/>
			<point x="-768" y="629" type="line"/>
			<point x="-1070" y="315" type="line"/>
			<point x="-838" y="0" type="line"/>
			<point x="-701" y="0" type="line"/>
			<point x="-923" y="309" type="line"/>
		</contour>
		<contour>
			<point x="445" y="258" type="line"/>
			<point x="461" y="371" type="line"/>
			<point x="-138" y="371" type="line"/>
			<point x="-470" y="372" type="line"/>
			<point x="-207" y="629" type="line"/>
			<point x="-354" y="629" type="line"/>
			<point x="-670" y="315" type="line"/>
			<point x="-437" y="0" type="line"/>
			<point x="-300" y="0" type="line"/>
			<point x="-493" y="259" type="line"/>
			<point x="-225" y="258" type="line"/>
		</contour>
	</outline>
</glyph>
<glyph name="lslashcomb" format="2">
	<advance width="600"/>
	<outline>
		<contour>
			<point x="21" y="352" type="line"/>
			<point x="477" y="516" type="line"/>
			<point x="490" y="608" type="line"/>
			<point x="34" y="443" type="line"/>
		</contour>
	</outline>
	<anchor name="_center" x="254" y="476"/>
</glyph>
<glyph name="macron.cap" format="2">
	<advance width="600"/>
	<outline>
		<contour>
			<point x="224" y="764" type="line"/>
			<point x="518" y="764" type="line"/>
			<point x="528" y="839" type="line"/>
			<point x="234" y="839" type="line"/>
		</contour>
	</outline>
	<anchor name="_top" x="361" y="684"/>
</glyph>
<glyph name="minus.den" format="2">
	<advance width="600"/>
	<outline>
		<contour>
			<point x="139" y="224" type="line"/>
			<point x="129" y="155" type="line"/>
			<point x="441" y="155" type="line"/>
			<point x="451" y="224" type="line"/>
		</contour>
	</outline>
</glyph>
<glyph name="nine.numr" format="2">
	<advance width="600"/>
	<outline>
		<contour>
			<point x="306" y="366" type="curve" smooth="yes"/>
			<point x="418" y="366"/>
			<point x="463" y="428"/>
			<point x="478" y="549" type="curve" smooth="yes"/>
			<point x="491" y="658"/>
			<point x="460" y="724"/>
			<point x="351" y="724" type="curve" smooth="yes"/>
			<point x="267" y="724"/>
			<point x="212" y="672"/>
			<point x="212" y="586" type="curve" smooth="yes"/>
			<point x="212" y="526"/>
			<point x="246" y="488"/>
			<point x="307" y="488" type="curve" smooth="yes"/>
			<point x="345" y="488"/>
			<point x="375" y="507"/>
			<point x="398" y="548" type="curve"/>
			<point x="385" y="460"/>
			<point x="360" y="427"/>
			<point x="298" y="427" type="curve" smooth="yes"/>
			<point x="261" y="427"/>
			<point x="226" y="440"/>
			<point x="201" y="460" type="curve"/>
			<point x="193" y="397" type="line"/>
			<point x="216" y="379"/>
			<point x="260" y="366"/>
		</contour>
		<contour>
			<point x="341" y="541" type="curve" smooth="yes"/>
			<point x="310" y="541"/>
			<point x="288" y="558"/>
			<point x="288" y="594" type="curve" smooth="yes"/>
			<point x="288" y="638"/>
			<point x="309" y="666"/>
			<point x="350" y="666" type="curve" smooth="yes"/>
			<point x="384" y="666"/>
			<point x="405" y="646"/>
			<point x="405" y="610" type="curve" smooth="yes"/>
			<point x="405" y="567"/>
			<point x="380" y="541"/>
		</contour>
	</outline>
</glyph>
